<?xml version="1.0" encoding="iso-8859-1"?>
<!-- Generator: Adobe Illustrator 27.5.0, SVG Export Plug-In . SVG Version: 6.00 Build 0)  -->
<svg version="1.1" id="Layer_1" xmlns="http://www.w3.org/2000/svg" xmlns:xlink="http://www.w3.org/1999/xlink" x="0px" y="0px"
	 viewBox="0 0 1022.21 256" style="enable-background:new 0 0 1022.21 256;" xml:space="preserve">
<g>
	<path d="M176.47,157.055V96.811h15.107v59.516c0,16.745,7.098,24.207,22.022,24.207c13.469,0,26.209-8.918,26.209-26.026V96.811
		h15.106V192h-15.106v-15.106c-4.368,8.918-14.924,16.744-30.213,16.744C190.667,193.638,176.47,183.264,176.47,157.055z"/>
	<path d="M285.487,96.811h15.106v15.106c4.368-8.918,14.925-16.745,30.577-16.745c19.657,0,33.489,10.739,33.489,38.404V192h-15.106
		v-59.517c0-16.744-7.098-24.206-22.387-24.206c-14.015,0-26.573,8.918-26.573,26.026V192h-15.106V96.811z"/>
	<path d="M387.223,146.316v-1.456c0-29.121,18.201-49.688,44.41-49.688c15.834,0,25.663,7.645,31.123,16.927v-60.79h15.107V192
		h-15.107v-16.381c-5.46,9.282-18.747,18.019-32.579,18.019C405.242,193.638,387.223,175.983,387.223,146.316z M463.302,145.042
		v-1.456c0-24.389-11.648-35.855-30.213-35.855c-18.929,0-30.213,13.287-30.213,36.401v1.456c0,24.025,12.923,35.492,28.939,35.492
		C449.469,181.08,463.302,169.432,463.302,145.042z"/>
	<path d="M501.338,145.406v-1.456c0-28.757,18.383-48.778,44.592-48.778c22.022,0,42.771,13.287,42.771,47.322v4.914H516.99
		c0.729,21.659,11.103,33.672,30.577,33.672c14.743,0,23.297-5.461,25.299-16.563h15.106c-3.275,19.111-19.11,29.121-40.587,29.121
		C520.448,193.638,501.338,174.709,501.338,145.406z M573.23,135.214c-1.456-19.657-11.648-27.483-27.301-27.483
		c-15.471,0-25.846,10.557-28.394,27.483H573.23z"/>
	<path d="M615.086,109.551h-13.65v-12.74h13.65V81.34c0-19.293,9.282-30.577,28.029-30.577c4.914,0,7.462,0.364,10.374,1.456v12.74
		c-2.729-1.092-5.642-1.638-9.828-1.638c-9.646,0-13.469,6.734-13.469,16.381v17.108h23.297v12.74h-23.297V192h-15.106V109.551z"/>
	<path d="M669.685,66.961c0-5.46,4.55-10.01,10.01-10.01c5.461,0,10.011,4.55,10.011,10.01c0,5.461-4.55,10.011-10.011,10.011
		C674.235,76.972,669.685,72.422,669.685,66.961z M672.415,96.811h15.106V192h-15.106V96.811z"/>
	<path d="M718.459,96.811h15.107v15.106c4.368-8.918,14.924-16.745,30.577-16.745c19.656,0,33.489,10.739,33.489,38.404V192h-15.107
		v-59.517c0-16.744-7.098-24.206-22.387-24.206c-14.014,0-26.572,8.918-26.572,26.026V192h-15.107V96.811z"/>
	<path d="M820.195,145.406v-1.456c0-28.757,18.383-48.778,44.592-48.778c22.022,0,42.771,13.287,42.771,47.322v4.914h-71.711
		c0.729,21.659,11.103,33.672,30.577,33.672c14.743,0,23.297-5.461,25.299-16.563h15.106c-3.275,19.111-19.11,29.121-40.587,29.121
		C839.305,193.638,820.195,174.709,820.195,145.406z M892.088,135.214c-1.456-19.657-11.648-27.483-27.301-27.483
		c-15.471,0-25.846,10.557-28.394,27.483H892.088z"/>
	<path d="M923.57,146.316v-1.456c0-29.121,18.2-49.688,44.409-49.688c15.835,0,25.663,7.645,31.124,16.927v-60.79h15.106V192
		h-15.106v-16.381c-5.461,9.282-18.747,18.019-32.58,18.019C941.589,193.638,923.57,175.983,923.57,146.316z M999.649,145.042
		v-1.456c0-24.389-11.648-35.855-30.214-35.855c-18.929,0-30.213,13.287-30.213,36.401v1.456c0,24.025,12.923,35.492,28.939,35.492
		C985.816,181.08,999.649,169.432,999.649,145.042z"/>
</g>
<g>
	<g>
		<path d="M112.47,88.841V198.5c0,0.828-0.672,1.5-1.5,1.5H97.9c-0.828,0-1.5-0.672-1.5-1.5v-93.148
			c0-0.338,0.114-0.666,0.324-0.931l13.07-16.51C110.676,86.796,112.47,87.42,112.47,88.841z"/>
		<path d="M112.147,59.049l-54.732,69.332c-0.6,0.76-1.752,0.761-2.354,0.002L18.746,82.501c-0.882-1.115-2.676-0.491-2.676,0.931
			V198.5c0,0.828-0.672,1.5-1.5,1.5H1.5c-0.828,0-1.5-0.672-1.5-1.5v-141C0,56.672,0.672,56,1.5,56h16.034
			c0.458,0,0.892,0.21,1.176,0.569l36.353,45.925c0.601,0.759,1.752,0.759,2.352,0L93.76,56.569C94.044,56.21,94.477,56,94.936,56
			h16.034c0.828,0,1.5,0.672,1.5,1.5v0.619C112.47,58.457,112.356,58.784,112.147,59.049z"/>
	</g>
</g>
</svg>
