<?xml version="1.0" encoding="iso-8859-1"?>
<!-- Generator: Adobe Illustrator 27.5.0, SVG Export Plug-In . SVG Version: 6.00 Build 0)  -->
<svg version="1.1" id="Layer_1" xmlns="http://www.w3.org/2000/svg" xmlns:xlink="http://www.w3.org/1999/xlink" x="0px" y="0px"
	 viewBox="0 0 1109.686 256" style="enable-background:new 0 0 1109.686 256;" xml:space="preserve">
<g>
	<path style="fill:#FFFFFF;" d="M263.947,157.055V96.811h15.107v59.516c0,16.745,7.098,24.207,22.022,24.207
		c13.469,0,26.209-8.918,26.209-26.026V96.811h15.106V192h-15.106v-15.106c-4.368,8.918-14.924,16.744-30.213,16.744
		C278.143,193.638,263.947,183.264,263.947,157.055z"/>
	<path style="fill:#FFFFFF;" d="M372.964,96.811h15.106v15.106c4.368-8.918,14.925-16.745,30.577-16.745
		c19.657,0,33.489,10.739,33.489,38.404V192H437.03v-59.517c0-16.744-7.098-24.206-22.387-24.206
		c-14.015,0-26.573,8.918-26.573,26.026V192h-15.106V96.811z"/>
	<path style="fill:#FFFFFF;" d="M474.7,146.316v-1.456c0-29.121,18.201-49.688,44.41-49.688c15.834,0,25.663,7.645,31.123,16.927
		v-60.79h15.107V192h-15.107v-16.381c-5.46,9.282-18.747,18.019-32.579,18.019C492.719,193.638,474.7,175.983,474.7,146.316z
		 M550.779,145.042v-1.456c0-24.389-11.648-35.855-30.213-35.855c-18.929,0-30.213,13.287-30.213,36.401v1.456
		c0,24.025,12.923,35.492,28.939,35.492C536.946,181.08,550.779,169.432,550.779,145.042z"/>
	<path style="fill:#FFFFFF;" d="M588.814,145.406v-1.456c0-28.757,18.383-48.778,44.592-48.778
		c22.022,0,42.771,13.287,42.771,47.322v4.914h-71.711c0.729,21.659,11.103,33.672,30.577,33.672
		c14.743,0,23.297-5.461,25.299-16.563h15.106c-3.275,19.111-19.11,29.121-40.587,29.121
		C607.925,193.638,588.814,174.709,588.814,145.406z M660.707,135.214c-1.456-19.657-11.648-27.483-27.301-27.483
		c-15.471,0-25.846,10.557-28.394,27.483H660.707z"/>
	<path style="fill:#FFFFFF;" d="M702.562,109.551h-13.65v-12.74h13.65V81.34c0-19.293,9.282-30.577,28.029-30.577
		c4.914,0,7.462,0.364,10.374,1.456v12.74c-2.729-1.092-5.642-1.638-9.828-1.638c-9.646,0-13.469,6.734-13.469,16.381v17.108h23.297
		v12.74h-23.297V192h-15.106V109.551z"/>
	<path style="fill:#FFFFFF;" d="M757.162,66.961c0-5.46,4.55-10.01,10.01-10.01c5.461,0,10.011,4.55,10.011,10.01
		c0,5.461-4.55,10.011-10.011,10.011C761.712,76.972,757.162,72.422,757.162,66.961z M759.891,96.811h15.106V192h-15.106V96.811z"/>
	<path style="fill:#FFFFFF;" d="M805.935,96.811h15.107v15.106c4.368-8.918,14.924-16.745,30.577-16.745
		c19.656,0,33.489,10.739,33.489,38.404V192h-15.107v-59.517c0-16.744-7.098-24.206-22.387-24.206
		c-14.014,0-26.572,8.918-26.572,26.026V192h-15.107V96.811z"/>
	<path style="fill:#FFFFFF;" d="M907.672,145.406v-1.456c0-28.757,18.383-48.778,44.592-48.778
		c22.022,0,42.771,13.287,42.771,47.322v4.914h-71.711c0.729,21.659,11.103,33.672,30.577,33.672
		c14.743,0,23.297-5.461,25.299-16.563h15.106c-3.275,19.111-19.11,29.121-40.587,29.121
		C926.782,193.638,907.672,174.709,907.672,145.406z M979.564,135.214c-1.456-19.657-11.648-27.483-27.301-27.483
		c-15.471,0-25.846,10.557-28.394,27.483H979.564z"/>
	<path style="fill:#FFFFFF;" d="M1011.047,146.316v-1.456c0-29.121,18.2-49.688,44.409-49.688c15.835,0,25.663,7.645,31.124,16.927
		v-60.79h15.106V192h-15.106v-16.381c-5.461,9.282-18.747,18.019-32.58,18.019C1029.065,193.638,1011.047,175.983,1011.047,146.316z
		 M1087.126,145.042v-1.456c0-24.389-11.648-35.855-30.214-35.855c-18.929,0-30.213,13.287-30.213,36.401v1.456
		c0,24.025,12.923,35.492,28.939,35.492C1073.293,181.08,1087.126,169.432,1087.126,145.042z"/>
</g>
<g>
	<path style="fill:#FFFFFF;" d="M199.947,58.385v194.948c0,1.473-1.194,2.667-2.667,2.667h-23.236c-1.473,0-2.667-1.194-2.667-2.667
		V87.737c0-0.601,0.203-1.184,0.576-1.655l23.236-29.352C196.758,54.748,199.947,55.857,199.947,58.385z"/>
	<path style="fill:#FFFFFF;" d="M199.373,5.42l-97.301,123.257c-1.067,1.351-3.115,1.353-4.184,0.003L33.326,47.113
		c-1.569-1.982-4.758-0.873-4.758,1.655v204.565c0,1.473-1.194,2.667-2.667,2.667H2.667C1.194,256,0,254.806,0,253.333V2.667
		C0,1.194,1.194,0,2.667,0h28.505c0.815,0,1.585,0.373,2.091,1.012l64.628,81.644c1.068,1.349,3.114,1.349,4.182,0l64.611-81.644
		C167.189,0.373,167.96,0,168.775,0h28.505c1.473,0,2.667,1.194,2.667,2.667v1.101C199.947,4.367,199.745,4.949,199.373,5.42z"/>
</g>
</svg>
