<?xml version="1.0" encoding="iso-8859-1"?>
<!-- Generator: Adobe Illustrator 27.5.0, SVG Export Plug-In . SVG Version: 6.00 Build 0)  -->
<svg version="1.1" id="Layer_1" xmlns="http://www.w3.org/2000/svg" xmlns:xlink="http://www.w3.org/1999/xlink" x="0px" y="0px"
	 viewBox="0 0 256 256" style="enable-background:new 0 0 256 256;" xml:space="preserve">
<g id="benefits_x5F_broker_x5F_core">
	<path style="fill:#3ADCC9;" d="M162.462,41.231v173.538c0,1.02-0.827,1.846-1.846,1.846h-16c-1.02,0-1.846-0.827-1.846-1.846
		V41.231c0-1.02,0.827-1.846,1.846-1.846h16C161.635,39.385,162.462,40.211,162.462,41.231z"/>
	<path style="fill:#7F35B2;" d="M108.16,128l-13.808-13.808c-0.721-0.721-0.721-1.89,0-2.611l8.492-8.492
		c0.346-0.346,0.541-0.816,0.541-1.305V83.692v-18.78c0-0.49-0.195-0.959-0.541-1.305l-4.53-4.53L79.162,39.925
		c-0.346-0.346-0.816-0.541-1.305-0.541H50.769H1.846C0.827,39.385,0,40.211,0,41.231v12.923v4.923v44.308v19.692v52.308
		c0,1.02,0.827,1.846,1.846,1.846h16c1.02,0,1.846-0.827,1.846-1.846v-50.462c0-1.02,0.827-1.846,1.846-1.846h33.465H74.62
		c0.49,0,0.959,0.195,1.305,0.541l3.189,3.188l18.807,18.807c0.346,0.346,0.541,0.816,0.541,1.305v25.462
		c0,0.489-0.194,0.959-0.54,1.305l-22.685,22.697c-0.346,0.346-0.816,0.541-1.306,0.541H1.846c-1.02,0-1.846,0.827-1.846,1.846v16
		c0,1.02,0.827,1.846,1.846,1.846h71.151h9.081c0.49,0,0.959-0.195,1.305-0.541l10.155-10.155l8.997-8.997l15.077-15.065
		c0.347-0.346,0.541-0.816,0.541-1.306v-23.013v-8.295v-10.485c0-0.49-0.195-0.959-0.541-1.305L108.16,128z M75.224,102.844
		c-0.346,0.346-0.816,0.541-1.305,0.541H55.692H21.538c-1.02,0-1.846-0.827-1.846-1.846V60.923c0-1.02,0.827-1.846,1.846-1.846
		h48.159c0.489,0,0.959,0.194,1.305,0.54l12.149,12.137c0.347,0.346,0.541,0.816,0.541,1.306v20.55c0,0.49-0.195,0.959-0.541,1.305
		l-4.038,4.038L75.224,102.844z"/>
	<path style="fill:#7F35B2;" d="M246.006,128l-13.808-13.808c-0.721-0.721-0.721-1.89,0-2.611l8.492-8.492
		c0.346-0.346,0.541-0.816,0.541-1.305V83.692v-18.78c0-0.49-0.195-0.959-0.541-1.305l-4.53-4.53l-19.152-19.152
		c-0.346-0.346-0.816-0.541-1.305-0.541h-27.088H184c-1.02,0-1.846,0.827-1.846,1.846v16c0,1.02,0.827,1.846,1.846,1.846h23.543
		c0.489,0,0.959,0.194,1.305,0.54l12.149,12.137c0.347,0.346,0.541,0.816,0.541,1.306v20.55c0,0.49-0.195,0.959-0.541,1.305
		l-4.038,4.038l-3.89,3.89c-0.346,0.346-0.816,0.541-1.305,0.541h-18.226H184c-1.02,0-1.846,0.827-1.846,1.846v16
		c0,1.02,0.827,1.846,1.846,1.846h8.849h19.617c0.49,0,0.959,0.195,1.305,0.541l3.189,3.188l18.807,18.807
		c0.346,0.346,0.541,0.816,0.541,1.305v25.462c0,0.489-0.194,0.959-0.54,1.305l-22.685,22.697c-0.346,0.346-0.816,0.541-1.306,0.541
		H184c-1.02,0-1.846,0.827-1.846,1.846v16c0,1.02,0.827,1.846,1.846,1.846h26.843h9.081c0.49,0,0.959-0.195,1.305-0.541
		l10.155-10.155l8.997-8.997l15.077-15.065c0.347-0.346,0.541-0.816,0.541-1.306v-23.013v-8.295v-10.485
		c0-0.49-0.195-0.959-0.541-1.305L246.006,128z"/>
</g>
</svg>
