<?xml version="1.0" encoding="iso-8859-1"?>
<!-- Generator: Adobe Illustrator 27.5.0, SVG Export Plug-In . SVG Version: 6.00 Build 0)  -->
<svg version="1.1" xmlns="http://www.w3.org/2000/svg" xmlns:xlink="http://www.w3.org/1999/xlink" x="0px" y="0px"
	 viewBox="0 0 1024 512" style="enable-background:new 0 0 1024 512;" xml:space="preserve">
<g id="Layer_1">
	<g id="Main_x5F_Purple_x5F_BG_x5F_layer">
	</g>
</g>
<g id="crop">
	<g>
		<defs>
			<rect id="SVGID_1_" width="1024" height="512"/>
		</defs>
		<clipPath id="SVGID_00000047763310418217445840000001033935293613104560_">
			<use xlink:href="#SVGID_1_"  style="overflow:visible;"/>
		</clipPath>
		
			<rect style="clip-path:url(#SVGID_00000047763310418217445840000001033935293613104560_);fill:#48086F;stroke:#000000;stroke-miterlimit:10;" width="1024" height="512"/>
		<g style="clip-path:url(#SVGID_00000047763310418217445840000001033935293613104560_);">
			<path style="fill:#FFFFFF;" d="M63,100.206V79.686h5.146v20.272c0,5.704,2.418,8.245,7.501,8.245
				c4.588,0,8.928-3.037,8.928-8.865V79.686h5.146v32.424h-5.146v-5.146c-1.488,3.038-5.084,5.703-10.292,5.703
				C67.835,112.667,63,109.134,63,100.206z"/>
			<path style="fill:#FFFFFF;" d="M100.137,79.686h5.146v5.146c1.488-3.038,5.083-5.704,10.416-5.704
				c6.695,0,11.407,3.658,11.407,13.082v19.9h-5.146V91.837c0-5.704-2.417-8.246-7.625-8.246c-4.773,0-9.051,3.038-9.051,8.865
				v19.653h-5.146V79.686z"/>
			<path style="fill:#FFFFFF;" d="M134.795,96.548v-0.495c0-9.92,6.199-16.926,15.127-16.926c5.394,0,8.742,2.604,10.602,5.766
				V64.187h5.146v47.923h-5.146v-5.58c-1.86,3.162-6.386,6.138-11.098,6.138C140.933,112.667,134.795,106.653,134.795,96.548z
				 M160.71,96.114v-0.496c0-8.308-3.968-12.213-10.292-12.213c-6.448,0-10.292,4.525-10.292,12.399V96.3
				c0,8.184,4.402,12.09,9.857,12.09C155.998,108.39,160.71,104.422,160.71,96.114z"/>
			<path style="fill:#FFFFFF;" d="M173.669,96.238v-0.496c0-9.795,6.261-16.615,15.189-16.615c7.501,0,14.569,4.526,14.569,16.119
				v1.674h-24.427c0.248,7.378,3.782,11.47,10.416,11.47c5.021,0,7.936-1.86,8.617-5.642h5.146c-1.116,6.51-6.51,9.919-13.825,9.919
				C180.179,112.667,173.669,106.22,173.669,96.238z M198.158,92.767c-0.496-6.695-3.968-9.361-9.299-9.361
				c-5.27,0-8.804,3.596-9.671,9.361H198.158z"/>
			<path style="fill:#FFFFFF;" d="M212.419,84.025h-4.65v-4.34h4.65v-5.27c0-6.572,3.162-10.416,9.547-10.416
				c1.674,0,2.542,0.124,3.534,0.496v4.34c-0.93-0.372-1.922-0.558-3.348-0.558c-3.286,0-4.588,2.293-4.588,5.579v5.828h7.936v4.34
				h-7.936v28.084h-5.146V84.025z"/>
			<path style="fill:#FFFFFF;" d="M231.019,69.518c0-1.859,1.55-3.409,3.41-3.409s3.41,1.55,3.41,3.409c0,1.86-1.55,3.41-3.41,3.41
				S231.019,71.378,231.019,69.518z M231.948,79.686h5.146v32.424h-5.146V79.686z"/>
			<path style="fill:#FFFFFF;" d="M247.634,79.686h5.146v5.146c1.488-3.038,5.083-5.704,10.416-5.704
				c6.695,0,11.407,3.658,11.407,13.082v19.9h-5.146V91.837c0-5.704-2.417-8.246-7.625-8.246c-4.773,0-9.051,3.038-9.051,8.865
				v19.653h-5.146V79.686z"/>
			<path style="fill:#FFFFFF;" d="M282.292,96.238v-0.496c0-9.795,6.261-16.615,15.189-16.615c7.501,0,14.569,4.526,14.569,16.119
				v1.674h-24.427c0.248,7.378,3.782,11.47,10.416,11.47c5.021,0,7.936-1.86,8.617-5.642h5.146c-1.116,6.51-6.51,9.919-13.825,9.919
				C288.801,112.667,282.292,106.22,282.292,96.238z M306.78,92.767c-0.496-6.695-3.968-9.361-9.299-9.361
				c-5.27,0-8.804,3.596-9.671,9.361H306.78z"/>
			<path style="fill:#FFFFFF;" d="M317.507,96.548v-0.495c0-9.92,6.199-16.926,15.127-16.926c5.394,0,8.742,2.604,10.602,5.766
				V64.187h5.146v47.923h-5.146v-5.58c-1.86,3.162-6.386,6.138-11.098,6.138C323.645,112.667,317.507,106.653,317.507,96.548z
				 M343.422,96.114v-0.496c0-8.308-3.968-12.213-10.292-12.213c-6.448,0-10.292,4.525-10.292,12.399V96.3
				c0,8.184,4.402,12.09,9.857,12.09C338.71,108.39,343.422,104.422,343.422,96.114z"/>
		</g>
		
			<g id="benefits_x5F_broker_x5F_core_00000078040485793909159430000016015236746978608554_" style="clip-path:url(#SVGID_00000047763310418217445840000001033935293613104560_);">
			<g>
				<polygon style="fill:#339781;" points="827.038,341.097 862.423,305.712 862.423,298.7 827.038,334.084 				"/>
				<polygon style="fill:#339781;" points="827.038,184.916 862.423,149.531 862.423,142.52 827.038,177.904 				"/>
				<path style="fill:#339781;" d="M827.038,165.394l33.686-33.686c-0.481-0.271-1.028-0.438-1.619-0.438h-4.955l-27.112,27.112
					V165.394z"/>
				<polygon style="fill:#339781;" points="827.038,360.619 862.423,325.235 862.423,318.223 827.038,353.607 				"/>
				<polygon style="fill:#339781;" points="827.038,204.439 862.423,169.054 862.423,162.042 827.038,197.427 				"/>
				<polygon style="fill:#339781;" points="827.038,263.006 862.423,227.622 862.423,220.609 827.038,255.994 				"/>
				<polygon style="fill:#339781;" points="827.038,321.574 862.423,286.189 862.423,279.177 827.038,314.562 				"/>
				<polygon style="fill:#339781;" points="827.038,380.142 862.423,344.757 862.423,337.745 827.038,373.13 				"/>
				<polygon style="fill:#339781;" points="827.038,282.529 862.423,247.144 862.423,240.132 827.038,275.517 				"/>
				<polygon style="fill:#339781;" points="827.038,223.961 862.423,188.577 862.423,181.564 827.038,216.949 				"/>
				<polygon style="fill:#339781;" points="827.038,302.052 862.423,266.667 862.423,259.655 827.038,295.039 				"/>
				<polygon style="fill:#339781;" points="827.038,399.664 862.423,364.28 862.423,357.267 827.038,392.652 				"/>
				<path style="fill:#339781;" d="M830.356,449.731h5.184l26.883-26.883v-7.012l-33.538,33.538
					C829.33,449.594,829.825,449.731,830.356,449.731z"/>
				<polygon style="fill:#339781;" points="827.038,438.709 862.423,403.325 862.423,396.312 827.038,431.697 				"/>
				<polygon style="fill:#339781;" points="855.062,449.731 862.423,442.37 862.423,435.358 848.05,449.731 				"/>
				<polygon style="fill:#339781;" points="827.038,243.484 862.423,208.099 862.423,201.087 827.038,236.471 				"/>
				<polygon style="fill:#339781;" points="827.038,419.187 862.423,383.802 862.423,376.79 827.038,412.175 				"/>
				<polygon style="fill:#339781;" points="834.628,131.269 827.038,138.859 827.038,145.871 841.64,131.269 				"/>
				<polygon style="fill:#3ADCC9;" points="827.038,275.517 862.423,240.132 862.423,227.622 827.038,263.006 				"/>
				<polygon style="fill:#3ADCC9;" points="827.038,295.039 862.423,259.655 862.423,247.144 827.038,282.529 				"/>
				<polygon style="fill:#3ADCC9;" points="827.038,255.994 862.423,220.609 862.423,208.099 827.038,243.484 				"/>
				<polygon style="fill:#3ADCC9;" points="827.038,314.562 862.423,279.177 862.423,266.667 827.038,302.052 				"/>
				<polygon style="fill:#3ADCC9;" points="827.038,334.084 862.423,298.7 862.423,286.189 827.038,321.574 				"/>
				<path style="fill:#3ADCC9;" d="M827.038,177.904l35.385-35.385v-7.933c0-1.241-0.69-2.31-1.699-2.879l-33.686,33.686V177.904z"
					/>
				<polygon style="fill:#3ADCC9;" points="827.038,145.871 827.038,158.382 854.151,131.269 841.64,131.269 				"/>
				<path style="fill:#3ADCC9;" d="M830.356,131.269c-1.832,0-3.317,1.485-3.317,3.317v4.272l7.59-7.59H830.356z"/>
				<polygon style="fill:#3ADCC9;" points="827.038,197.427 862.423,162.042 862.423,149.531 827.038,184.916 				"/>
				<polygon style="fill:#3ADCC9;" points="827.038,216.949 862.423,181.564 862.423,169.054 827.038,204.439 				"/>
				<polygon style="fill:#3ADCC9;" points="827.038,373.13 862.423,337.745 862.423,325.235 827.038,360.619 				"/>
				<polygon style="fill:#3ADCC9;" points="827.038,236.471 862.423,201.087 862.423,188.577 827.038,223.961 				"/>
				<polygon style="fill:#3ADCC9;" points="827.038,353.607 862.423,318.223 862.423,305.712 827.038,341.097 				"/>
				<polygon style="fill:#3ADCC9;" points="827.038,412.175 862.423,376.79 862.423,364.28 827.038,399.664 				"/>
				<polygon style="fill:#3ADCC9;" points="827.038,392.652 862.423,357.267 862.423,344.757 827.038,380.142 				"/>
				<polygon style="fill:#3ADCC9;" points="827.038,431.697 862.423,396.312 862.423,383.802 827.038,419.187 				"/>
				<path style="fill:#3ADCC9;" d="M859.106,449.731c1.832,0,3.317-1.485,3.317-3.317v-4.043l-7.361,7.361H859.106z"/>
				<polygon style="fill:#3ADCC9;" points="848.05,449.731 862.423,435.358 862.423,422.847 835.54,449.731 				"/>
				<path style="fill:#3ADCC9;" d="M827.038,446.413c0,1.301,0.756,2.416,1.847,2.959l33.538-33.538v-12.51l-35.385,35.385V446.413z
					"/>
			</g>
			<path style="fill:#FFFFFF;" d="M764.85,290.5l-24.812-24.812c-1.296-1.296-1.295-3.396,0-4.691l15.26-15.26
				c0.622-0.622,0.972-1.466,0.972-2.346v-32.507v-33.745c0-0.88-0.349-1.724-0.972-2.346l-8.14-8.14l-34.413-34.413
				c-0.622-0.622-1.466-0.972-2.346-0.972h-48.673h-87.909c-1.832,0-3.317,1.485-3.317,3.317v23.221v8.846v79.615v35.385v93.99
				c0,1.832,1.485,3.317,3.317,3.317h28.75c1.832,0,3.317-1.485,3.317-3.317v-90.673c0-1.832,1.485-3.317,3.317-3.317h60.132h35.249
				c0.88,0,1.724,0.349,2.346,0.972l5.729,5.729l33.794,33.794c0.622,0.622,0.972,1.466,0.972,2.346v45.751
				c0,0.88-0.349,1.723-0.971,2.345l-40.762,40.783c-0.622,0.622-1.466,0.972-2.346,0.972H573.817c-1.832,0-3.317,1.485-3.317,3.317
				v28.75c0,1.832,1.485,3.317,3.317,3.317h127.849h16.318c0.88,0,1.724-0.35,2.346-0.972l18.247-18.247l16.166-16.166
				l27.092-27.071c0.623-0.622,0.973-1.466,0.973-2.347v-41.352v-14.906v-18.839c0-0.88-0.349-1.724-0.972-2.346L764.85,290.5z
				 M705.668,245.298c-0.622,0.622-1.466,0.972-2.346,0.972h-32.75h-61.37c-1.832,0-3.317-1.485-3.317-3.317v-72.981
				c0-1.832,1.485-3.317,3.317-3.317h86.536c0.879,0,1.723,0.349,2.345,0.971l21.83,21.81c0.623,0.622,0.973,1.466,0.973,2.347
				v36.926c0,0.88-0.35,1.724-0.972,2.346l-7.255,7.255L705.668,245.298z"/>
			<path style="fill:#FFFFFF;" d="M1012.542,290.5l-24.812-24.812c-1.296-1.296-1.296-3.396,0-4.691l15.26-15.26
				c0.622-0.622,0.972-1.466,0.972-2.346v-32.507v-33.745c0-0.88-0.349-1.724-0.972-2.346l-8.14-8.14l-34.413-34.413
				c-0.622-0.622-1.466-0.972-2.346-0.972h-48.673h-8.293c-1.832,0-3.317,1.485-3.317,3.317v28.75c0,1.832,1.485,3.317,3.317,3.317
				h42.305c0.879,0,1.723,0.349,2.345,0.971l21.83,21.81c0.623,0.622,0.973,1.466,0.973,2.347v36.926
				c0,0.88-0.349,1.724-0.972,2.346l-7.255,7.255l-6.99,6.99c-0.622,0.622-1.466,0.972-2.346,0.972h-32.75h-17.139
				c-1.832,0-3.317,1.485-3.317,3.317v28.75c0,1.832,1.485,3.317,3.317,3.317h15.901h35.249c0.88,0,1.724,0.349,2.346,0.972
				l5.729,5.729l33.794,33.794c0.622,0.622,0.972,1.466,0.972,2.346v45.751c0,0.88-0.349,1.723-0.971,2.345l-40.762,40.783
				c-0.622,0.622-1.466,0.972-2.346,0.972h-49.911c-1.832,0-3.317,1.485-3.317,3.317v28.75c0,1.832,1.485,3.317,3.317,3.317h48.234
				h16.318c0.88,0,1.724-0.35,2.346-0.972l18.247-18.247l16.166-16.166l27.092-27.071c0.623-0.622,0.973-1.466,0.973-2.347v-41.352
				v-14.906v-18.839c0-0.88-0.349-1.724-0.972-2.346L1012.542,290.5z"/>
		</g>
		<g style="clip-path:url(#SVGID_00000047763310418217445840000001033935293613104560_);">
			<g>
				<defs>
					<rect id="SVGID_00000161592657107782775240000003210975471654596021_" x="62" y="405" width="155" height="50"/>
				</defs>
				<clipPath id="SVGID_00000031926612304583564370000005666056897647129479_">
					<use xlink:href="#SVGID_00000161592657107782775240000003210975471654596021_"  style="overflow:visible;"/>
				</clipPath>
				<g style="clip-path:url(#SVGID_00000031926612304583564370000005666056897647129479_);">
					<defs>
						<rect id="SVGID_00000169560172133932054130000013156239675811847304_" x="62" y="405" width="155" height="50"/>
					</defs>
					<clipPath id="SVGID_00000182492853758155373160000016540754533796134309_">
						<use xlink:href="#SVGID_00000169560172133932054130000013156239675811847304_"  style="overflow:visible;"/>
					</clipPath>
					<path style="clip-path:url(#SVGID_00000182492853758155373160000016540754533796134309_);fill:#FFFFFF;" d="M217,414.83
						l-15.2,39.27H189l-6.4-21.93l-6.45,21.93h-12.79l-11.24-29.29h-7V438c0,6.19,2.5,7.21,5.92,7.21
						c0.906-0.018,1.808-0.132,2.69-0.34l3.5,9.12c-2.726,0.668-5.523,1.004-8.33,1c-11.72,0-16.72-4.79-16.72-16v-14.18h-5.34
						l-11.33,29.29h-12.8l-6.39-21.93l-6.47,21.93H77.06L62,414.83h14.51l7.57,23.73l7.22-23.73h10l7.29,23.73l7.53-23.73h16.06
						v-7.06l12.94-2.77v9.83h17.69l7.56,23.73l7.22-23.73h10l7.29,23.73l7.5-23.73H217z"/>
				</g>
			</g>
		</g>
	</g>
</g>
</svg>
