<?xml version="1.0" encoding="iso-8859-1"?>
<!-- Generator: Adobe Illustrator 27.5.0, SVG Export Plug-In . SVG Version: 6.00 Build 0)  -->
<svg version="1.1" id="Layer_1" xmlns="http://www.w3.org/2000/svg" xmlns:xlink="http://www.w3.org/1999/xlink" x="0px" y="0px"
	 viewBox="0 0 1173.74 256" style="enable-background:new 0 0 1173.74 256;" xml:space="preserve">
<g>
	<path style="fill:#FFFFFF;" d="M328,157.055V96.811h15.107v59.516c0,16.745,7.098,24.207,22.022,24.207
		c13.469,0,26.209-8.918,26.209-26.026V96.811h15.106V192h-15.106v-15.106c-4.368,8.918-14.924,16.744-30.213,16.744
		C342.197,193.638,328,183.264,328,157.055z"/>
	<path style="fill:#FFFFFF;" d="M437.017,96.811h15.106v15.106c4.368-8.918,14.925-16.745,30.577-16.745
		c19.657,0,33.489,10.739,33.489,38.404V192h-15.106v-59.517c0-16.744-7.098-24.206-22.387-24.206
		c-14.015,0-26.573,8.918-26.573,26.026V192h-15.106V96.811z"/>
	<path style="fill:#FFFFFF;" d="M538.753,146.316v-1.456c0-29.121,18.201-49.688,44.41-49.688c15.834,0,25.663,7.645,31.123,16.927
		v-60.79h15.107V192h-15.107v-16.381c-5.46,9.282-18.747,18.019-32.579,18.019C556.772,193.638,538.753,175.983,538.753,146.316z
		 M614.832,145.042v-1.456c0-24.389-11.648-35.855-30.213-35.855c-18.929,0-30.213,13.287-30.213,36.401v1.456
		c0,24.025,12.923,35.492,28.939,35.492C601,181.08,614.832,169.432,614.832,145.042z"/>
	<path style="fill:#FFFFFF;" d="M652.868,145.406v-1.456c0-28.757,18.383-48.778,44.592-48.778
		c22.022,0,42.771,13.287,42.771,47.322v4.914H668.52c0.729,21.659,11.103,33.672,30.577,33.672
		c14.743,0,23.297-5.461,25.299-16.563h15.106c-3.275,19.111-19.11,29.121-40.587,29.121
		C671.978,193.638,652.868,174.709,652.868,145.406z M724.76,135.214c-1.456-19.657-11.648-27.483-27.301-27.483
		c-15.471,0-25.846,10.557-28.394,27.483H724.76z"/>
	<path style="fill:#FFFFFF;" d="M766.616,109.551h-13.65v-12.74h13.65V81.34c0-19.293,9.282-30.577,28.029-30.577
		c4.914,0,7.462,0.364,10.374,1.456v12.74c-2.729-1.092-5.642-1.638-9.828-1.638c-9.646,0-13.469,6.734-13.469,16.381v17.108h23.297
		v12.74h-23.297V192h-15.106V109.551z"/>
	<path style="fill:#FFFFFF;" d="M821.215,66.961c0-5.46,4.55-10.01,10.01-10.01c5.461,0,10.011,4.55,10.011,10.01
		c0,5.461-4.55,10.011-10.011,10.011C825.765,76.972,821.215,72.422,821.215,66.961z M823.945,96.811h15.106V192h-15.106V96.811z"/>
	<path style="fill:#FFFFFF;" d="M869.989,96.811h15.107v15.106c4.368-8.918,14.924-16.745,30.577-16.745
		c19.656,0,33.489,10.739,33.489,38.404V192h-15.107v-59.517c0-16.744-7.098-24.206-22.387-24.206
		c-14.014,0-26.572,8.918-26.572,26.026V192h-15.107V96.811z"/>
	<path style="fill:#FFFFFF;" d="M971.725,145.406v-1.456c0-28.757,18.383-48.778,44.592-48.778
		c22.022,0,42.771,13.287,42.771,47.322v4.914h-71.711c0.729,21.659,11.103,33.672,30.577,33.672
		c14.743,0,23.297-5.461,25.299-16.563h15.106c-3.275,19.111-19.11,29.121-40.587,29.121
		C990.835,193.638,971.725,174.709,971.725,145.406z M1043.618,135.214c-1.456-19.657-11.648-27.483-27.301-27.483
		c-15.471,0-25.846,10.557-28.394,27.483H1043.618z"/>
	<path style="fill:#FFFFFF;" d="M1075.1,146.316v-1.456c0-29.121,18.2-49.688,44.409-49.688c15.835,0,25.663,7.645,31.124,16.927
		v-60.79h15.106V192h-15.106v-16.381c-5.461,9.282-18.747,18.019-32.58,18.019C1093.119,193.638,1075.1,175.983,1075.1,146.316z
		 M1151.179,145.042v-1.456c0-24.389-11.648-35.855-30.214-35.855c-18.929,0-30.213,13.287-30.213,36.401v1.456
		c0,24.025,12.923,35.492,28.939,35.492C1137.346,181.08,1151.179,169.432,1151.179,145.042z"/>
</g>
<g>
	<g>
		<g>
			<path style="fill:#FFFFFF;" d="M216,41.5v53c0,0.828,0.672,1.5,1.5,1.5h13c0.828,0,1.5-0.672,1.5-1.5V40V25.5
				c0-0.828-0.672-1.5-1.5-1.5H216h-54.5c-0.828,0-1.5,0.672-1.5,1.5v13c0,0.828,0.672,1.5,1.5,1.5h53
				C215.328,40,216,40.672,216,41.5z"/>
			<path style="fill:#FFFFFF;" d="M161.5,96h13c0.828,0,1.5-0.672,1.5-1.5v-13c0-0.828-0.672-1.5-1.5-1.5h-13
				c-0.828,0-1.5,0.672-1.5,1.5v13C160,95.328,160.672,96,161.5,96z"/>
			<path style="fill:#FFFFFF;" d="M102.829,106.97L96,113.799l0-9.657l0-27.154C96,56.56,112.56,40,132.988,40h1.512
				c0.828,0,1.5-0.672,1.5-1.5V25.488c0-0.822-0.666-1.488-1.488-1.488h-1.524C103.723,24,80,47.723,80,76.988v27.154v9.657
				l-6.828-6.828L57.948,91.747c-0.586-0.586-1.536-0.586-2.121,0l-9.192,9.192c-0.586,0.586-0.586,1.536,0,2.121l40.305,40.305
				c0.586,0.586,1.536,0.586,2.121,0l40.305-40.305c0.586-0.586,0.586-1.536,0-2.121l-9.192-9.192c-0.586-0.586-1.536-0.586-2.121,0
				L102.829,106.97z"/>
		</g>
		<g>
			<path style="fill:#FFFFFF;" d="M40,214.5v-53c0-0.828-0.672-1.5-1.5-1.5h-13c-0.828,0-1.5,0.672-1.5,1.5V216v14.5
				c0,0.828,0.672,1.5,1.5,1.5H40h54.5c0.828,0,1.5-0.672,1.5-1.5v-13c0-0.828-0.672-1.5-1.5-1.5h-53
				C40.672,216,40,215.328,40,214.5z"/>
			<path style="fill:#FFFFFF;" d="M94.5,160h-13c-0.828,0-1.5,0.672-1.5,1.5v13c0,0.828,0.672,1.5,1.5,1.5h13
				c0.828,0,1.5-0.672,1.5-1.5v-13C96,160.672,95.328,160,94.5,160z"/>
			<path style="fill:#FFFFFF;" d="M153.171,149.03l6.828-6.828l0,9.657l0,27.154C160,199.44,143.44,216,123.012,216H121.5
				c-0.828,0-1.5,0.672-1.5,1.5v13.012c0,0.822,0.666,1.488,1.488,1.488h1.524C152.277,232,176,208.277,176,179.012v-27.154v-9.657
				l6.828,6.828l15.224,15.224c0.586,0.586,1.536,0.586,2.121,0l9.192-9.192c0.586-0.586,0.586-1.536,0-2.121l-40.305-40.305
				c-0.586-0.586-1.536-0.586-2.121,0l-40.305,40.305c-0.586,0.586-0.586,1.536,0,2.121l9.192,9.192
				c0.586,0.586,1.536,0.586,2.121,0L153.171,149.03z"/>
		</g>
	</g>
</g>
</svg>
