<?xml version="1.0" encoding="iso-8859-1"?>
<!-- Generator: Adobe Illustrator 27.5.0, SVG Export Plug-In . SVG Version: 6.00 Build 0)  -->
<svg version="1.1" id="Layer_1" xmlns="http://www.w3.org/2000/svg" xmlns:xlink="http://www.w3.org/1999/xlink" x="0px" y="0px"
	 viewBox="0 0 1165.74 256" style="enable-background:new 0 0 1165.74 256;" xml:space="preserve">
<g>
	<path d="M320,157.055V96.811h15.107v59.516c0,16.745,7.098,24.207,22.022,24.207c13.469,0,26.209-8.918,26.209-26.026V96.811
		h15.106V192h-15.106v-15.106c-4.368,8.918-14.924,16.744-30.213,16.744C334.197,193.638,320,183.264,320,157.055z"/>
	<path d="M429.017,96.811h15.106v15.106c4.368-8.918,14.925-16.745,30.577-16.745c19.657,0,33.489,10.739,33.489,38.404V192h-15.106
		v-59.517c0-16.744-7.098-24.206-22.387-24.206c-14.015,0-26.573,8.918-26.573,26.026V192h-15.106V96.811z"/>
	<path d="M530.753,146.316v-1.456c0-29.121,18.201-49.688,44.41-49.688c15.834,0,25.663,7.645,31.123,16.927v-60.79h15.107V192
		h-15.107v-16.381c-5.46,9.282-18.747,18.019-32.579,18.019C548.772,193.638,530.753,175.983,530.753,146.316z M606.832,145.042
		v-1.456c0-24.389-11.648-35.855-30.213-35.855c-18.929,0-30.213,13.287-30.213,36.401v1.456c0,24.025,12.923,35.492,28.939,35.492
		C593,181.08,606.832,169.432,606.832,145.042z"/>
	<path d="M644.868,145.406v-1.456c0-28.757,18.383-48.778,44.592-48.778c22.022,0,42.771,13.287,42.771,47.322v4.914H660.52
		c0.729,21.659,11.103,33.672,30.577,33.672c14.743,0,23.297-5.461,25.299-16.563h15.106c-3.275,19.111-19.11,29.121-40.587,29.121
		C663.978,193.638,644.868,174.709,644.868,145.406z M716.76,135.214c-1.456-19.657-11.648-27.483-27.301-27.483
		c-15.471,0-25.846,10.557-28.394,27.483H716.76z"/>
	<path d="M758.616,109.551h-13.65v-12.74h13.65V81.34c0-19.293,9.282-30.577,28.029-30.577c4.914,0,7.462,0.364,10.374,1.456v12.74
		c-2.729-1.092-5.642-1.638-9.828-1.638c-9.646,0-13.469,6.734-13.469,16.381v17.108h23.297v12.74h-23.297V192h-15.106V109.551z"/>
	<path d="M813.215,66.961c0-5.46,4.55-10.01,10.01-10.01c5.461,0,10.011,4.55,10.011,10.01c0,5.461-4.55,10.011-10.011,10.011
		C817.765,76.972,813.215,72.422,813.215,66.961z M815.945,96.811h15.106V192h-15.106V96.811z"/>
	<path d="M861.989,96.811h15.107v15.106c4.368-8.918,14.924-16.745,30.577-16.745c19.656,0,33.489,10.739,33.489,38.404V192h-15.107
		v-59.517c0-16.744-7.098-24.206-22.387-24.206c-14.014,0-26.572,8.918-26.572,26.026V192h-15.107V96.811z"/>
	<path d="M963.725,145.406v-1.456c0-28.757,18.383-48.778,44.592-48.778c22.022,0,42.771,13.287,42.771,47.322v4.914h-71.711
		c0.729,21.659,11.103,33.672,30.577,33.672c14.743,0,23.297-5.461,25.299-16.563h15.106c-3.275,19.111-19.11,29.121-40.587,29.121
		C982.835,193.638,963.725,174.709,963.725,145.406z M1035.618,135.214c-1.456-19.657-11.648-27.483-27.301-27.483
		c-15.471,0-25.846,10.557-28.394,27.483H1035.618z"/>
	<path d="M1067.1,146.316v-1.456c0-29.121,18.2-49.688,44.409-49.688c15.835,0,25.663,7.645,31.124,16.927v-60.79h15.106V192
		h-15.106v-16.381c-5.461,9.282-18.747,18.019-32.58,18.019C1085.119,193.638,1067.1,175.983,1067.1,146.316z M1143.179,145.042
		v-1.456c0-24.389-11.648-35.855-30.214-35.855c-18.929,0-30.213,13.287-30.213,36.401v1.456c0,24.025,12.923,35.492,28.939,35.492
		C1129.346,181.08,1143.179,169.432,1143.179,145.042z"/>
</g>
<g>
	<path style="fill:#3D79BD;" d="M236.308,21.538v65.231c0,1.02,0.827,1.846,1.846,1.846h16c1.02,0,1.846-0.827,1.846-1.846V19.692
		V1.846C256,0.827,255.173,0,254.154,0l-17.846,0l-67.077,0c-1.02,0-1.846,0.827-1.846,1.846v16c0,1.02,0.827,1.846,1.846,1.846
		h65.231C235.481,19.692,236.308,20.519,236.308,21.538z"/>
	<path style="fill:#3D79BD;" d="M168.885,88.615h16.692c0.828,0,1.5-0.672,1.5-1.5V70.423c0-0.828-0.672-1.5-1.5-1.5h-16.692
		c-0.828,0-1.5,0.672-1.5,1.5v16.692C167.385,87.944,168.056,88.615,168.885,88.615z"/>
	<path style="fill:#3D79BD;" d="M97.02,102.117l-8.404,8.404l0-11.885l0-33.42c0-25.142,20.382-45.524,45.524-45.524H136
		c1.02,0,1.846-0.827,1.846-1.846V1.831c0-1.011-0.82-1.831-1.831-1.831l-1.876,0C98.121,0,68.923,29.198,68.923,65.216v33.42
		v11.885l-8.404-8.404L41.782,83.381c-0.721-0.721-1.89-0.721-2.611,0L27.858,94.695c-0.721,0.721-0.721,1.89,0,2.611l49.606,49.606
		c0.721,0.721,1.89,0.721,2.611,0l49.606-49.606c0.721-0.721,0.721-1.89,0-2.611l-11.314-11.314c-0.721-0.721-1.89-0.721-2.611,0
		L97.02,102.117z"/>
	<path style="fill:#79348B;" d="M19.692,234.462v-65.231c0-1.02-0.827-1.846-1.846-1.846h-16c-1.02,0-1.846,0.827-1.846,1.846
		v67.077v17.846C0,255.173,0.827,256,1.846,256h17.846h67.077c1.02,0,1.846-0.827,1.846-1.846v-16c0-1.02-0.827-1.846-1.846-1.846
		H21.538C20.519,236.308,19.692,235.481,19.692,234.462z"/>
	<path style="fill:#79348B;" d="M87.115,167.385H70.423c-0.828,0-1.5,0.672-1.5,1.5v16.692c0,0.828,0.672,1.5,1.5,1.5h16.692
		c0.828,0,1.5-0.672,1.5-1.5v-16.692C88.615,168.056,87.944,167.385,87.115,167.385z"/>
	<path style="fill:#79348B;" d="M158.98,153.883l8.404-8.404l0,11.885l0,33.42c0,25.142-20.382,45.524-45.524,45.524H120
		c-1.02,0-1.846,0.827-1.846,1.846v16.015c0,1.011,0.82,1.831,1.831,1.831h1.876c36.018,0,65.216-29.198,65.216-65.216v-33.42
		v-11.885l8.404,8.404l18.737,18.737c0.721,0.721,1.89,0.721,2.611,0l11.314-11.314c0.721-0.721,0.721-1.89,0-2.611l-49.606-49.606
		c-0.721-0.721-1.89-0.721-2.611,0l-49.606,49.606c-0.721,0.721-0.721,1.89,0,2.611l11.314,11.314c0.721,0.721,1.89,0.721,2.611,0
		L158.98,153.883z"/>
</g>
</svg>
