<?xml version="1.0" encoding="iso-8859-1"?>
<!-- Generator: Adobe Illustrator 27.5.0, SVG Export Plug-In . SVG Version: 6.00 Build 0)  -->
<svg version="1.1" id="Layer_1" xmlns="http://www.w3.org/2000/svg" xmlns:xlink="http://www.w3.org/1999/xlink" x="0px" y="0px"
	 viewBox="0 0 256 256" style="enable-background:new 0 0 256 256;" xml:space="preserve">
<g id="benefits_x5F_broker_x5F_core_00000078040485793909159430000016015236746978608554_">
	<g>
		<polygon style="fill:#339781;" points="140,150.878 156,134.878 156,131.708 140,147.708 		"/>
		<polygon style="fill:#339781;" points="140,80.258 156,64.258 156,61.087 140,77.087 		"/>
		<path style="fill:#339781;" d="M140,71.43l15.232-15.232C155.015,56.076,154.767,56,154.5,56h-2.241L140,68.259V71.43z"/>
		<polygon style="fill:#339781;" points="140,159.706 156,143.706 156,140.535 140,156.535 		"/>
		<polygon style="fill:#339781;" points="140,89.085 156,73.085 156,69.915 140,85.915 		"/>
		<polygon style="fill:#339781;" points="140,115.568 156,99.568 156,96.397 140,112.397 		"/>
		<polygon style="fill:#339781;" points="140,142.051 156,126.051 156,122.88 140,138.88 		"/>
		<polygon style="fill:#339781;" points="140,168.534 156,152.534 156,149.363 140,165.363 		"/>
		<polygon style="fill:#339781;" points="140,124.396 156,108.396 156,105.225 140,121.225 		"/>
		<polygon style="fill:#339781;" points="140,97.913 156,81.913 156,78.742 140,94.742 		"/>
		<polygon style="fill:#339781;" points="140,133.223 156,117.223 156,114.053 140,130.053 		"/>
		<polygon style="fill:#339781;" points="140,177.361 156,161.361 156,158.19 140,174.19 		"/>
		<path style="fill:#339781;" d="M141.5,200h2.344L156,187.844v-3.171l-15.165,15.165C141.036,199.938,141.26,200,141.5,200z"/>
		<polygon style="fill:#339781;" points="140,195.016 156,179.016 156,175.846 140,191.846 		"/>
		<polygon style="fill:#339781;" points="152.672,200 156,196.672 156,193.501 149.501,200 		"/>
		<polygon style="fill:#339781;" points="140,106.741 156,90.741 156,87.57 140,103.57 		"/>
		<polygon style="fill:#339781;" points="140,186.189 156,170.189 156,167.018 140,183.018 		"/>
		<polygon style="fill:#339781;" points="143.432,56 140,59.432 140,62.603 146.603,56 		"/>
		<polygon style="fill:#3ADCC9;" points="140,121.225 156,105.225 156,99.568 140,115.568 		"/>
		<polygon style="fill:#3ADCC9;" points="140,130.053 156,114.053 156,108.396 140,124.396 		"/>
		<polygon style="fill:#3ADCC9;" points="140,112.397 156,96.397 156,90.741 140,106.741 		"/>
		<polygon style="fill:#3ADCC9;" points="140,138.88 156,122.88 156,117.223 140,133.223 		"/>
		<polygon style="fill:#3ADCC9;" points="140,147.708 156,131.708 156,126.051 140,142.051 		"/>
		<path style="fill:#3ADCC9;" d="M140,77.087l16-16V57.5c0-0.561-0.312-1.044-0.768-1.302L140,71.43V77.087z"/>
		<polygon style="fill:#3ADCC9;" points="140,62.603 140,68.259 152.259,56 146.603,56 		"/>
		<path style="fill:#3ADCC9;" d="M141.5,56c-0.828,0-1.5,0.672-1.5,1.5v1.932L143.432,56H141.5z"/>
		<polygon style="fill:#3ADCC9;" points="140,85.915 156,69.915 156,64.258 140,80.258 		"/>
		<polygon style="fill:#3ADCC9;" points="140,94.742 156,78.742 156,73.085 140,89.085 		"/>
		<polygon style="fill:#3ADCC9;" points="140,165.363 156,149.363 156,143.706 140,159.706 		"/>
		<polygon style="fill:#3ADCC9;" points="140,103.57 156,87.57 156,81.913 140,97.913 		"/>
		<polygon style="fill:#3ADCC9;" points="140,156.535 156,140.535 156,134.878 140,150.878 		"/>
		<polygon style="fill:#3ADCC9;" points="140,183.018 156,167.018 156,161.361 140,177.361 		"/>
		<polygon style="fill:#3ADCC9;" points="140,174.19 156,158.19 156,152.534 140,168.534 		"/>
		<polygon style="fill:#3ADCC9;" points="140,191.846 156,175.846 156,170.189 140,186.189 		"/>
		<path style="fill:#3ADCC9;" d="M154.5,200c0.828,0,1.5-0.672,1.5-1.5v-1.828L152.672,200H154.5z"/>
		<polygon style="fill:#3ADCC9;" points="149.501,200 156,193.501 156,187.844 143.844,200 		"/>
		<path style="fill:#3ADCC9;" d="M140,198.5c0,0.588,0.342,1.092,0.835,1.338L156,184.673v-5.657l-16,16V198.5z"/>
	</g>
	<path style="fill:#FFFFFF;" d="M111.88,128l-11.219-11.219c-0.586-0.586-0.586-1.536,0-2.121l6.9-6.9
		c0.281-0.281,0.439-0.663,0.439-1.061V92V76.741c0-0.398-0.158-0.779-0.439-1.061L103.88,72L88.319,56.439
		C88.038,56.158,87.657,56,87.259,56H65.25H25.5c-0.828,0-1.5,0.672-1.5,1.5V68v4v36v16v42.5c0,0.828,0.672,1.5,1.5,1.5h13
		c0.828,0,1.5-0.672,1.5-1.5v-41c0-0.828,0.672-1.5,1.5-1.5h27.19h15.939c0.398,0,0.779,0.158,1.061,0.439l2.591,2.591
		l15.281,15.281c0.281,0.281,0.439,0.663,0.439,1.061v20.688c0,0.398-0.158,0.779-0.439,1.06L85.129,183.56
		c-0.281,0.281-0.663,0.44-1.061,0.44H25.5c-0.828,0-1.5,0.672-1.5,1.5v13c0,0.828,0.672,1.5,1.5,1.5h57.81h7.379
		c0.398,0,0.779-0.158,1.061-0.439L100,191.31l7.31-7.31l12.25-12.241c0.282-0.281,0.44-0.663,0.44-1.061V152v-6.74v-8.519
		c0-0.398-0.158-0.779-0.439-1.061L111.88,128z M85.119,107.561c-0.281,0.281-0.663,0.439-1.061,0.439H69.25H41.5
		c-0.828,0-1.5-0.672-1.5-1.5v-33c0-0.828,0.672-1.5,1.5-1.5h39.129c0.398,0,0.779,0.158,1.06,0.439l9.871,9.862
		c0.282,0.281,0.44,0.663,0.44,1.061v16.697c0,0.398-0.158,0.779-0.439,1.061L88.28,104.4L85.119,107.561z"/>
	<path style="fill:#FFFFFF;" d="M223.88,128l-11.219-11.219c-0.586-0.586-0.586-1.536,0-2.121l6.9-6.9
		c0.281-0.281,0.439-0.663,0.439-1.061V92V76.741c0-0.398-0.158-0.779-0.439-1.061L215.88,72l-15.561-15.561
		c-0.281-0.281-0.663-0.439-1.061-0.439H177.25h-3.75c-0.828,0-1.5,0.672-1.5,1.5v13c0,0.828,0.672,1.5,1.5,1.5h19.129
		c0.398,0,0.779,0.158,1.06,0.439l9.871,9.862c0.282,0.281,0.44,0.663,0.44,1.061v16.697c0,0.398-0.158,0.779-0.439,1.061
		l-3.281,3.281l-3.161,3.161c-0.281,0.281-0.663,0.439-1.061,0.439H181.25h-7.75c-0.828,0-1.5,0.672-1.5,1.5v13
		c0,0.828,0.672,1.5,1.5,1.5h7.19h15.939c0.398,0,0.779,0.158,1.061,0.439l2.591,2.591l15.281,15.281
		c0.281,0.281,0.439,0.663,0.439,1.061v20.688c0,0.398-0.158,0.779-0.439,1.06l-18.432,18.441c-0.281,0.281-0.663,0.44-1.061,0.44
		H173.5c-0.828,0-1.5,0.672-1.5,1.5v13c0,0.828,0.672,1.5,1.5,1.5h21.81h7.379c0.398,0,0.779-0.158,1.061-0.439L212,191.31
		l7.31-7.31l12.25-12.241c0.282-0.281,0.44-0.663,0.44-1.061V152v-6.74v-8.519c0-0.398-0.158-0.779-0.439-1.061L223.88,128z"/>
</g>
</svg>
