<?xml version="1.0" encoding="iso-8859-1"?>
<!-- Generator: Adobe Illustrator 27.5.0, SVG Export Plug-In . SVG Version: 6.00 Build 0)  -->
<svg version="1.1" id="Layer_1" xmlns="http://www.w3.org/2000/svg" xmlns:xlink="http://www.w3.org/1999/xlink" x="0px" y="0px"
	 viewBox="0 0 256 256" style="enable-background:new 0 0 256 256;" xml:space="preserve">
<pattern  x="-400" width="256" height="256" patternUnits="userSpaceOnUse" id="WTW_x5F_Gray_x5F_Matter_x5F_Diagonal_x5F_1" viewBox="0 -256 256 256" style="overflow:visible;">
	<g>
		<rect x="0" y="-256" style="fill:none;" width="256" height="256"/>
		<rect x="0" y="-256" style="fill:#999999;" width="256" height="256"/>
		<polygon style="fill:#BFBFBF;" points="152.897,0 256,-103.103 256,-108.76 147.24,0 		"/>
		<polygon style="fill:#BFBFBF;" points="29.311,0 256,-226.689 256,-232.346 23.654,0 		"/>
		<polygon style="fill:#BFBFBF;" points="11.656,0 256,-244.344 256,-250.001 5.999,0 		"/>
		<polygon style="fill:#BFBFBF;" points="161.725,0 256,-94.275 256,-99.932 156.068,0 		"/>
		<polygon style="fill:#BFBFBF;" points="20.484,0 256,-235.516 256,-241.173 14.827,0 		"/>
		<polygon style="fill:#BFBFBF;" points="170.553,0 256,-85.448 256,-91.104 164.896,0 		"/>
		<polygon style="fill:#BFBFBF;" points="64.621,0 256,-191.379 256,-197.035 58.965,0 		"/>
		<polygon style="fill:#BFBFBF;" points="82.277,0 256,-173.723 256,-179.38 76.62,0 		"/>
		<polygon style="fill:#BFBFBF;" points="99.932,0 256,-156.068 256,-161.725 94.275,0 		"/>
		<polygon style="fill:#BFBFBF;" points="108.759,0 256,-147.241 256,-152.898 103.103,0 		"/>
		<polygon style="fill:#BFBFBF;" points="91.104,0 256,-164.896 256,-170.553 85.447,0 		"/>
		<polygon style="fill:#BFBFBF;" points="73.449,0 256,-182.551 256,-188.208 67.792,0 		"/>
		<polygon style="fill:#BFBFBF;" points="55.794,0 256,-200.206 256,-205.863 50.137,0 		"/>
		<polygon style="fill:#BFBFBF;" points="144.07,0 256,-111.93 256,-117.587 138.413,0 		"/>
		<polygon style="fill:#BFBFBF;" points="135.242,0 256,-120.758 256,-126.415 129.585,0 		"/>
		<polygon style="fill:#BFBFBF;" points="38.139,0 256,-217.861 256,-223.518 32.482,0 		"/>
		<polygon style="fill:#BFBFBF;" points="46.966,0 256,-209.034 256,-214.691 41.309,0 		"/>
		<polygon style="fill:#BFBFBF;" points="117.587,0 256,-138.413 256,-144.07 111.93,0 		"/>
		<polygon style="fill:#BFBFBF;" points="126.415,0 256,-129.585 256,-135.242 120.758,0 		"/>
		<polygon style="fill:#BFBFBF;" points="197.035,0 256,-58.965 256,-64.622 191.378,0 		"/>
		<polygon style="fill:#BFBFBF;" points="156.068,-256 0,-99.932 0,-94.275 161.725,-256 		"/>
		<polygon style="fill:#BFBFBF;" points="41.309,-256 0,-214.691 0,-209.034 46.966,-256 		"/>
		<polygon style="fill:#BFBFBF;" points="164.896,-256 0,-91.104 0,-85.448 170.553,-256 		"/>
		<polygon style="fill:#BFBFBF;" points="147.24,-256 0,-108.76 0,-103.103 152.897,-256 		"/>
		<polygon style="fill:#BFBFBF;" points="32.482,-256 0,-223.518 0,-217.861 38.139,-256 		"/>
		<polygon style="fill:#BFBFBF;" points="173.723,-256 0,-82.277 0,-76.62 179.38,-256 		"/>
		<polygon style="fill:#BFBFBF;" points="50.137,-256 0,-205.863 0,-200.206 55.794,-256 		"/>
		<polygon style="fill:#BFBFBF;" points="179.38,0 256,-76.62 256,-82.277 173.723,0 		"/>
		<polygon style="fill:#BFBFBF;" points="182.551,-256 0,-73.449 0,-67.792 188.208,-256 		"/>
		<polygon style="fill:#BFBFBF;" points="111.93,-256 0,-144.07 0,-138.413 117.587,-256 		"/>
		<polygon style="fill:#BFBFBF;" points="103.103,-256 0,-152.897 0,-147.241 108.759,-256 		"/>
		<polygon style="fill:#BFBFBF;" points="94.275,-256 0,-161.725 0,-156.068 99.932,-256 		"/>
		<polygon style="fill:#BFBFBF;" points="67.792,-256 0,-188.208 0,-182.551 73.449,-256 		"/>
		<polygon style="fill:#BFBFBF;" points="76.62,-256 0,-179.38 0,-173.723 82.277,-256 		"/>
		<polygon style="fill:#BFBFBF;" points="120.758,-256 0,-135.242 0,-129.585 126.415,-256 		"/>
		<polygon style="fill:#BFBFBF;" points="129.585,-256 0,-126.415 0,-120.758 135.242,-256 		"/>
		<polygon style="fill:#BFBFBF;" points="58.965,-256 0,-197.035 0,-191.379 64.621,-256 		"/>
		<polygon style="fill:#BFBFBF;" points="200.206,-256 0,-55.794 0,-50.137 205.863,-256 		"/>
		<polygon style="fill:#BFBFBF;" points="138.413,-256 0,-117.587 0,-111.93 144.07,-256 		"/>
		<polygon style="fill:#BFBFBF;" points="191.379,-256 0,-64.622 0,-58.965 197.035,-256 		"/>
		<polygon style="fill:#BFBFBF;" points="223.518,0 256,-32.482 256,-38.139 217.861,0 		"/>
		<polygon style="fill:#BFBFBF;" points="241.173,0 256,-14.827 256,-20.484 235.516,0 		"/>
		<polygon style="fill:#BFBFBF;" points="232.346,0 256,-23.654 256,-29.311 226.689,0 		"/>
		<polygon style="fill:#BFBFBF;" points="0,-256 0,-253.172 2.828,-256 		"/>
		<polygon style="fill:#BFBFBF;" points="188.208,0 256,-67.792 256,-73.449 182.551,0 		"/>
		<polygon style="fill:#BFBFBF;" points="85.447,-256 0,-170.553 0,-164.896 91.104,-256 		"/>
		<polygon style="fill:#BFBFBF;" points="250.001,0 256,-5.999 256,-11.656 244.344,0 		"/>
		<polygon style="fill:#BFBFBF;" points="214.69,0 256,-41.31 256,-46.966 209.034,0 		"/>
		<polygon style="fill:#BFBFBF;" points="23.654,-256 0,-232.346 0,-226.689 29.311,-256 		"/>
		<polygon style="fill:#BFBFBF;" points="205.863,0 256,-50.137 256,-55.794 200.206,0 		"/>
		<polygon style="fill:#BFBFBF;" points="217.861,-256 0,-38.139 0,-32.482 223.518,-256 		"/>
		<polygon style="fill:#BFBFBF;" points="14.827,-256 0,-241.173 0,-235.516 20.484,-256 		"/>
		<polygon style="fill:#BFBFBF;" points="209.034,-256 0,-46.966 0,-41.31 214.691,-256 		"/>
		<polygon style="fill:#BFBFBF;" points="226.689,-256 0,-29.311 0,-23.654 232.346,-256 		"/>
		<polygon style="fill:#BFBFBF;" points="256,0 256,-2.828 253.172,0 		"/>
		<polygon style="fill:#BFBFBF;" points="256,-256 253.172,-256 0,-2.828 0,0 2.828,0 256,-253.172 		"/>
		<polygon style="fill:#BFBFBF;" points="244.344,-256 0,-11.656 0,-5.999 250.001,-256 		"/>
		<polygon style="fill:#BFBFBF;" points="235.516,-256 0,-20.484 0,-14.827 241.173,-256 		"/>
		<polygon style="fill:#BFBFBF;" points="5.999,-256 0,-250.001 0,-244.344 11.656,-256 		"/>
	</g>
</pattern>
<g>
	<path style="fill:#FFFFFF;" d="M40,214.5v-53c0-0.828-0.672-1.5-1.5-1.5h-13c-0.828,0-1.5,0.672-1.5,1.5V216v14.5
		c0,0.828,0.672,1.5,1.5,1.5H40h54.5c0.828,0,1.5-0.672,1.5-1.5v-13c0-0.828-0.672-1.5-1.5-1.5h-53C40.672,216,40,215.328,40,214.5z
		"/>
	<path style="fill:#FFFFFF;" d="M94.5,160h-13c-0.828,0-1.5,0.672-1.5,1.5v13c0,0.828,0.672,1.5,1.5,1.5h13
		c0.828,0,1.5-0.672,1.5-1.5v-13C96,160.672,95.328,160,94.5,160z"/>
	<path style="fill:#FFFFFF;" d="M153.171,149.03l6.828-6.828l0,9.657l0,27.154C160,199.44,143.44,216,123.012,216H121.5
		c-0.828,0-1.5,0.672-1.5,1.5v13.012c0,0.822,0.666,1.488,1.488,1.488h1.524C152.277,232,176,208.277,176,179.012v-27.154v-9.657
		l6.828,6.828l15.224,15.224c0.586,0.586,1.536,0.586,2.121,0l9.192-9.192c0.586-0.586,0.586-1.536,0-2.121l-40.305-40.305
		c-0.586-0.586-1.536-0.586-2.121,0l-40.305,40.305c-0.586,0.586-0.586,1.536,0,2.121l9.192,9.192c0.586,0.586,1.536,0.586,2.121,0
		L153.171,149.03z"/>
</g>
<g>
	<pattern  id="SVGID_1_" xlink:href="#WTW_x5F_Gray_x5F_Matter_x5F_Diagonal_x5F_1" patternTransform="matrix(1 0 0 1 -144 0)">
	</pattern>
	<path style="fill:url(#SVGID_1_);" d="M216,41.5v53c0,0.828,0.672,1.5,1.5,1.5h13c0.828,0,1.5-0.672,1.5-1.5V40V25.5
		c0-0.828-0.672-1.5-1.5-1.5H216h-54.5c-0.828,0-1.5,0.672-1.5,1.5v13c0,0.828,0.672,1.5,1.5,1.5h53C215.328,40,216,40.672,216,41.5
		z"/>
	
		<pattern  id="SVGID_00000146491240300620461860000017789370065248064664_" xlink:href="#WTW_x5F_Gray_x5F_Matter_x5F_Diagonal_x5F_1" patternTransform="matrix(1 0 0 1 -144 0)">
	</pattern>
	<path style="fill:url(#SVGID_00000146491240300620461860000017789370065248064664_);" d="M161.5,96h13c0.828,0,1.5-0.672,1.5-1.5
		v-13c0-0.828-0.672-1.5-1.5-1.5h-13c-0.828,0-1.5,0.672-1.5,1.5v13C160,95.328,160.672,96,161.5,96z"/>
	
		<pattern  id="SVGID_00000050650868604233271930000014438448401419024561_" xlink:href="#WTW_x5F_Gray_x5F_Matter_x5F_Diagonal_x5F_1" patternTransform="matrix(1 0 0 1 -144 0)">
	</pattern>
	<path style="fill:url(#SVGID_00000050650868604233271930000014438448401419024561_);" d="M102.829,106.97L96,113.799l0-9.657
		l0-27.154C96,56.56,112.56,40,132.988,40h1.512c0.828,0,1.5-0.672,1.5-1.5V25.488c0-0.822-0.666-1.488-1.488-1.488h-1.524
		C103.723,24,80,47.723,80,76.988v27.154v9.657l-6.828-6.828L57.948,91.747c-0.586-0.586-1.536-0.586-2.121,0l-9.192,9.192
		c-0.586,0.586-0.586,1.536,0,2.121l40.305,40.305c0.586,0.586,1.536,0.586,2.121,0l40.305-40.305c0.586-0.586,0.586-1.536,0-2.121
		l-9.192-9.192c-0.586-0.586-1.536-0.586-2.121,0L102.829,106.97z"/>
</g>
</svg>
