<?xml version="1.0" encoding="iso-8859-1"?>
<!-- Generator: Adobe Illustrator 27.5.0, SVG Export Plug-In . SVG Version: 6.00 Build 0)  -->
<svg version="1.1" id="Layer_1" xmlns="http://www.w3.org/2000/svg" xmlns:xlink="http://www.w3.org/1999/xlink" x="0px" y="0px"
	 viewBox="0 0 256 256" style="enable-background:new 0 0 256 256;" xml:space="preserve">
<path style="fill:#BFBFBF;" d="M227.4,5.42l-97.301,123.257c-1.067,1.351-3.115,1.353-4.184,0.003L61.353,47.113
	c-1.569-1.982-4.758-0.873-4.758,1.655v204.565c0,1.473-1.194,2.667-2.667,2.667H30.693c-1.473,0-2.667-1.194-2.667-2.667V2.667
	C28.027,1.194,29.221,0,30.693,0h28.505c0.815,0,1.585,0.373,2.091,1.012l64.628,81.644c1.068,1.349,3.114,1.349,4.182,0
	L194.71,1.012C195.216,0.373,195.986,0,196.801,0h28.505c1.473,0,2.667,1.194,2.667,2.667v1.101
	C227.973,4.367,227.771,4.949,227.4,5.42z"/>
<path style="fill:#BFBFBF;" d="M227.973,58.385v194.948c0,1.473-1.194,2.667-2.667,2.667h-23.236c-1.473,0-2.667-1.194-2.667-2.667
	V87.737c0-0.601,0.203-1.184,0.576-1.655l23.236-29.352C224.785,54.748,227.973,55.857,227.973,58.385z"/>
</svg>
