<?xml version="1.0" encoding="iso-8859-1"?>
<!-- Generator: Adobe Illustrator 27.5.0, SVG Export Plug-In . SVG Version: 6.00 Build 0)  -->
<svg version="1.1" xmlns="http://www.w3.org/2000/svg" xmlns:xlink="http://www.w3.org/1999/xlink" x="0px" y="0px"
	 viewBox="0 0 1024 512" style="enable-background:new 0 0 1024 512;" xml:space="preserve">
<g id="Layer_1">
	<g id="Main_x5F_Purple_x5F_BG_x5F_layer">
	</g>
</g>
<g id="crop">
	<g>
		<defs>
			<rect id="SVGID_1_" width="1024" height="512"/>
		</defs>
		<clipPath id="SVGID_00000138552863471528707520000012483319147755165074_">
			<use xlink:href="#SVGID_1_"  style="overflow:visible;"/>
		</clipPath>
		
			<rect style="clip-path:url(#SVGID_00000138552863471528707520000012483319147755165074_);fill:#48086F;stroke:#000000;stroke-miterlimit:10;" width="1024" height="512"/>
		<g style="clip-path:url(#SVGID_00000138552863471528707520000012483319147755165074_);">
			<path style="fill:#FFFFFF;" d="M63,100.082V79.313h7.501v19.9c0,4.897,2.046,7.13,6.386,7.13c4.03,0,7.563-2.604,7.563-7.75
				v-19.28h7.501v32.424h-7.501v-5.084c-1.612,3.162-5.021,5.704-10.292,5.704C67.774,112.357,63,108.699,63,100.082z"/>
			<path style="fill:#FFFFFF;" d="M100.82,79.313h7.501v5.146c1.55-3.162,5.146-5.828,10.478-5.828
				c6.509,0,11.097,3.782,11.097,12.71v20.396h-7.501V92.022c0-4.897-1.984-7.13-6.448-7.13c-4.216,0-7.625,2.604-7.625,7.75v19.095
				h-7.501V79.313z"/>
			<path style="fill:#FFFFFF;" d="M136.407,96.052v-0.495c0-10.354,6.138-16.926,14.569-16.926c5.27,0,8.556,2.418,10.354,5.642
				V64.31h7.501v47.428h-7.501v-5.456c-1.736,3.225-5.89,6.076-10.663,6.076C142.545,112.357,136.407,106.592,136.407,96.052z
				 M161.578,95.681v-0.496c0-7.13-3.286-10.664-8.741-10.664c-5.518,0-8.742,3.844-8.742,10.85v0.496
				c0,7.13,3.596,10.539,8.432,10.539C157.734,106.405,161.578,102.934,161.578,95.681z"/>
			<path style="fill:#FFFFFF;" d="M175.591,95.866V95.37c0-10.043,6.881-16.739,16.119-16.739c8.06,0,15.313,4.774,15.313,16.367
				v2.17h-23.745c0.248,6.138,3.348,9.609,8.927,9.609c4.526,0,6.882-1.798,7.44-4.96h7.253c-1.054,6.82-6.572,10.54-14.879,10.54
				C182.472,112.357,175.591,106.096,175.591,95.866z M199.583,92.146c-0.372-5.58-3.224-8.06-7.874-8.06
				c-4.526,0-7.563,3.038-8.308,8.06H199.583z"/>
			<path style="fill:#FFFFFF;" d="M215.021,84.955h-4.402v-5.642h4.402v-4.34c0-7.13,3.906-10.974,10.788-10.974
				c1.86,0,2.914,0.186,4.092,0.558v5.828c-0.868-0.372-1.798-0.496-3.162-0.496c-2.976,0-4.216,1.984-4.216,4.773v4.65h7.378v5.642
				h-7.378v26.782h-7.501V84.955z"/>
			<path style="fill:#FFFFFF;" d="M234.738,69.704c0-2.48,1.984-4.34,4.464-4.34s4.464,1.859,4.464,4.34
				c0,2.417-1.984,4.277-4.464,4.277S234.738,72.121,234.738,69.704z M235.544,79.313h7.501v32.424h-7.501V79.313z"/>
			<path style="fill:#FFFFFF;" d="M252.16,79.313h7.501v5.146c1.55-3.162,5.146-5.828,10.478-5.828
				c6.509,0,11.097,3.782,11.097,12.71v20.396h-7.501V92.022c0-4.897-1.984-7.13-6.448-7.13c-4.216,0-7.625,2.604-7.625,7.75v19.095
				h-7.501V79.313z"/>
			<path style="fill:#FFFFFF;" d="M287.685,95.866V95.37c0-10.043,6.881-16.739,16.119-16.739c8.06,0,15.313,4.774,15.313,16.367
				v2.17h-23.745c0.248,6.138,3.348,9.609,8.927,9.609c4.526,0,6.882-1.798,7.44-4.96h7.253c-1.054,6.82-6.572,10.54-14.879,10.54
				C294.566,112.357,287.685,106.096,287.685,95.866z M311.678,92.146c-0.372-5.58-3.224-8.06-7.874-8.06
				c-4.526,0-7.563,3.038-8.308,8.06H311.678z"/>
			<path style="fill:#FFFFFF;" d="M323.706,96.052v-0.495c0-10.354,6.138-16.926,14.569-16.926c5.27,0,8.556,2.418,10.354,5.642
				V64.31h7.501v47.428h-7.501v-5.456c-1.736,3.225-5.89,6.076-10.663,6.076C329.844,112.357,323.706,106.592,323.706,96.052z
				 M348.876,95.681v-0.496c0-7.13-3.286-10.664-8.741-10.664c-5.518,0-8.742,3.844-8.742,10.85v0.496
				c0,7.13,3.596,10.539,8.432,10.539C345.033,106.405,348.876,102.934,348.876,95.681z"/>
		</g>
		
			<g id="benefits_x5F_broker_x5F_core_00000078040485793909159430000016015236746978608554_" style="clip-path:url(#SVGID_00000138552863471528707520000012483319147755165074_);">
			<g>
				<polygon style="fill:#339781;" points="827.038,341.097 862.423,305.712 862.423,298.7 827.038,334.084 				"/>
				<polygon style="fill:#339781;" points="827.038,184.916 862.423,149.531 862.423,142.52 827.038,177.904 				"/>
				<path style="fill:#339781;" d="M827.038,165.394l33.686-33.686c-0.481-0.271-1.028-0.438-1.619-0.438h-4.955l-27.112,27.112
					V165.394z"/>
				<polygon style="fill:#339781;" points="827.038,360.619 862.423,325.235 862.423,318.223 827.038,353.607 				"/>
				<polygon style="fill:#339781;" points="827.038,204.439 862.423,169.054 862.423,162.042 827.038,197.427 				"/>
				<polygon style="fill:#339781;" points="827.038,263.006 862.423,227.622 862.423,220.609 827.038,255.994 				"/>
				<polygon style="fill:#339781;" points="827.038,321.574 862.423,286.189 862.423,279.177 827.038,314.562 				"/>
				<polygon style="fill:#339781;" points="827.038,380.142 862.423,344.757 862.423,337.745 827.038,373.13 				"/>
				<polygon style="fill:#339781;" points="827.038,282.529 862.423,247.144 862.423,240.132 827.038,275.517 				"/>
				<polygon style="fill:#339781;" points="827.038,223.961 862.423,188.577 862.423,181.564 827.038,216.949 				"/>
				<polygon style="fill:#339781;" points="827.038,302.052 862.423,266.667 862.423,259.655 827.038,295.039 				"/>
				<polygon style="fill:#339781;" points="827.038,399.664 862.423,364.28 862.423,357.267 827.038,392.652 				"/>
				<path style="fill:#339781;" d="M830.356,449.731h5.184l26.883-26.883v-7.012l-33.538,33.538
					C829.33,449.594,829.825,449.731,830.356,449.731z"/>
				<polygon style="fill:#339781;" points="827.038,438.709 862.423,403.325 862.423,396.312 827.038,431.697 				"/>
				<polygon style="fill:#339781;" points="855.062,449.731 862.423,442.37 862.423,435.358 848.05,449.731 				"/>
				<polygon style="fill:#339781;" points="827.038,243.484 862.423,208.099 862.423,201.087 827.038,236.471 				"/>
				<polygon style="fill:#339781;" points="827.038,419.187 862.423,383.802 862.423,376.79 827.038,412.175 				"/>
				<polygon style="fill:#339781;" points="834.628,131.269 827.038,138.859 827.038,145.871 841.64,131.269 				"/>
				<polygon style="fill:#3ADCC9;" points="827.038,275.517 862.423,240.132 862.423,227.622 827.038,263.006 				"/>
				<polygon style="fill:#3ADCC9;" points="827.038,295.039 862.423,259.655 862.423,247.144 827.038,282.529 				"/>
				<polygon style="fill:#3ADCC9;" points="827.038,255.994 862.423,220.609 862.423,208.099 827.038,243.484 				"/>
				<polygon style="fill:#3ADCC9;" points="827.038,314.562 862.423,279.177 862.423,266.667 827.038,302.052 				"/>
				<polygon style="fill:#3ADCC9;" points="827.038,334.084 862.423,298.7 862.423,286.189 827.038,321.574 				"/>
				<path style="fill:#3ADCC9;" d="M827.038,177.904l35.385-35.385v-7.933c0-1.241-0.69-2.31-1.699-2.879l-33.686,33.686V177.904z"
					/>
				<polygon style="fill:#3ADCC9;" points="827.038,145.871 827.038,158.382 854.151,131.269 841.64,131.269 				"/>
				<path style="fill:#3ADCC9;" d="M830.356,131.269c-1.832,0-3.317,1.485-3.317,3.317v4.272l7.59-7.59H830.356z"/>
				<polygon style="fill:#3ADCC9;" points="827.038,197.427 862.423,162.042 862.423,149.531 827.038,184.916 				"/>
				<polygon style="fill:#3ADCC9;" points="827.038,216.949 862.423,181.564 862.423,169.054 827.038,204.439 				"/>
				<polygon style="fill:#3ADCC9;" points="827.038,373.13 862.423,337.745 862.423,325.235 827.038,360.619 				"/>
				<polygon style="fill:#3ADCC9;" points="827.038,236.471 862.423,201.087 862.423,188.577 827.038,223.961 				"/>
				<polygon style="fill:#3ADCC9;" points="827.038,353.607 862.423,318.223 862.423,305.712 827.038,341.097 				"/>
				<polygon style="fill:#3ADCC9;" points="827.038,412.175 862.423,376.79 862.423,364.28 827.038,399.664 				"/>
				<polygon style="fill:#3ADCC9;" points="827.038,392.652 862.423,357.267 862.423,344.757 827.038,380.142 				"/>
				<polygon style="fill:#3ADCC9;" points="827.038,431.697 862.423,396.312 862.423,383.802 827.038,419.187 				"/>
				<path style="fill:#3ADCC9;" d="M859.106,449.731c1.832,0,3.317-1.485,3.317-3.317v-4.043l-7.361,7.361H859.106z"/>
				<polygon style="fill:#3ADCC9;" points="848.05,449.731 862.423,435.358 862.423,422.847 835.54,449.731 				"/>
				<path style="fill:#3ADCC9;" d="M827.038,446.413c0,1.301,0.756,2.416,1.847,2.959l33.538-33.538v-12.51l-35.385,35.385V446.413z
					"/>
			</g>
			<path style="fill:#FFFFFF;" d="M764.85,290.5l-24.812-24.812c-1.296-1.296-1.295-3.396,0-4.691l15.26-15.26
				c0.622-0.622,0.972-1.466,0.972-2.346v-32.507v-33.745c0-0.88-0.349-1.724-0.972-2.346l-8.14-8.14l-34.413-34.413
				c-0.622-0.622-1.466-0.972-2.346-0.972h-48.673h-87.909c-1.832,0-3.317,1.485-3.317,3.317v23.221v8.846v79.615v35.385v93.99
				c0,1.832,1.485,3.317,3.317,3.317h28.75c1.832,0,3.317-1.485,3.317-3.317v-90.673c0-1.832,1.485-3.317,3.317-3.317h60.132h35.249
				c0.88,0,1.724,0.349,2.346,0.972l5.729,5.729l33.794,33.794c0.622,0.622,0.972,1.466,0.972,2.346v45.751
				c0,0.88-0.349,1.723-0.971,2.345l-40.762,40.783c-0.622,0.622-1.466,0.972-2.346,0.972H573.817c-1.832,0-3.317,1.485-3.317,3.317
				v28.75c0,1.832,1.485,3.317,3.317,3.317h127.849h16.318c0.88,0,1.724-0.35,2.346-0.972l18.247-18.247l16.166-16.166
				l27.092-27.071c0.623-0.622,0.973-1.466,0.973-2.347v-41.352v-14.906v-18.839c0-0.88-0.349-1.724-0.972-2.346L764.85,290.5z
				 M705.668,245.298c-0.622,0.622-1.466,0.972-2.346,0.972h-32.75h-61.37c-1.832,0-3.317-1.485-3.317-3.317v-72.981
				c0-1.832,1.485-3.317,3.317-3.317h86.536c0.879,0,1.723,0.349,2.345,0.971l21.83,21.81c0.623,0.622,0.973,1.466,0.973,2.347
				v36.926c0,0.88-0.35,1.724-0.972,2.346l-7.255,7.255L705.668,245.298z"/>
			<path style="fill:#FFFFFF;" d="M1012.542,290.5l-24.812-24.812c-1.296-1.296-1.296-3.396,0-4.691l15.26-15.26
				c0.622-0.622,0.972-1.466,0.972-2.346v-32.507v-33.745c0-0.88-0.349-1.724-0.972-2.346l-8.14-8.14l-34.413-34.413
				c-0.622-0.622-1.466-0.972-2.346-0.972h-48.673h-8.293c-1.832,0-3.317,1.485-3.317,3.317v28.75c0,1.832,1.485,3.317,3.317,3.317
				h42.305c0.879,0,1.723,0.349,2.345,0.971l21.83,21.81c0.623,0.622,0.973,1.466,0.973,2.347v36.926
				c0,0.88-0.349,1.724-0.972,2.346l-7.255,7.255l-6.99,6.99c-0.622,0.622-1.466,0.972-2.346,0.972h-32.75h-17.139
				c-1.832,0-3.317,1.485-3.317,3.317v28.75c0,1.832,1.485,3.317,3.317,3.317h15.901h35.249c0.88,0,1.724,0.349,2.346,0.972
				l5.729,5.729l33.794,33.794c0.622,0.622,0.972,1.466,0.972,2.346v45.751c0,0.88-0.349,1.723-0.971,2.345l-40.762,40.783
				c-0.622,0.622-1.466,0.972-2.346,0.972h-49.911c-1.832,0-3.317,1.485-3.317,3.317v28.75c0,1.832,1.485,3.317,3.317,3.317h48.234
				h16.318c0.88,0,1.724-0.35,2.346-0.972l18.247-18.247l16.166-16.166l27.092-27.071c0.623-0.622,0.973-1.466,0.973-2.347v-41.352
				v-14.906v-18.839c0-0.88-0.349-1.724-0.972-2.346L1012.542,290.5z"/>
		</g>
		<g style="clip-path:url(#SVGID_00000138552863471528707520000012483319147755165074_);">
			<g>
				<defs>
					<rect id="SVGID_00000119103232617486135550000015333290713903004549_" x="62" y="405" width="155" height="50"/>
				</defs>
				<clipPath id="SVGID_00000168094378103667281570000016547749324920537513_">
					<use xlink:href="#SVGID_00000119103232617486135550000015333290713903004549_"  style="overflow:visible;"/>
				</clipPath>
				<g style="clip-path:url(#SVGID_00000168094378103667281570000016547749324920537513_);">
					<defs>
						<rect id="SVGID_00000059301558083022569580000004646320510432170683_" x="62" y="405" width="155" height="50"/>
					</defs>
					<clipPath id="SVGID_00000052795670374387865580000005990146576067349160_">
						<use xlink:href="#SVGID_00000059301558083022569580000004646320510432170683_"  style="overflow:visible;"/>
					</clipPath>
					<path style="clip-path:url(#SVGID_00000052795670374387865580000005990146576067349160_);fill:#FFFFFF;" d="M217,414.83
						l-15.2,39.27H189l-6.4-21.93l-6.45,21.93h-12.79l-11.24-29.29h-7V438c0,6.19,2.5,7.21,5.92,7.21
						c0.906-0.018,1.808-0.132,2.69-0.34l3.5,9.12c-2.726,0.668-5.523,1.004-8.33,1c-11.72,0-16.72-4.79-16.72-16v-14.18h-5.34
						l-11.33,29.29h-12.8l-6.39-21.93l-6.47,21.93H77.06L62,414.83h14.51l7.57,23.73l7.22-23.73h10l7.29,23.73l7.53-23.73h16.06
						v-7.06l12.94-2.77v9.83h17.69l7.56,23.73l7.22-23.73h10l7.29,23.73l7.5-23.73H217z"/>
				</g>
			</g>
		</g>
	</g>
</g>
</svg>
