<?xml version="1.0" encoding="iso-8859-1"?>
<!-- Generator: Adobe Illustrator 27.5.0, SVG Export Plug-In . SVG Version: 6.00 Build 0)  -->
<svg version="1.1" xmlns="http://www.w3.org/2000/svg" xmlns:xlink="http://www.w3.org/1999/xlink" x="0px" y="0px"
	 viewBox="0 0 1024 512" style="enable-background:new 0 0 1024 512;" xml:space="preserve">
<g id="Layer_1">
	<g id="Main_x5F_Purple_x5F_BG_x5F_layer">
	</g>
</g>
<g id="crop">
	<g>
		<defs>
			<rect id="SVGID_1_" width="1024" height="512"/>
		</defs>
		<clipPath id="SVGID_00000147933938016990990460000013549660596617400750_">
			<use xlink:href="#SVGID_1_"  style="overflow:visible;"/>
		</clipPath>
		
			<rect style="clip-path:url(#SVGID_00000147933938016990990460000013549660596617400750_);fill:#48086F;stroke:#000000;stroke-miterlimit:10;" width="1024" height="512"/>
		<g style="clip-path:url(#SVGID_00000147933938016990990460000013549660596617400750_);">
			<path style="fill:#FFFFFF;" d="M63,100.206V79.686h5.146v20.272c0,5.704,2.418,8.245,7.501,8.245
				c4.588,0,8.928-3.037,8.928-8.865V79.686h5.146v32.424h-5.146v-5.146c-1.488,3.038-5.084,5.703-10.292,5.703
				C67.835,112.667,63,109.134,63,100.206z"/>
			<path style="fill:#FFFFFF;" d="M100.137,79.686h5.146v5.146c1.488-3.038,5.083-5.704,10.416-5.704
				c6.695,0,11.407,3.658,11.407,13.082v19.9h-5.146V91.837c0-5.704-2.417-8.246-7.625-8.246c-4.773,0-9.051,3.038-9.051,8.865
				v19.653h-5.146V79.686z"/>
			<path style="fill:#FFFFFF;" d="M134.795,96.548v-0.495c0-9.92,6.199-16.926,15.127-16.926c5.394,0,8.742,2.604,10.602,5.766
				V64.187h5.146v47.923h-5.146v-5.58c-1.86,3.162-6.386,6.138-11.098,6.138C140.933,112.667,134.795,106.653,134.795,96.548z
				 M160.71,96.114v-0.496c0-8.308-3.968-12.213-10.292-12.213c-6.448,0-10.292,4.525-10.292,12.399V96.3
				c0,8.184,4.402,12.09,9.857,12.09C155.998,108.39,160.71,104.422,160.71,96.114z"/>
			<path style="fill:#FFFFFF;" d="M173.669,96.238v-0.496c0-9.795,6.261-16.615,15.189-16.615c7.501,0,14.569,4.526,14.569,16.119
				v1.674h-24.427c0.248,7.378,3.782,11.47,10.416,11.47c5.021,0,7.936-1.86,8.617-5.642h5.146c-1.116,6.51-6.51,9.919-13.825,9.919
				C180.179,112.667,173.669,106.22,173.669,96.238z M198.158,92.767c-0.496-6.695-3.968-9.361-9.299-9.361
				c-5.27,0-8.804,3.596-9.671,9.361H198.158z"/>
			<path style="fill:#FFFFFF;" d="M212.419,84.025h-4.65v-4.34h4.65v-5.27c0-6.572,3.162-10.416,9.547-10.416
				c1.674,0,2.542,0.124,3.534,0.496v4.34c-0.93-0.372-1.922-0.558-3.348-0.558c-3.286,0-4.588,2.293-4.588,5.579v5.828h7.936v4.34
				h-7.936v28.084h-5.146V84.025z"/>
			<path style="fill:#FFFFFF;" d="M231.019,69.518c0-1.859,1.55-3.409,3.41-3.409s3.41,1.55,3.41,3.409c0,1.86-1.55,3.41-3.41,3.41
				S231.019,71.378,231.019,69.518z M231.948,79.686h5.146v32.424h-5.146V79.686z"/>
			<path style="fill:#FFFFFF;" d="M247.634,79.686h5.146v5.146c1.488-3.038,5.083-5.704,10.416-5.704
				c6.695,0,11.407,3.658,11.407,13.082v19.9h-5.146V91.837c0-5.704-2.417-8.246-7.625-8.246c-4.773,0-9.051,3.038-9.051,8.865
				v19.653h-5.146V79.686z"/>
			<path style="fill:#FFFFFF;" d="M282.292,96.238v-0.496c0-9.795,6.261-16.615,15.189-16.615c7.501,0,14.569,4.526,14.569,16.119
				v1.674h-24.427c0.248,7.378,3.782,11.47,10.416,11.47c5.021,0,7.936-1.86,8.617-5.642h5.146c-1.116,6.51-6.51,9.919-13.825,9.919
				C288.801,112.667,282.292,106.22,282.292,96.238z M306.78,92.767c-0.496-6.695-3.968-9.361-9.299-9.361
				c-5.27,0-8.804,3.596-9.671,9.361H306.78z"/>
			<path style="fill:#FFFFFF;" d="M317.507,96.548v-0.495c0-9.92,6.199-16.926,15.127-16.926c5.394,0,8.742,2.604,10.602,5.766
				V64.187h5.146v47.923h-5.146v-5.58c-1.86,3.162-6.386,6.138-11.098,6.138C323.645,112.667,317.507,106.653,317.507,96.548z
				 M343.422,96.114v-0.496c0-8.308-3.968-12.213-10.292-12.213c-6.448,0-10.292,4.525-10.292,12.399V96.3
				c0,8.184,4.402,12.09,9.857,12.09C338.71,108.39,343.422,104.422,343.422,96.114z"/>
		</g>
		
			<g id="ask_x5F_benix_x5F_core_00000051349372026833829950000006002960360723974274_" style="clip-path:url(#SVGID_00000147933938016990990460000013549660596617400750_);">
			<path style="fill:#3ADCC9;" d="M993.7,93.85v-29.9c0-1.905-1.545-3.45-3.45-3.45h-269.1c-1.905,0-3.45,1.545-3.45,3.45v269.1
				c0,1.905,1.545,3.45,3.45,3.45h148.485c0.915,0,1.793,0.363,2.44,1.01l71.579,71.579c0.647,0.647,1.525,1.01,2.44,1.01h44.157
				c1.905,0,3.45-1.545,3.45-3.45v-269.1c0-1.905-1.545-3.45-3.45-3.45h-29.9c-1.905,0-3.45,1.545-3.45,3.45v224.385
				c0,3.074-3.716,4.613-5.89,2.44l-63.664-63.664c-0.647-0.647-1.525-1.01-2.44-1.01H757.95c-1.905,0-3.45-1.545-3.45-3.45v-195.5
				c0-1.905,1.545-3.45,3.45-3.45h232.3C992.155,97.3,993.7,95.755,993.7,93.85z"/>
			<g>
				<polygon style="fill:#930082;" points="778.136,410.1 814.936,446.9 822.229,446.9 785.429,410.1 				"/>
				<polygon style="fill:#930082;" points="798.44,410.1 835.24,446.9 842.533,446.9 805.733,410.1 				"/>
				<polygon style="fill:#930082;" points="757.833,410.1 763.7,415.967 794.633,446.9 801.926,446.9 765.126,410.1 				"/>
				<polygon style="fill:#930082;" points="818.743,410.1 855.543,446.9 862.836,446.9 826.036,410.1 				"/>
				<polygon style="fill:#930082;" points="859.35,410.1 874.1,424.85 874.1,417.557 866.643,410.1 				"/>
				<path style="fill:#930082;" d="M839.047,410.1l34.751,34.751c0.191-0.429,0.302-0.901,0.302-1.401v-5.59l-27.76-27.76H839.047z"
					/>
				<path style="fill:#C900AC;" d="M826.036,410.1l36.8,36.8h7.814c1.406,0,2.61-0.844,3.148-2.049L839.047,410.1H826.036z"/>
				<polygon style="fill:#C900AC;" points="805.733,410.1 842.533,446.9 855.543,446.9 818.743,410.1 				"/>
				<polygon style="fill:#C900AC;" points="785.429,410.1 822.229,446.9 835.24,446.9 798.44,410.1 				"/>
				<polygon style="fill:#C900AC;" points="846.34,410.1 874.1,437.86 874.1,424.85 859.35,410.1 				"/>
				<path style="fill:#C900AC;" d="M870.65,410.1h-4.007l7.457,7.457v-4.007C874.1,411.645,872.555,410.1,870.65,410.1z"/>
				<polygon style="fill:#C900AC;" points="763.7,436.27 737.53,410.1 724.519,410.1 761.319,446.9 774.33,446.9 763.7,436.27 				
					"/>
				<polygon style="fill:#C900AC;" points="765.126,410.1 801.926,446.9 814.936,446.9 778.136,410.1 				"/>
				<polygon style="fill:#930082;" points="644.1,390.591 607.3,353.791 607.3,361.084 644.1,397.884 				"/>
				<polygon style="fill:#930082;" points="644.1,410.895 607.3,374.095 607.3,381.388 644.1,418.188 				"/>
				<polygon style="fill:#930082;" points="644.1,431.198 607.3,394.398 607.3,401.691 644.1,438.491 				"/>
				<polygon style="fill:#930082;" points="644.1,248.467 607.3,211.667 607.3,218.96 644.1,255.76 				"/>
				<polygon style="fill:#930082;" points="644.1,329.681 607.3,292.881 607.3,300.174 644.1,336.974 				"/>
				<polygon style="fill:#930082;" points="644.1,451.502 607.3,414.702 607.3,421.994 644.1,458.795 				"/>
				<path style="fill:#930082;" d="M644.1,472.335v-0.53l-36.8-36.8v7.293l63.619,63.619l3.646-3.646l-26.525-26.525
					C646.112,476.012,644.1,474.596,644.1,472.335z"/>
				<polygon style="fill:#930082;" points="644.1,349.985 607.3,313.185 607.3,320.477 644.1,357.277 				"/>
				<polygon style="fill:#930082;" points="644.1,309.378 607.3,272.578 607.3,279.87 644.1,316.67 				"/>
				<polygon style="fill:#930082;" points="644.1,370.288 607.3,333.488 607.3,340.78 644.1,377.581 				"/>
				<polygon style="fill:#930082;" points="644.1,289.074 607.3,252.274 607.3,259.567 644.1,296.367 				"/>
				<polygon style="fill:#930082;" points="644.1,268.771 607.3,231.971 607.3,239.264 644.1,276.064 				"/>
				<polygon style="fill:#930082;" points="644.1,228.164 607.3,191.364 607.3,198.657 644.1,235.457 				"/>
				<polygon style="fill:#930082;" points="705.793,418.971 733.723,446.9 741.015,446.9 709.44,415.324 				"/>
				<polygon style="fill:#930082;" points="607.3,503.208 624.592,520.5 631.884,520.5 607.3,495.916 				"/>
				
					<rect x="667.297" y="462.514" transform="matrix(0.7071 -0.7071 0.7071 0.7071 -143.8626 614.5332)" style="fill:#930082;" width="5.157" height="36.82"/>
				
					<rect x="707.905" y="421.907" transform="matrix(0.7071 -0.7071 0.7071 0.7071 -103.2557 631.3531)" style="fill:#930082;" width="5.157" height="36.82"/>
				<path style="fill:#930082;" d="M607.3,517.05c0,1.905,1.545,3.45,3.45,3.45h0.831l-4.281-4.281V517.05z"/>
				<polygon style="fill:#930082;" points="744.822,410.1 737.53,410.1 763.7,436.27 763.7,436.27 774.33,446.9 781.622,446.9 
					763.7,428.978 				"/>
				<polygon style="fill:#930082;" points="717.226,410.1 754.026,446.9 761.319,446.9 724.519,410.1 				"/>
				<polygon style="fill:#930082;" points="607.3,482.905 644.895,520.5 652.188,520.5 607.3,475.612 				"/>
				
					<rect x="677.449" y="452.362" transform="matrix(0.7071 -0.7071 0.7071 0.7071 -133.7108 618.7382)" style="fill:#930082;" width="5.157" height="36.82"/>
				<polygon style="fill:#930082;" points="644.1,187.557 636.643,180.1 629.35,180.1 644.1,194.85 				"/>
				<polygon style="fill:#930082;" points="607.3,462.601 660.767,516.069 664.414,512.422 607.3,455.309 				"/>
				<path style="fill:#930082;" d="M644.1,207.86l-27.76-27.76h-5.59c-0.5,0-0.972,0.111-1.401,0.302l34.751,34.751V207.86z"/>
				
					<rect x="687.601" y="442.21" transform="matrix(0.7071 -0.7071 0.7071 0.7071 -123.559 622.9432)" style="fill:#930082;" width="5.157" height="36.82"/>
				
					<rect x="697.753" y="432.059" transform="matrix(0.7071 -0.7071 0.7071 0.7071 -113.4073 627.1482)" style="fill:#930082;" width="5.157" height="36.82"/>
				<polygon style="fill:#C900AC;" points="607.3,495.916 631.884,520.5 644.895,520.5 607.3,482.905 				"/>
				<polygon style="fill:#C900AC;" points="607.3,455.309 664.414,512.422 670.919,505.917 607.3,442.298 				"/>
				<path style="fill:#C900AC;" d="M607.3,475.612l44.888,44.888h2.719c0.915,0,1.793-0.363,2.44-1.01l3.421-3.421L607.3,462.601
					V475.612z"/>
				<polygon style="fill:#C900AC;" points="607.3,516.219 611.581,520.5 624.592,520.5 607.3,503.208 				"/>
				<polygon style="fill:#C900AC;" points="644.1,235.457 607.3,198.657 607.3,211.667 644.1,248.467 				"/>
				<polygon style="fill:#C900AC;" points="644.1,255.76 607.3,218.96 607.3,231.971 644.1,268.771 				"/>
				<path style="fill:#C900AC;" d="M644.1,215.153l-34.751-34.751c-1.206,0.538-2.049,1.742-2.049,3.148v7.814l36.8,36.8V215.153z"
					/>
				<polygon style="fill:#C900AC;" points="644.1,276.064 607.3,239.264 607.3,252.274 644.1,289.074 				"/>
				<polygon style="fill:#C900AC;" points="757.833,410.1 744.822,410.1 763.7,428.978 781.622,446.9 794.633,446.9 763.7,415.967 
									"/>
				<polygon style="fill:#C900AC;" points="644.1,296.367 607.3,259.567 607.3,272.578 644.1,309.378 				"/>
				<path style="fill:#C900AC;" d="M644.1,183.55c0-1.905-1.545-3.45-3.45-3.45h-4.007l7.457,7.457V183.55z"/>
				<path style="fill:#C900AC;" d="M716.093,410.1c-0.915,0-1.793,0.363-2.44,1.01l-4.214,4.214l31.576,31.576h13.011l-36.8-36.8
					H716.093z"/>
				<polygon style="fill:#C900AC;" points="644.1,336.974 607.3,300.174 607.3,313.185 644.1,349.985 				"/>
				<polygon style="fill:#C900AC;" points="644.1,194.85 629.35,180.1 616.34,180.1 644.1,207.86 				"/>
				<polygon style="fill:#C900AC;" points="644.1,316.67 607.3,279.87 607.3,292.881 644.1,329.681 				"/>
				
					<rect x="700.807" y="426.983" transform="matrix(0.7071 -0.7071 0.7071 0.7071 -108.3315 629.2507)" style="fill:#C900AC;" width="9.2" height="36.82"/>
				<polygon style="fill:#C900AC;" points="644.1,377.581 607.3,340.78 607.3,353.791 644.1,390.591 				"/>
				<polygon style="fill:#C900AC;" points="644.1,357.277 607.3,320.477 607.3,333.488 644.1,370.288 				"/>
				<path style="fill:#C900AC;" d="M699.288,425.476l26.036,26.036l3.602-3.602c0.647-0.647,1.525-1.01,2.44-1.01h2.358
					l-27.929-27.929L699.288,425.476z"/>
				<polygon style="fill:#C900AC;" points="644.1,397.884 607.3,361.084 607.3,374.095 644.1,410.895 				"/>
				
					<rect x="690.655" y="437.134" transform="matrix(0.7071 -0.7071 0.7071 0.7071 -118.4831 625.0457)" style="fill:#C900AC;" width="9.2" height="36.82"/>
				<path style="fill:#C900AC;" d="M649.99,474.774c-0.574,0.574-1.257,0.875-1.95,0.971l26.525,26.525l6.505-6.505l-26.036-26.036
					L649.99,474.774z"/>
				<polygon style="fill:#C900AC;" points="644.1,458.795 607.3,421.994 607.3,435.005 644.1,471.805 				"/>
				
					<rect x="670.352" y="457.438" transform="matrix(0.7071 -0.7071 0.7071 0.7071 -138.7867 616.6357)" style="fill:#C900AC;" width="9.2" height="36.82"/>
				<polygon style="fill:#C900AC;" points="644.1,438.491 607.3,401.691 607.3,414.702 644.1,451.502 				"/>
				
					<rect x="680.504" y="447.286" transform="matrix(0.7071 -0.7071 0.7071 0.7071 -128.6349 620.8407)" style="fill:#C900AC;" width="9.2" height="36.82"/>
				<polygon style="fill:#C900AC;" points="644.1,418.188 607.3,381.388 607.3,394.398 644.1,431.198 				"/>
			</g>
			<path style="fill:#3ADCC9;" d="M872.6,216.9h-33.8c-0.828,0-1.5-0.672-1.5-1.5v-33.8c0-0.828,0.672-1.5,1.5-1.5h33.8
				c0.828,0,1.5,0.672,1.5,1.5v33.8C874.1,216.228,873.428,216.9,872.6,216.9z"/>
		</g>
		<g style="clip-path:url(#SVGID_00000147933938016990990460000013549660596617400750_);">
			<g>
				<defs>
					<rect id="SVGID_00000111882628703251625210000006092693671168923283_" x="62" y="405" width="155" height="50"/>
				</defs>
				<clipPath id="SVGID_00000173153240267368183730000000410572054384059028_">
					<use xlink:href="#SVGID_00000111882628703251625210000006092693671168923283_"  style="overflow:visible;"/>
				</clipPath>
				<g style="clip-path:url(#SVGID_00000173153240267368183730000000410572054384059028_);">
					<defs>
						<rect id="SVGID_00000023963935232939681250000006840819961319964314_" x="62" y="405" width="155" height="50"/>
					</defs>
					<clipPath id="SVGID_00000149371343067279045600000007136552761566362032_">
						<use xlink:href="#SVGID_00000023963935232939681250000006840819961319964314_"  style="overflow:visible;"/>
					</clipPath>
					<path style="clip-path:url(#SVGID_00000149371343067279045600000007136552761566362032_);fill:#FFFFFF;" d="M217,414.83
						l-15.2,39.27H189l-6.4-21.93l-6.45,21.93h-12.79l-11.24-29.29h-7V438c0,6.19,2.5,7.21,5.92,7.21
						c0.906-0.018,1.808-0.132,2.69-0.34l3.5,9.12c-2.726,0.668-5.523,1.004-8.33,1c-11.72,0-16.72-4.79-16.72-16v-14.18h-5.34
						l-11.33,29.29h-12.8l-6.39-21.93l-6.47,21.93H77.06L62,414.83h14.51l7.57,23.73l7.22-23.73h10l7.29,23.73l7.53-23.73h16.06
						v-7.06l12.94-2.77v9.83h17.69l7.56,23.73l7.22-23.73h10l7.29,23.73l7.5-23.73H217z"/>
				</g>
			</g>
		</g>
	</g>
</g>
</svg>
