<?xml version="1.0" encoding="iso-8859-1"?>
<!-- Generator: Adobe Illustrator 27.5.0, SVG Export Plug-In . SVG Version: 6.00 Build 0)  -->
<svg version="1.1" id="Layer_1" xmlns="http://www.w3.org/2000/svg" xmlns:xlink="http://www.w3.org/1999/xlink" x="0px" y="0px"
	 viewBox="0 0 256 256" style="enable-background:new 0 0 256 256;" xml:space="preserve">
<g id="aa_x5F_incomecalc_x5F_core_00000148648284358269417210000016391387678638884792_">
	<path style="fill:#7F35B2;" d="M205.98,80l-8-8l-15.561-15.561c-0.281-0.281-0.663-0.439-1.061-0.439H168.65h-9.3h-12.709
		c-0.398,0-0.779,0.158-1.061,0.439L130.02,72l-8,8l-1.581,1.581c-0.281,0.281-0.439,0.663-0.439,1.061v22.009v93.85
		c0,0.828,0.672,1.5,1.5,1.5h13c0.828,0,1.5-0.672,1.5-1.5V89.271c0-0.398,0.158-0.779,0.439-1.061l15.771-15.771
		c0.281-0.281,0.663-0.439,1.061-0.439h21.457c0.398,0,0.779,0.158,1.061,0.439l15.771,15.771c0.281,0.281,0.439,0.663,0.439,1.061
		V118.5c0,0.828-0.672,1.5-1.5,1.5h-33c-0.828,0-1.5,0.672-1.5,1.5v13c0,0.828,0.672,1.5,1.5,1.5h33c0.828,0,1.5,0.672,1.5,1.5v61
		c0,0.828,0.672,1.5,1.5,1.5h13c0.828,0,1.5-0.672,1.5-1.5v-93.85V82.641c0-0.398-0.158-0.779-0.439-1.061L205.98,80z"/>
	<path style="fill:#7F35B2;" d="M93.98,80l-8-8L70.419,56.439C70.138,56.158,69.756,56,69.359,56H56.65h-9.3H34.641
		c-0.398,0-0.779,0.158-1.061,0.439L18.02,72l-8,8l-1.581,1.581C8.158,81.862,8,82.243,8,82.641v22.009v93.85
		c0,0.828,0.672,1.5,1.5,1.5h13c0.828,0,1.5-0.672,1.5-1.5V89.271c0-0.398,0.158-0.779,0.439-1.061l15.771-15.771
		C40.492,72.158,40.874,72,41.271,72h21.457c0.398,0,0.779,0.158,1.061,0.439l15.771,15.771C79.842,88.492,80,88.873,80,89.271
		V118.5c0,0.828-0.672,1.5-1.5,1.5h-33c-0.828,0-1.5,0.672-1.5,1.5v13c0,0.828,0.672,1.5,1.5,1.5h33c0.828,0,1.5,0.672,1.5,1.5v61
		c0,0.828,0.672,1.5,1.5,1.5h13c0.828,0,1.5-0.672,1.5-1.5v-93.85V82.641c0-0.398-0.158-0.779-0.439-1.061L93.98,80z"/>
	<path style="fill:#7F35B2;" d="M232,198.5v-77c0-0.828,0.672-1.5,1.5-1.5h13c0.828,0,1.5,0.672,1.5,1.5v77
		c0,0.828-0.672,1.5-1.5,1.5h-13C232.672,200,232,199.328,232,198.5z"/>
	<g>
		<polygon style="fill:#339781;" points="248,91.401 239.401,100 242.572,100 248,94.572 		"/>
		<path style="fill:#339781;" d="M248,85.5c0-0.806-0.637-1.458-1.434-1.493l-14.56,14.56c0.036,0.797,0.688,1.434,1.493,1.434
			h0.244L248,85.744V85.5z"/>
		<polygon style="fill:#339781;" points="237.746,84 232,89.746 232,92.916 240.916,84 		"/>
		<path style="fill:#3ADCC9;" d="M233.5,84c-0.828,0-1.5,0.672-1.5,1.5v4.246L237.746,84H233.5z"/>
		<path style="fill:#3ADCC9;" d="M242.572,100h3.928c0.828,0,1.5-0.672,1.5-1.5v-3.928L242.572,100z"/>
		<polygon style="fill:#3ADCC9;" points="248,85.744 233.744,100 239.401,100 248,91.401 		"/>
		<path style="fill:#3ADCC9;" d="M246.5,84h-5.584L232,92.916V98.5c0,0.023,0.006,0.044,0.007,0.066l14.56-14.56
			C246.544,84.006,246.523,84,246.5,84z"/>
	</g>
</g>
</svg>
