<?xml version="1.0" encoding="iso-8859-1"?>
<!-- Generator: Adobe Illustrator 27.5.0, SVG Export Plug-In . SVG Version: 6.00 Build 0)  -->
<svg version="1.1" id="Layer_1" xmlns="http://www.w3.org/2000/svg" xmlns:xlink="http://www.w3.org/1999/xlink" x="0px" y="0px"
	 viewBox="0 0 674.242 256" style="enable-background:new 0 0 674.242 256;" xml:space="preserve">
<g>
	<path style="fill:#BFBFBF;" d="M280.33,153.301v-34.035H272v-10.829h8.33V94.751h14.399v13.686h13.686v10.829h-13.686v32.726
		c0,5.475,2.618,7.974,7.14,7.974c2.856,0,4.998-0.357,7.021-1.19v11.425c-2.261,0.833-5.355,1.547-9.758,1.547
		C286.756,171.746,280.33,165.082,280.33,153.301z"/>
	<path style="fill:#BFBFBF;" d="M321.86,108.437h14.399v11.662c3.927-7.854,9.758-12.495,20.23-12.614v13.447
		c-12.614,0.119-20.23,4.165-20.23,17.374v32.369H321.86V108.437z"/>
	<path style="fill:#BFBFBF;" d="M363.629,140.21v-0.952c0-19.278,13.209-32.131,30.94-32.131c15.471,0,29.394,9.163,29.394,31.417
		v4.165h-45.578c0.476,11.781,6.426,18.445,17.136,18.445c8.688,0,13.209-3.451,14.28-9.521h13.924
		c-2.023,13.091-12.615,20.231-28.561,20.231C376.838,171.865,363.629,159.846,363.629,140.21z M409.683,133.069
		c-0.714-10.71-6.188-15.47-15.114-15.47c-8.687,0-14.518,5.831-15.946,15.47H409.683z"/>
	<path style="fill:#BFBFBF;" d="M436.812,79.638h14.399v56.169l22.253-27.37h15.708l-24.158,28.561l26.181,33.678h-16.66
		l-23.325-30.584v30.584h-14.399V79.638z"/>
	<path style="fill:#BFBFBF;" d="M501.072,79.638h14.399v56.169l22.253-27.37h15.708l-24.158,28.561l26.181,33.678h-16.66
		l-23.325-30.584v30.584h-14.399V79.638z"/>
	<path style="fill:#BFBFBF;" d="M558.429,140.21v-0.952c0-19.278,13.209-32.131,30.941-32.131c15.47,0,29.394,9.163,29.394,31.417
		v4.165h-45.578c0.476,11.781,6.426,18.445,17.137,18.445c8.687,0,13.209-3.451,14.28-9.521h13.923
		c-2.022,13.091-12.614,20.231-28.561,20.231C571.638,171.865,558.429,159.846,558.429,140.21z M604.483,133.069
		c-0.714-10.71-6.188-15.47-15.113-15.47c-8.688,0-14.519,5.831-15.947,15.47H604.483z"/>
	<path style="fill:#BFBFBF;" d="M631.612,108.437h14.399v11.662c3.927-7.854,9.758-12.495,20.23-12.614v13.447
		c-12.614,0.119-20.23,4.165-20.23,17.374v32.369h-14.399V108.437z"/>
</g>
<g>
	<g>
		<g>
			<path style="fill:#BFBFBF;" d="M192,41.5v53c0,0.828,0.672,1.5,1.5,1.5h13c0.828,0,1.5-0.672,1.5-1.5V40V25.5
				c0-0.828-0.672-1.5-1.5-1.5H192h-54.5c-0.828,0-1.5,0.672-1.5,1.5v13c0,0.828,0.672,1.5,1.5,1.5h53
				C191.328,40,192,40.672,192,41.5z"/>
			<path style="fill:#BFBFBF;" d="M137.5,96h13c0.828,0,1.5-0.672,1.5-1.5v-13c0-0.828-0.672-1.5-1.5-1.5h-13
				c-0.828,0-1.5,0.672-1.5,1.5v13C136,95.328,136.672,96,137.5,96z"/>
			<path style="fill:#BFBFBF;" d="M78.829,106.97L72,113.799l0-9.657l0-27.154C72,56.56,88.56,40,108.988,40h1.512
				c0.828,0,1.5-0.672,1.5-1.5V25.488c0-0.822-0.666-1.488-1.488-1.488h-1.524C79.723,24,56,47.723,56,76.988v27.154v9.657
				l-6.828-6.828L33.948,91.747c-0.586-0.586-1.536-0.586-2.121,0l-9.192,9.192c-0.586,0.586-0.586,1.536,0,2.121l40.305,40.305
				c0.586,0.586,1.536,0.586,2.121,0l40.305-40.305c0.586-0.586,0.586-1.536,0-2.121l-9.192-9.192c-0.586-0.586-1.536-0.586-2.121,0
				L78.829,106.97z"/>
		</g>
		<g>
			<path style="fill:#BFBFBF;" d="M16,214.5v-53c0-0.828-0.672-1.5-1.5-1.5h-13c-0.828,0-1.5,0.672-1.5,1.5V216v14.5
				c0,0.828,0.672,1.5,1.5,1.5H16h54.5c0.828,0,1.5-0.672,1.5-1.5v-13c0-0.828-0.672-1.5-1.5-1.5h-53
				C16.672,216,16,215.328,16,214.5z"/>
			<path style="fill:#BFBFBF;" d="M70.5,160h-13c-0.828,0-1.5,0.672-1.5,1.5v13c0,0.828,0.672,1.5,1.5,1.5h13
				c0.828,0,1.5-0.672,1.5-1.5v-13C72,160.672,71.328,160,70.5,160z"/>
			<path style="fill:#BFBFBF;" d="M129.171,149.03l6.828-6.828l0,9.657l0,27.154C136,199.44,119.44,216,99.012,216H97.5
				c-0.828,0-1.5,0.672-1.5,1.5v13.012c0,0.822,0.666,1.488,1.488,1.488h1.524C128.277,232,152,208.277,152,179.012v-27.154v-9.657
				l6.828,6.828l15.224,15.224c0.586,0.586,1.536,0.586,2.121,0l9.192-9.192c0.586-0.586,0.586-1.536,0-2.121l-40.305-40.305
				c-0.586-0.586-1.536-0.586-2.121,0l-40.305,40.305c-0.586,0.586-0.586,1.536,0,2.121l9.192,9.192
				c0.586,0.586,1.536,0.586,2.121,0L129.171,149.03z"/>
		</g>
	</g>
</g>
</svg>
