<?xml version="1.0" encoding="iso-8859-1"?>
<!-- Generator: Adobe Illustrator 27.5.0, SVG Export Plug-In . SVG Version: 6.00 Build 0)  -->
<svg version="1.1" id="Layer_1" xmlns="http://www.w3.org/2000/svg" xmlns:xlink="http://www.w3.org/1999/xlink" x="0px" y="0px"
	 viewBox="0 0 256 256" style="enable-background:new 0 0 256 256;" xml:space="preserve">
<g id="ask_x5F_benix_x5F_core_00000051349372026833829950000006002960360723974274_">
	<path style="fill:#3ADCC9;" d="M235.52,18.56V1.92c0-1.06-0.86-1.92-1.92-1.92H83.84c-1.06,0-1.92,0.86-1.92,1.92v149.76
		c0,1.06,0.86,1.92,1.92,1.92h82.635c0.509,0,0.998,0.202,1.358,0.562l39.835,39.835c0.36,0.36,0.848,0.562,1.358,0.562H233.6
		c1.06,0,1.92-0.86,1.92-1.92V42.88c0-1.06-0.86-1.92-1.92-1.92h-16.64c-1.06,0-1.92,0.86-1.92,1.92v124.875
		c0,1.711-2.068,2.567-3.278,1.358l-35.43-35.43c-0.36-0.36-0.848-0.562-1.358-0.562H104.32c-1.06,0-1.92-0.86-1.92-1.92V22.4
		c0-1.06,0.86-1.92,1.92-1.92H233.6C234.66,20.48,235.52,19.62,235.52,18.56z"/>
	<g>
		<polygon style="fill:#930082;" points="115.554,194.56 136.034,215.04 140.093,215.04 119.613,194.56 		"/>
		<polygon style="fill:#930082;" points="126.854,194.56 147.334,215.04 151.392,215.04 130.912,194.56 		"/>
		<polygon style="fill:#930082;" points="104.255,194.56 107.52,197.825 124.735,215.04 128.794,215.04 108.314,194.56 		"/>
		<polygon style="fill:#930082;" points="138.153,194.56 158.633,215.04 162.691,215.04 142.211,194.56 		"/>
		<polygon style="fill:#930082;" points="160.752,194.56 168.96,202.768 168.96,198.71 164.81,194.56 		"/>
		<path style="fill:#930082;" d="M149.452,194.56l19.339,19.339c0.106-0.239,0.168-0.501,0.168-0.779v-3.111l-15.449-15.449H149.452
			z"/>
		<path style="fill:#C900AC;" d="M142.211,194.56l20.48,20.48h4.349c0.782,0,1.452-0.469,1.752-1.141l-19.339-19.339H142.211z"/>
		<polygon style="fill:#C900AC;" points="130.912,194.56 151.392,215.04 158.633,215.04 138.153,194.56 		"/>
		<polygon style="fill:#C900AC;" points="119.613,194.56 140.093,215.04 147.334,215.04 126.854,194.56 		"/>
		<polygon style="fill:#C900AC;" points="153.511,194.56 168.96,210.009 168.96,202.768 160.752,194.56 		"/>
		<path style="fill:#C900AC;" d="M167.04,194.56h-2.23l4.15,4.15v-2.23C168.96,195.42,168.1,194.56,167.04,194.56z"/>
		<polygon style="fill:#C900AC;" points="107.52,209.124 92.956,194.56 85.715,194.56 106.195,215.04 113.436,215.04 
			107.52,209.124 		"/>
		<polygon style="fill:#C900AC;" points="108.314,194.56 128.794,215.04 136.034,215.04 115.554,194.56 		"/>
		<polygon style="fill:#930082;" points="40.96,183.703 20.48,163.223 20.48,167.282 40.96,187.762 		"/>
		<polygon style="fill:#930082;" points="40.96,195.002 20.48,174.522 20.48,178.581 40.96,199.061 		"/>
		<polygon style="fill:#930082;" points="40.96,206.302 20.48,185.822 20.48,189.88 40.96,210.36 		"/>
		<polygon style="fill:#930082;" points="40.96,104.608 20.48,84.128 20.48,88.186 40.96,108.666 		"/>
		<polygon style="fill:#930082;" points="40.96,149.805 20.48,129.325 20.48,133.384 40.96,153.864 		"/>
		<polygon style="fill:#930082;" points="40.96,217.601 20.48,197.121 20.48,201.18 40.96,221.66 		"/>
		<path style="fill:#930082;" d="M40.96,229.195V228.9l-20.48-20.48v4.059l35.405,35.405l2.029-2.029l-14.762-14.762
			C42.079,231.242,40.96,230.454,40.96,229.195z"/>
		<polygon style="fill:#930082;" points="40.96,161.104 20.48,140.624 20.48,144.683 40.96,165.163 		"/>
		<polygon style="fill:#930082;" points="40.96,138.506 20.48,118.026 20.48,122.084 40.96,142.564 		"/>
		<polygon style="fill:#930082;" points="40.96,172.404 20.48,151.924 20.48,155.982 40.96,176.462 		"/>
		<polygon style="fill:#930082;" points="40.96,127.206 20.48,106.726 20.48,110.785 40.96,131.265 		"/>
		<polygon style="fill:#930082;" points="40.96,115.907 20.48,95.427 20.48,99.486 40.96,119.966 		"/>
		<polygon style="fill:#930082;" points="40.96,93.309 20.48,72.829 20.48,76.887 40.96,97.367 		"/>
		<polygon style="fill:#930082;" points="75.294,199.497 90.837,215.04 94.896,215.04 77.323,197.467 		"/>
		<polygon style="fill:#930082;" points="20.48,246.377 30.103,256 34.162,256 20.48,242.318 		"/>
		
			<rect x="53.87" y="223.729" transform="matrix(0.7071 -0.7071 0.7071 0.7071 -149.247 107.6362)" style="fill:#930082;" width="2.87" height="20.491"/>
		
			<rect x="76.469" y="201.131" transform="matrix(0.7071 -0.7071 0.7071 0.7071 -126.6484 116.9968)" style="fill:#930082;" width="2.87" height="20.491"/>
		<path style="fill:#930082;" d="M20.48,254.08c0,1.06,0.86,1.92,1.92,1.92h0.462l-2.382-2.382V254.08z"/>
		<polygon style="fill:#930082;" points="97.014,194.56 92.956,194.56 107.52,209.124 107.52,209.124 113.436,215.04 
			117.494,215.04 107.52,205.066 		"/>
		<polygon style="fill:#930082;" points="81.656,194.56 102.136,215.04 106.195,215.04 85.715,194.56 		"/>
		<polygon style="fill:#930082;" points="20.48,235.077 41.403,256 45.461,256 20.48,231.019 		"/>
		
			<rect x="59.52" y="218.08" transform="matrix(0.7071 -0.7071 0.7071 0.7071 -143.5973 109.9763)" style="fill:#930082;" width="2.87" height="20.491"/>
		<polygon style="fill:#930082;" points="40.96,70.71 36.81,66.56 32.752,66.56 40.96,74.768 		"/>
		<polygon style="fill:#930082;" points="20.48,223.778 50.236,253.534 52.265,251.505 20.48,219.72 		"/>
		<path style="fill:#930082;" d="M40.96,82.009L25.511,66.56H22.4c-0.278,0-0.541,0.062-0.779,0.168l19.339,19.34V82.009z"/>
		
			<rect x="65.169" y="212.43" transform="matrix(0.7071 -0.7071 0.7071 0.7071 -137.9476 112.3165)" style="fill:#930082;" width="2.87" height="20.491"/>
		
			<rect x="70.819" y="206.78" transform="matrix(0.7071 -0.7071 0.7071 0.7071 -132.298 114.6567)" style="fill:#930082;" width="2.87" height="20.491"/>
		<polygon style="fill:#C900AC;" points="20.48,242.318 34.162,256 41.403,256 20.48,235.077 		"/>
		<polygon style="fill:#C900AC;" points="20.48,219.72 52.265,251.505 55.885,247.884 20.48,212.479 		"/>
		<path style="fill:#C900AC;" d="M20.48,231.019L45.461,256h1.513c0.509,0,0.998-0.202,1.358-0.562l1.904-1.904L20.48,223.778
			V231.019z"/>
		<polygon style="fill:#C900AC;" points="20.48,253.618 22.862,256 30.103,256 20.48,246.377 		"/>
		<polygon style="fill:#C900AC;" points="40.96,97.367 20.48,76.887 20.48,84.128 40.96,104.608 		"/>
		<polygon style="fill:#C900AC;" points="40.96,108.666 20.48,88.186 20.48,95.427 40.96,115.907 		"/>
		<path style="fill:#C900AC;" d="M40.96,86.068l-19.339-19.34c-0.671,0.299-1.141,0.969-1.141,1.752v4.349l20.48,20.48V86.068z"/>
		<polygon style="fill:#C900AC;" points="40.96,119.966 20.48,99.486 20.48,106.726 40.96,127.206 		"/>
		<polygon style="fill:#C900AC;" points="104.255,194.56 97.014,194.56 107.52,205.066 117.494,215.04 124.735,215.04 
			107.52,197.825 		"/>
		<polygon style="fill:#C900AC;" points="40.96,131.265 20.48,110.785 20.48,118.026 40.96,138.506 		"/>
		<path style="fill:#C900AC;" d="M40.96,68.48c0-1.06-0.86-1.92-1.92-1.92h-2.23l4.15,4.15V68.48z"/>
		<path style="fill:#C900AC;" d="M81.026,194.56c-0.509,0-0.998,0.202-1.358,0.562l-2.345,2.345l17.573,17.573h7.241l-20.48-20.48
			H81.026z"/>
		<polygon style="fill:#C900AC;" points="40.96,153.864 20.48,133.384 20.48,140.624 40.96,161.104 		"/>
		<polygon style="fill:#C900AC;" points="40.96,74.768 32.752,66.56 25.511,66.56 40.96,82.009 		"/>
		<polygon style="fill:#C900AC;" points="40.96,142.564 20.48,122.084 20.48,129.325 40.96,149.805 		"/>
		
			<rect x="72.519" y="203.956" transform="matrix(0.7071 -0.7071 0.7071 0.7071 -129.4732 115.8268)" style="fill:#C900AC;" width="5.12" height="20.491"/>
		<polygon style="fill:#C900AC;" points="40.96,176.462 20.48,155.982 20.48,163.223 40.96,183.703 		"/>
		<polygon style="fill:#C900AC;" points="40.96,165.163 20.48,144.683 20.48,151.924 40.96,172.404 		"/>
		<path style="fill:#C900AC;" d="M71.673,203.117l14.49,14.49l2.004-2.004c0.36-0.36,0.848-0.562,1.358-0.562h1.312l-15.543-15.543
			L71.673,203.117z"/>
		<polygon style="fill:#C900AC;" points="40.96,187.762 20.48,167.282 20.48,174.522 40.96,195.002 		"/>
		
			<rect x="66.869" y="209.605" transform="matrix(0.7071 -0.7071 0.7071 0.7071 -135.1228 113.4866)" style="fill:#C900AC;" width="5.12" height="20.491"/>
		<path style="fill:#C900AC;" d="M44.238,230.553c-0.32,0.32-0.699,0.487-1.085,0.54l14.762,14.762l3.62-3.62l-14.49-14.49
			L44.238,230.553z"/>
		<polygon style="fill:#C900AC;" points="40.96,221.66 20.48,201.18 20.48,208.42 40.96,228.9 		"/>
		
			<rect x="55.57" y="220.905" transform="matrix(0.7071 -0.7071 0.7071 0.7071 -146.4222 108.8063)" style="fill:#C900AC;" width="5.12" height="20.491"/>
		<polygon style="fill:#C900AC;" points="40.96,210.36 20.48,189.88 20.48,197.121 40.96,217.601 		"/>
		
			<rect x="61.219" y="215.255" transform="matrix(0.7071 -0.7071 0.7071 0.7071 -140.7725 111.1464)" style="fill:#C900AC;" width="5.12" height="20.491"/>
		<polygon style="fill:#C900AC;" points="40.96,199.061 20.48,178.581 20.48,185.822 40.96,206.302 		"/>
	</g>
	<path style="fill:#3ADCC9;" d="M167.46,87.04h-17.48c-0.828,0-1.5-0.672-1.5-1.5V68.06c0-0.828,0.672-1.5,1.5-1.5h17.48
		c0.828,0,1.5,0.672,1.5,1.5v17.48C168.96,86.368,168.288,87.04,167.46,87.04z"/>
</g>
</svg>
