<?xml version="1.0" encoding="iso-8859-1"?>
<!-- Generator: Adobe Illustrator 27.5.0, SVG Export Plug-In . SVG Version: 6.00 Build 0)  -->
<svg version="1.1" id="Layer_1" xmlns="http://www.w3.org/2000/svg" xmlns:xlink="http://www.w3.org/1999/xlink" x="0px" y="0px"
	 viewBox="0 0 256 256" style="enable-background:new 0 0 256 256;" xml:space="preserve">
<g>
	<g>
		<polygon style="fill:#1D418E;" points="184.235,172.167 168.165,156.097 168.165,159.267 184.235,175.337 		"/>
		<path style="fill:#1D418E;" d="M168.165,185.75l14.25,14.25h0.32c0.782,0,1.417-0.6,1.486-1.364l-16.056-16.056V185.75z"/>
		<polygon style="fill:#1D418E;" points="168.165,194.578 173.587,200 176.758,200 168.165,191.407 		"/>
		<polygon style="fill:#1D418E;" points="184.235,180.994 168.165,164.924 168.165,168.095 184.235,184.165 		"/>
		<polygon style="fill:#1D418E;" points="184.235,189.822 168.165,173.752 168.165,176.923 184.235,192.993 		"/>
		<polygon style="fill:#1D418E;" points="184.235,145.684 168.165,129.614 168.165,132.785 184.235,148.855 		"/>
		<polygon style="fill:#1D418E;" points="184.235,92.719 180.617,89.1 179.216,90.87 184.235,95.889 		"/>
		<polygon style="fill:#1D418E;" points="184.235,110.374 172.816,98.955 171.415,100.724 184.235,113.544 		"/>
		<polygon style="fill:#1D418E;" points="184.235,128.029 168.165,111.959 168.165,115.13 184.235,131.2 		"/>
		<path style="fill:#1D418E;" d="M184.235,119.201l-15.319-15.319l-0.427,0.539c-0.21,0.265-0.324,0.593-0.324,0.931v0.95
			l16.07,16.07V119.201z"/>
		<polygon style="fill:#1D418E;" points="184.235,136.856 168.165,120.786 168.165,123.957 184.235,140.027 		"/>
		<polygon style="fill:#1D418E;" points="184.235,101.546 176.716,94.028 175.315,95.797 184.235,104.717 		"/>
		<polygon style="fill:#1D418E;" points="184.235,166.51 184.235,163.339 168.165,147.269 168.165,150.44 		"/>
		<polygon style="fill:#1D418E;" points="184.235,157.682 184.235,154.512 168.165,138.442 168.165,141.612 		"/>
		<polygon style="fill:#327FEF;" points="184.235,95.889 179.216,90.87 176.716,94.028 184.235,101.546 		"/>
		<path style="fill:#327FEF;" d="M184.235,88.841c0-1.422-1.794-2.046-2.676-0.931l-0.942,1.19l3.618,3.618V88.841z"/>
		<polygon style="fill:#327FEF;" points="184.235,131.2 168.165,115.13 168.165,120.786 184.235,136.856 		"/>
		<polygon style="fill:#327FEF;" points="184.235,148.855 168.165,132.785 168.165,138.442 184.235,154.512 		"/>
		<polygon style="fill:#327FEF;" points="184.235,166.51 168.165,150.44 168.165,156.097 184.235,172.167 		"/>
		<polygon style="fill:#327FEF;" points="184.235,175.337 168.165,159.267 168.165,164.924 184.235,180.994 		"/>
		<polygon style="fill:#327FEF;" points="184.235,163.339 184.235,157.682 168.165,141.612 168.165,147.269 		"/>
		<polygon style="fill:#327FEF;" points="184.235,140.027 168.165,123.957 168.165,129.614 184.235,145.684 		"/>
		<polygon style="fill:#327FEF;" points="184.235,122.372 168.165,106.302 168.165,111.959 184.235,128.029 		"/>
		<path style="fill:#327FEF;" d="M168.165,198.5c0,0.828,0.672,1.5,1.5,1.5h3.922l-5.422-5.422V198.5z"/>
		<polygon style="fill:#327FEF;" points="168.165,191.407 176.758,200 182.415,200 168.165,185.75 		"/>
		<polygon style="fill:#327FEF;" points="184.235,104.717 175.315,95.797 172.816,98.955 184.235,110.374 		"/>
		<polygon style="fill:#327FEF;" points="184.235,113.544 171.415,100.724 168.916,103.882 184.235,119.201 		"/>
		<polygon style="fill:#327FEF;" points="184.235,184.165 168.165,168.095 168.165,173.752 184.235,189.822 		"/>
		<path style="fill:#327FEF;" d="M168.165,176.923v5.657l16.056,16.056c0.004-0.045,0.014-0.089,0.014-0.136v-5.507L168.165,176.923
			z"/>
	</g>
	<path style="fill:#FFFFFF;" d="M183.912,59.049l-54.732,69.332c-0.6,0.76-1.752,0.761-2.354,0.002L90.511,82.501
		c-0.882-1.115-2.676-0.491-2.676,0.931V198.5c0,0.828-0.672,1.5-1.5,1.5h-13.07c-0.828,0-1.5-0.672-1.5-1.5v-141
		c0-0.828,0.672-1.5,1.5-1.5h16.034c0.458,0,0.892,0.21,1.176,0.569l36.353,45.925c0.601,0.759,1.752,0.759,2.352,0l36.343-45.925
		c0.284-0.36,0.718-0.569,1.176-0.569h16.034c0.828,0,1.5,0.672,1.5,1.5v0.619C184.235,58.457,184.121,58.784,183.912,59.049z"/>
</g>
</svg>
