<?xml version="1.0" encoding="iso-8859-1"?>
<!-- Generator: Adobe Illustrator 27.5.0, SVG Export Plug-In . SVG Version: 6.00 Build 0)  -->
<svg version="1.1" xmlns="http://www.w3.org/2000/svg" xmlns:xlink="http://www.w3.org/1999/xlink" x="0px" y="0px"
	 viewBox="0 0 1024 512" style="enable-background:new 0 0 1024 512;" xml:space="preserve">
<g id="Layer_1">
	<g id="Main_x5F_Purple_x5F_BG_x5F_layer">
	</g>
</g>
<g id="crop">
	<g>
		<defs>
			<rect id="SVGID_1_" width="1024" height="512"/>
		</defs>
		<clipPath id="SVGID_00000148639023262785417740000004372777431999423163_">
			<use xlink:href="#SVGID_1_"  style="overflow:visible;"/>
		</clipPath>
		
			<rect style="clip-path:url(#SVGID_00000148639023262785417740000004372777431999423163_);fill:#48086F;" width="1024" height="512"/>
		<g style="clip-path:url(#SVGID_00000148639023262785417740000004372777431999423163_);">
			<path style="fill:#FFFFFF;" d="M70.501,106.22v5.208H63V64h7.501v20.211c1.798-3.1,5.828-5.89,10.602-5.89
				c8.122,0,14.383,6.014,14.383,16.491v0.496c0,10.415-6.014,16.739-14.383,16.739C75.957,112.048,72.237,109.506,70.501,106.22z
				 M87.798,95.433v-0.496c0-7.191-3.72-10.726-8.617-10.726c-5.208,0-8.928,3.534-8.928,10.726v0.496
				c0,7.254,3.534,10.663,8.99,10.663C84.761,106.096,87.798,102.376,87.798,95.433z"/>
			<path style="fill:#FFFFFF;" d="M99.89,102.438c0-7.563,7.315-10.292,16.615-10.292h4.03v-1.674c0-4.34-1.488-6.51-5.89-6.51
				c-3.906,0-5.828,1.86-6.199,5.084h-7.254c0.62-7.563,6.634-10.726,13.887-10.726c7.254,0,12.958,2.977,12.958,11.842v21.265
				h-7.378v-3.968c-2.107,2.79-4.959,4.588-9.919,4.588C104.787,112.048,99.89,109.196,99.89,102.438z M120.535,100.082v-3.224
				h-3.844c-5.704,0-9.361,1.302-9.361,5.27c0,2.729,1.488,4.526,5.208,4.526C117.125,106.654,120.535,104.236,120.535,100.082z"/>
			<path style="fill:#FFFFFF;" d="M136.655,79.004h7.501v5.146c1.55-3.162,5.146-5.828,10.478-5.828
				c6.509,0,11.097,3.782,11.097,12.71v20.396h-7.501V91.713c0-4.897-1.984-7.13-6.448-7.13c-4.216,0-7.625,2.604-7.625,7.75v19.095
				h-7.501V79.004z"/>
			<path style="fill:#FFFFFF;" d="M174.351,79.004h7.501v5.146c1.55-3.162,5.146-5.828,10.478-5.828
				c6.509,0,11.097,3.782,11.097,12.71v20.396h-7.501V91.713c0-4.897-1.984-7.13-6.448-7.13c-4.216,0-7.625,2.604-7.625,7.75v19.095
				h-7.501V79.004z"/>
			<path style="fill:#FFFFFF;" d="M209.876,95.557v-0.496c0-10.043,6.881-16.739,16.119-16.739c8.06,0,15.313,4.774,15.313,16.367
				v2.17h-23.745c0.248,6.138,3.348,9.609,8.927,9.609c4.526,0,6.882-1.798,7.44-4.96h7.253c-1.054,6.82-6.572,10.54-14.879,10.54
				C216.757,112.048,209.876,105.786,209.876,95.557z M233.869,91.837c-0.372-5.58-3.224-8.06-7.874-8.06
				c-4.526,0-7.563,3.038-8.308,8.06H233.869z"/>
			<path style="fill:#FFFFFF;" d="M248.005,79.004h7.501v6.075c2.046-4.092,5.083-6.51,10.54-6.571v7.006
				c-6.572,0.062-10.54,2.169-10.54,9.051v16.863h-7.501V79.004z"/>
		</g>
		<g style="clip-path:url(#SVGID_00000148639023262785417740000004372777431999423163_);">
			<g>
				<polygon style="fill:#1D418E;" points="980.14,431.588 928.805,380.254 928.805,390.382 980.14,441.717 				"/>
				<path style="fill:#1D418E;" d="M928.805,474.98l45.52,45.52h1.023c2.498,0,4.526-1.918,4.748-4.358l-51.291-51.291V474.98z"/>
				<polygon style="fill:#1D418E;" points="928.805,503.179 946.126,520.5 956.254,520.5 928.805,493.05 				"/>
				<polygon style="fill:#1D418E;" points="980.14,459.788 928.805,408.453 928.805,418.582 980.14,469.916 				"/>
				<polygon style="fill:#1D418E;" points="980.14,487.987 928.805,436.652 928.805,446.781 980.14,498.115 				"/>
				<polygon style="fill:#1D418E;" points="980.14,346.991 928.805,295.656 928.805,305.785 980.14,357.12 				"/>
				<polygon style="fill:#1D418E;" points="980.14,177.795 968.582,166.237 964.107,171.891 980.14,187.924 				"/>
				<polygon style="fill:#1D418E;" points="980.14,234.194 943.662,197.716 939.187,203.37 980.14,244.322 				"/>
				<polygon style="fill:#1D418E;" points="980.14,290.592 928.805,239.257 928.805,249.386 980.14,300.721 				"/>
				<path style="fill:#1D418E;" d="M980.14,262.393l-48.937-48.937l-1.363,1.722c-0.67,0.847-1.035,1.895-1.035,2.974v3.035
					l51.335,51.335V262.393z"/>
				<polygon style="fill:#1D418E;" points="980.14,318.791 928.805,267.457 928.805,277.585 980.14,328.92 				"/>
				<polygon style="fill:#1D418E;" points="980.14,205.995 956.122,181.977 951.647,187.63 980.14,216.123 				"/>
				<polygon style="fill:#1D418E;" points="980.14,413.518 980.14,403.389 928.805,352.054 928.805,362.183 				"/>
				<polygon style="fill:#1D418E;" points="980.14,385.319 980.14,375.19 928.805,323.855 928.805,333.984 				"/>
				<polygon style="fill:#327FEF;" points="980.14,187.924 964.107,171.891 956.122,181.977 980.14,205.995 				"/>
				<path style="fill:#327FEF;" d="M980.14,165.41c0-4.542-5.73-6.535-8.549-2.974l-3.009,3.801l11.558,11.558V165.41z"/>
				<polygon style="fill:#327FEF;" points="980.14,300.721 928.805,249.386 928.805,267.457 980.14,318.791 				"/>
				<polygon style="fill:#327FEF;" points="980.14,357.12 928.805,305.785 928.805,323.855 980.14,375.19 				"/>
				<polygon style="fill:#327FEF;" points="980.14,413.518 928.805,362.183 928.805,380.254 980.14,431.588 				"/>
				<polygon style="fill:#327FEF;" points="980.14,441.717 928.805,390.382 928.805,408.453 980.14,459.788 				"/>
				<polygon style="fill:#327FEF;" points="980.14,403.389 980.14,385.319 928.805,333.984 928.805,352.054 				"/>
				<polygon style="fill:#327FEF;" points="980.14,328.92 928.805,277.585 928.805,295.656 980.14,346.991 				"/>
				<polygon style="fill:#327FEF;" points="980.14,272.522 928.805,221.187 928.805,239.257 980.14,290.592 				"/>
				<path style="fill:#327FEF;" d="M928.805,515.708c0,2.646,2.145,4.792,4.792,4.792h12.529l-17.321-17.321V515.708z"/>
				<polygon style="fill:#327FEF;" points="928.805,493.05 956.254,520.5 974.325,520.5 928.805,474.98 				"/>
				<polygon style="fill:#327FEF;" points="980.14,216.123 951.647,187.63 943.662,197.716 980.14,234.194 				"/>
				<polygon style="fill:#327FEF;" points="980.14,244.322 939.187,203.37 931.202,213.456 980.14,262.393 				"/>
				<polygon style="fill:#327FEF;" points="980.14,469.916 928.805,418.582 928.805,436.652 980.14,487.987 				"/>
				<path style="fill:#327FEF;" d="M928.805,446.781v18.071l51.291,51.291c0.013-0.145,0.044-0.285,0.044-0.434v-17.593
					L928.805,446.781z"/>
			</g>
			<path style="fill:#7F35B2;" d="M979.109,70.239L804.272,291.716c-1.917,2.428-5.598,2.431-7.518,0.005l-116.01-146.565
				c-2.819-3.561-8.549-1.568-8.549,2.974v367.578c0,2.646-2.145,4.792-4.792,4.792h-41.751c-2.646,0-4.792-2.145-4.792-4.792
				V65.292c0-2.646,2.145-4.792,4.792-4.792h51.221c1.464,0,2.848,0.67,3.757,1.818l116.129,146.705
				c1.919,2.424,5.596,2.424,7.514,0L920.37,62.318c0.909-1.148,2.293-1.818,3.757-1.818h51.22c2.646,0,4.792,2.145,4.792,4.792
				v1.978C980.14,68.347,979.776,69.393,979.109,70.239z"/>
		</g>
		<g style="clip-path:url(#SVGID_00000148639023262785417740000004372777431999423163_);">
			<g>
				<defs>
					<rect id="SVGID_00000163053217077675847630000015294152298793486989_" x="62" y="405" width="155" height="50"/>
				</defs>
				<clipPath id="SVGID_00000013894524333381351410000004808966443797968042_">
					<use xlink:href="#SVGID_00000163053217077675847630000015294152298793486989_"  style="overflow:visible;"/>
				</clipPath>
				<g style="clip-path:url(#SVGID_00000013894524333381351410000004808966443797968042_);">
					<defs>
						<rect id="SVGID_00000108282973280366139610000013104206440577438349_" x="62" y="405" width="155" height="50"/>
					</defs>
					<clipPath id="SVGID_00000158018138126912949260000013743569724741230517_">
						<use xlink:href="#SVGID_00000108282973280366139610000013104206440577438349_"  style="overflow:visible;"/>
					</clipPath>
					<path style="clip-path:url(#SVGID_00000158018138126912949260000013743569724741230517_);fill:#FFFFFF;" d="M217,414.83
						l-15.2,39.27H189l-6.4-21.93l-6.45,21.93h-12.79l-11.24-29.29h-7V438c0,6.19,2.5,7.21,5.92,7.21
						c0.906-0.018,1.808-0.132,2.69-0.34l3.5,9.12c-2.726,0.668-5.523,1.004-8.33,1c-11.72,0-16.72-4.79-16.72-16v-14.18h-5.34
						l-11.33,29.29h-12.8l-6.39-21.93l-6.47,21.93H77.06L62,414.83h14.51l7.57,23.73l7.22-23.73h10l7.29,23.73l7.53-23.73h16.06
						v-7.06l12.94-2.77v9.83h17.69l7.56,23.73l7.22-23.73h10l7.29,23.73l7.5-23.73H217z"/>
				</g>
			</g>
		</g>
	</g>
</g>
</svg>
