<?xml version="1.0" encoding="iso-8859-1"?>
<!-- Generator: Adobe Illustrator 27.5.0, SVG Export Plug-In . SVG Version: 6.00 Build 0)  -->
<svg version="1.1" id="Layer_1" xmlns="http://www.w3.org/2000/svg" xmlns:xlink="http://www.w3.org/1999/xlink" x="0px" y="0px"
	 viewBox="0 0 1124.78 256" style="enable-background:new 0 0 1124.78 256;" xml:space="preserve">
<g>
	<path d="M279.04,157.055V96.811h15.107v59.516c0,16.745,7.098,24.207,22.022,24.207c13.469,0,26.209-8.918,26.209-26.026V96.811
		h15.106V192h-15.106v-15.106c-4.368,8.918-14.924,16.744-30.213,16.744C293.237,193.638,279.04,183.264,279.04,157.055z"/>
	<path d="M388.057,96.811h15.106v15.106c4.368-8.918,14.925-16.745,30.577-16.745c19.657,0,33.489,10.739,33.489,38.404V192h-15.106
		v-59.517c0-16.744-7.098-24.206-22.387-24.206c-14.015,0-26.573,8.918-26.573,26.026V192h-15.106V96.811z"/>
	<path d="M489.793,146.316v-1.456c0-29.121,18.201-49.688,44.41-49.688c15.834,0,25.663,7.645,31.123,16.927v-60.79h15.107V192
		h-15.107v-16.381c-5.46,9.282-18.747,18.019-32.579,18.019C507.812,193.638,489.793,175.983,489.793,146.316z M565.872,145.042
		v-1.456c0-24.389-11.648-35.855-30.213-35.855c-18.929,0-30.213,13.287-30.213,36.401v1.456c0,24.025,12.923,35.492,28.939,35.492
		C552.039,181.08,565.872,169.432,565.872,145.042z"/>
	<path d="M603.908,145.406v-1.456c0-28.757,18.383-48.778,44.592-48.778c22.022,0,42.771,13.287,42.771,47.322v4.914H619.56
		c0.729,21.659,11.103,33.672,30.577,33.672c14.743,0,23.297-5.461,25.299-16.563h15.106c-3.275,19.111-19.11,29.121-40.587,29.121
		C623.018,193.638,603.908,174.709,603.908,145.406z M675.8,135.214c-1.456-19.657-11.648-27.483-27.301-27.483
		c-15.471,0-25.846,10.557-28.394,27.483H675.8z"/>
	<path d="M717.656,109.551h-13.65v-12.74h13.65V81.34c0-19.293,9.282-30.577,28.029-30.577c4.914,0,7.462,0.364,10.374,1.456v12.74
		c-2.729-1.092-5.642-1.638-9.828-1.638c-9.646,0-13.469,6.734-13.469,16.381v17.108h23.297v12.74h-23.297V192h-15.106V109.551z"/>
	<path d="M772.255,66.961c0-5.46,4.55-10.01,10.01-10.01c5.461,0,10.011,4.55,10.011,10.01c0,5.461-4.55,10.011-10.011,10.011
		C776.805,76.972,772.255,72.422,772.255,66.961z M774.985,96.811h15.106V192h-15.106V96.811z"/>
	<path d="M821.029,96.811h15.107v15.106c4.368-8.918,14.924-16.745,30.577-16.745c19.656,0,33.489,10.739,33.489,38.404V192h-15.107
		v-59.517c0-16.744-7.098-24.206-22.387-24.206c-14.014,0-26.572,8.918-26.572,26.026V192h-15.107V96.811z"/>
	<path d="M922.765,145.406v-1.456c0-28.757,18.383-48.778,44.592-48.778c22.022,0,42.771,13.287,42.771,47.322v4.914h-71.711
		c0.729,21.659,11.103,33.672,30.577,33.672c14.743,0,23.297-5.461,25.299-16.563h15.106c-3.275,19.111-19.11,29.121-40.587,29.121
		C941.875,193.638,922.765,174.709,922.765,145.406z M994.658,135.214c-1.456-19.657-11.648-27.483-27.301-27.483
		c-15.471,0-25.846,10.557-28.394,27.483H994.658z"/>
	<path d="M1026.14,146.316v-1.456c0-29.121,18.2-49.688,44.409-49.688c15.835,0,25.663,7.645,31.124,16.927v-60.79h15.106V192
		h-15.106v-16.381c-5.461,9.282-18.747,18.019-32.58,18.019C1044.159,193.638,1026.14,175.983,1026.14,146.316z M1102.219,145.042
		v-1.456c0-24.389-11.648-35.855-30.214-35.855c-18.929,0-30.213,13.287-30.213,36.401v1.456c0,24.025,12.923,35.492,28.939,35.492
		C1088.386,181.08,1102.219,169.432,1102.219,145.042z"/>
</g>
<g id="ask_x5F_benix_x5F_core">
	<path d="M215.04,18.56V1.92c0-1.06-0.86-1.92-1.92-1.92H63.36c-1.06,0-1.92,0.86-1.92,1.92v149.76c0,1.06,0.86,1.92,1.92,1.92
		h82.635c0.509,0,0.998,0.202,1.358,0.562l39.835,39.835c0.36,0.36,0.848,0.562,1.358,0.562h24.574c1.06,0,1.92-0.86,1.92-1.92
		V42.88c0-1.06-0.86-1.92-1.92-1.92h-16.64c-1.06,0-1.92,0.86-1.92,1.92v124.875c0,1.711-2.068,2.567-3.278,1.358l-35.43-35.43
		c-0.36-0.36-0.848-0.562-1.358-0.562H83.84c-1.06,0-1.92-0.86-1.92-1.92V22.4c0-1.06,0.86-1.92,1.92-1.92h129.28
		C214.18,20.48,215.04,19.62,215.04,18.56z"/>
	<path d="M146.56,194.56H60.546c-0.509,0-0.998,0.202-1.358,0.562l-35.43,35.43c-1.21,1.21-3.278,0.353-3.278-1.358V68.48
		c0-1.06-0.86-1.92-1.92-1.92H1.92C0.86,66.56,0,67.42,0,68.48v185.6c0,1.06,0.86,1.92,1.92,1.92h24.574
		c0.509,0,0.998-0.202,1.358-0.562l39.835-39.835c0.36-0.36,0.848-0.562,1.358-0.562h77.515c1.06,0,1.92-0.86,1.92-1.92v-16.64
		C148.48,195.42,147.62,194.56,146.56,194.56z"/>
	<path d="M146.98,87.04H129.5c-0.828,0-1.5-0.672-1.5-1.5V68.06c0-0.828,0.672-1.5,1.5-1.5h17.48c0.828,0,1.5,0.672,1.5,1.5v17.48
		C148.48,86.368,147.808,87.04,146.98,87.04z"/>
</g>
</svg>
