<?xml version="1.0" encoding="iso-8859-1"?>
<!-- Generator: Adobe Illustrator 27.5.0, SVG Export Plug-In . SVG Version: 6.00 Build 0)  -->
<svg version="1.1" id="Layer_1" xmlns="http://www.w3.org/2000/svg" xmlns:xlink="http://www.w3.org/1999/xlink" x="0px" y="0px"
	 viewBox="0 0 256 256" style="enable-background:new 0 0 256 256;" xml:space="preserve">
<g id="benefits_x5F_broker_x5F_core">
	<path style="fill:#FFFFFF;" d="M156,57.5v141c0,0.828-0.672,1.5-1.5,1.5h-13c-0.828,0-1.5-0.672-1.5-1.5v-141
		c0-0.828,0.672-1.5,1.5-1.5h13C155.328,56,156,56.672,156,57.5z"/>
	<path style="fill:#FFFFFF;" d="M111.88,128l-11.219-11.219c-0.586-0.586-0.586-1.536,0-2.121l6.9-6.9
		c0.281-0.281,0.439-0.663,0.439-1.061V92V76.741c0-0.398-0.158-0.779-0.439-1.061L103.88,72L88.319,56.439
		C88.038,56.158,87.657,56,87.259,56H65.25H25.5c-0.828,0-1.5,0.672-1.5,1.5V68v4v36v16v42.5c0,0.828,0.672,1.5,1.5,1.5h13
		c0.828,0,1.5-0.672,1.5-1.5v-41c0-0.828,0.672-1.5,1.5-1.5h27.19h15.939c0.398,0,0.779,0.158,1.061,0.439l2.591,2.591
		l15.281,15.281c0.281,0.281,0.439,0.663,0.439,1.061v20.688c0,0.398-0.158,0.779-0.439,1.06L85.129,183.56
		c-0.281,0.281-0.663,0.44-1.061,0.44H25.5c-0.828,0-1.5,0.672-1.5,1.5v13c0,0.828,0.672,1.5,1.5,1.5h57.81h7.379
		c0.398,0,0.779-0.158,1.061-0.439L100,191.31l7.31-7.31l12.25-12.241c0.282-0.281,0.44-0.663,0.44-1.061V152v-6.74v-8.519
		c0-0.398-0.158-0.779-0.439-1.061L111.88,128z M85.119,107.561c-0.281,0.281-0.663,0.439-1.061,0.439H69.25H41.5
		c-0.828,0-1.5-0.672-1.5-1.5v-33c0-0.828,0.672-1.5,1.5-1.5h39.129c0.398,0,0.779,0.158,1.06,0.439l9.871,9.862
		c0.282,0.281,0.44,0.663,0.44,1.061v16.697c0,0.398-0.158,0.779-0.439,1.061L88.28,104.4L85.119,107.561z"/>
	<path style="fill:#FFFFFF;" d="M223.88,128l-11.219-11.219c-0.586-0.586-0.586-1.536,0-2.121l6.9-6.9
		c0.281-0.281,0.439-0.663,0.439-1.061V92V76.741c0-0.398-0.158-0.779-0.439-1.061L215.88,72l-15.561-15.561
		c-0.281-0.281-0.663-0.439-1.061-0.439H177.25h-3.75c-0.828,0-1.5,0.672-1.5,1.5v13c0,0.828,0.672,1.5,1.5,1.5h19.129
		c0.398,0,0.779,0.158,1.06,0.439l9.871,9.862c0.282,0.281,0.44,0.663,0.44,1.061v16.697c0,0.398-0.158,0.779-0.439,1.061
		l-3.281,3.281l-3.161,3.161c-0.281,0.281-0.663,0.439-1.061,0.439H181.25h-7.75c-0.828,0-1.5,0.672-1.5,1.5v13
		c0,0.828,0.672,1.5,1.5,1.5h7.19h15.939c0.398,0,0.779,0.158,1.061,0.439l2.591,2.591l15.281,15.281
		c0.281,0.281,0.439,0.663,0.439,1.061v20.688c0,0.398-0.158,0.779-0.439,1.06l-18.432,18.441c-0.281,0.281-0.663,0.44-1.061,0.44
		H173.5c-0.828,0-1.5,0.672-1.5,1.5v13c0,0.828,0.672,1.5,1.5,1.5h21.81h7.379c0.398,0,0.779-0.158,1.061-0.439L212,191.31
		l7.31-7.31l12.25-12.241c0.282-0.281,0.44-0.663,0.44-1.061V152v-6.74v-8.519c0-0.398-0.158-0.779-0.439-1.061L223.88,128z"/>
</g>
</svg>
