<?xml version="1.0" encoding="iso-8859-1"?>
<!-- Generator: Adobe Illustrator 27.5.0, SVG Export Plug-In . SVG Version: 6.00 Build 0)  -->
<svg version="1.1" id="Layer_1" xmlns="http://www.w3.org/2000/svg" xmlns:xlink="http://www.w3.org/1999/xlink" x="0px" y="0px"
	 viewBox="0 0 256 256" style="enable-background:new 0 0 256 256;" xml:space="preserve">
<g id="aa_x5F_incomecalc_x5F_core_00000148648284358269417210000016391387678638884792_">
	<path style="fill:#7F35B2;" d="M211.179,76.8l-8.533-8.533l-16.598-16.598c-0.3-0.3-0.707-0.469-1.131-0.469H171.36h-9.92h-13.556
		c-0.424,0-0.831,0.169-1.131,0.469l-16.598,16.598l-8.533,8.533l-1.686,1.686c-0.3,0.3-0.469,0.707-0.469,1.131v23.476V203.2
		c0,0.884,0.716,1.6,1.6,1.6h13.867c0.884,0,1.6-0.716,1.6-1.6V86.689c0-0.424,0.169-0.831,0.469-1.131l16.823-16.823
		c0.3-0.3,0.707-0.469,1.131-0.469h22.888c0.424,0,0.831,0.169,1.131,0.469l16.823,16.823c0.3,0.3,0.469,0.707,0.469,1.131v31.177
		c0,0.884-0.716,1.6-1.6,1.6h-35.2c-0.884,0-1.6,0.716-1.6,1.6v13.867c0,0.884,0.716,1.6,1.6,1.6h35.2c0.884,0,1.6,0.716,1.6,1.6
		V203.2c0,0.884,0.716,1.6,1.6,1.6h13.867c0.884,0,1.6-0.716,1.6-1.6V103.093V79.617c0-0.424-0.169-0.831-0.469-1.131L211.179,76.8z
		"/>
	<path style="fill:#7F35B2;" d="M91.712,76.8l-8.533-8.533L66.581,51.669c-0.3-0.3-0.707-0.469-1.131-0.469H51.893h-9.92H28.417
		c-0.424,0-0.831,0.169-1.131,0.469L10.688,68.267L2.155,76.8l-1.686,1.686C0.169,78.786,0,79.193,0,79.617v23.476V203.2
		c0,0.884,0.716,1.6,1.6,1.6h13.867c0.884,0,1.6-0.716,1.6-1.6V86.689c0-0.424,0.169-0.831,0.469-1.131l16.823-16.823
		c0.3-0.3,0.707-0.469,1.131-0.469h22.888c0.424,0,0.831,0.169,1.131,0.469l16.823,16.823c0.3,0.3,0.469,0.707,0.469,1.131v31.177
		c0,0.884-0.716,1.6-1.6,1.6H40c-0.884,0-1.6,0.716-1.6,1.6v13.867c0,0.884,0.716,1.6,1.6,1.6h35.2c0.884,0,1.6,0.716,1.6,1.6V203.2
		c0,0.884,0.716,1.6,1.6,1.6h13.867c0.884,0,1.6-0.716,1.6-1.6V103.093V79.617c0-0.424-0.169-0.831-0.469-1.131L91.712,76.8z"/>
	<path style="fill:#7F35B2;" d="M238.933,203.3v-82.333c0-0.828,0.672-1.5,1.5-1.5H254.5c0.828,0,1.5,0.672,1.5,1.5V203.3
		c0,0.828-0.672,1.5-1.5,1.5h-14.067C239.605,204.8,238.933,204.128,238.933,203.3z"/>
	<g>
		<polygon style="fill:#339781;" points="256,88.961 246.827,98.133 250.21,98.133 256,92.343 		"/>
		<path style="fill:#339781;" d="M256,82.667c0-0.859-0.679-1.555-1.529-1.593l-15.53,15.53c0.038,0.85,0.733,1.529,1.593,1.529
			h0.26L256,82.927V82.667z"/>
		<polygon style="fill:#339781;" points="245.062,81.067 238.933,87.195 238.933,90.577 248.444,81.067 		"/>
		<path style="fill:#3ADCC9;" d="M240.533,81.067c-0.884,0-1.6,0.716-1.6,1.6v4.529l6.129-6.129H240.533z"/>
		<path style="fill:#3ADCC9;" d="M250.21,98.133h4.19c0.884,0,1.6-0.716,1.6-1.6v-4.19L250.21,98.133z"/>
		<polygon style="fill:#3ADCC9;" points="256,82.927 240.793,98.133 246.827,98.133 256,88.961 		"/>
		<path style="fill:#3ADCC9;" d="M254.4,81.067h-5.956l-9.511,9.511v5.956c0,0.024,0.006,0.047,0.007,0.071l15.53-15.53
			C254.447,81.073,254.424,81.067,254.4,81.067z"/>
	</g>
</g>
</svg>
