<?xml version="1.0" encoding="iso-8859-1"?>
<!-- Generator: Adobe Illustrator 27.5.0, SVG Export Plug-In . SVG Version: 6.00 Build 0)  -->
<svg version="1.1" id="Layer_1" xmlns="http://www.w3.org/2000/svg" xmlns:xlink="http://www.w3.org/1999/xlink" x="0px" y="0px"
	 viewBox="0 0 256 256" style="enable-background:new 0 0 256 256;" xml:space="preserve">
<g id="benefits_x5F_broker_x5F_core_00000078040485793909159430000016015236746978608554_">
	<g>
		<polygon style="fill:#339781;" points="142.769,156.158 162.462,136.466 162.462,132.563 142.769,152.256 		"/>
		<polygon style="fill:#339781;" points="142.769,69.24 162.462,49.548 162.462,45.646 142.769,65.338 		"/>
		<path style="fill:#339781;" d="M142.769,58.376l18.747-18.747c-0.268-0.151-0.572-0.244-0.901-0.244h-2.758l-15.089,15.089V58.376
			z"/>
		<polygon style="fill:#339781;" points="142.769,167.023 162.462,147.331 162.462,143.428 142.769,163.12 		"/>
		<polygon style="fill:#339781;" points="142.769,80.105 162.462,60.413 162.462,56.51 142.769,76.203 		"/>
		<polygon style="fill:#339781;" points="142.769,112.699 162.462,93.007 162.462,89.104 142.769,108.797 		"/>
		<polygon style="fill:#339781;" points="142.769,145.293 162.462,125.601 162.462,121.699 142.769,141.391 		"/>
		<polygon style="fill:#339781;" points="142.769,177.887 162.462,158.195 162.462,154.293 142.769,173.985 		"/>
		<polygon style="fill:#339781;" points="142.769,123.564 162.462,103.872 162.462,99.969 142.769,119.662 		"/>
		<polygon style="fill:#339781;" points="142.769,90.97 162.462,71.277 162.462,67.375 142.769,87.067 		"/>
		<polygon style="fill:#339781;" points="142.769,134.429 162.462,114.736 162.462,110.834 142.769,130.526 		"/>
		<polygon style="fill:#339781;" points="142.769,188.752 162.462,169.06 162.462,165.158 142.769,184.85 		"/>
		<path style="fill:#339781;" d="M144.615,216.615h2.885l14.961-14.961v-3.902l-18.665,18.665
			C144.045,216.54,144.32,216.615,144.615,216.615z"/>
		<polygon style="fill:#339781;" points="142.769,210.482 162.462,190.789 162.462,186.887 142.769,206.579 		"/>
		<polygon style="fill:#339781;" points="158.365,216.615 162.462,212.519 162.462,208.616 154.463,216.615 		"/>
		<polygon style="fill:#339781;" points="142.769,101.835 162.462,82.142 162.462,78.24 142.769,97.932 		"/>
		<polygon style="fill:#339781;" points="142.769,199.617 162.462,179.925 162.462,176.022 142.769,195.715 		"/>
		<polygon style="fill:#339781;" points="146.993,39.385 142.769,43.608 142.769,47.511 150.896,39.385 		"/>
		<polygon style="fill:#3ADCC9;" points="142.769,119.662 162.462,99.969 162.462,93.007 142.769,112.699 		"/>
		<polygon style="fill:#3ADCC9;" points="142.769,130.526 162.462,110.834 162.462,103.872 142.769,123.564 		"/>
		<polygon style="fill:#3ADCC9;" points="142.769,108.797 162.462,89.104 162.462,82.142 142.769,101.835 		"/>
		<polygon style="fill:#3ADCC9;" points="142.769,141.391 162.462,121.699 162.462,114.736 142.769,134.429 		"/>
		<polygon style="fill:#3ADCC9;" points="142.769,152.256 162.462,132.563 162.462,125.601 142.769,145.293 		"/>
		<path style="fill:#3ADCC9;" d="M142.769,65.338l19.692-19.692v-4.415c0-0.691-0.384-1.286-0.945-1.602l-18.747,18.747V65.338z"/>
		<polygon style="fill:#3ADCC9;" points="142.769,47.511 142.769,54.473 157.858,39.385 150.896,39.385 		"/>
		<path style="fill:#3ADCC9;" d="M144.615,39.385c-1.02,0-1.846,0.827-1.846,1.846v2.378l4.224-4.224H144.615z"/>
		<polygon style="fill:#3ADCC9;" points="142.769,76.203 162.462,56.51 162.462,49.548 142.769,69.24 		"/>
		<polygon style="fill:#3ADCC9;" points="142.769,87.067 162.462,67.375 162.462,60.413 142.769,80.105 		"/>
		<polygon style="fill:#3ADCC9;" points="142.769,173.985 162.462,154.293 162.462,147.331 142.769,167.023 		"/>
		<polygon style="fill:#3ADCC9;" points="142.769,97.932 162.462,78.24 162.462,71.277 142.769,90.97 		"/>
		<polygon style="fill:#3ADCC9;" points="142.769,163.12 162.462,143.428 162.462,136.466 142.769,156.158 		"/>
		<polygon style="fill:#3ADCC9;" points="142.769,195.715 162.462,176.022 162.462,169.06 142.769,188.752 		"/>
		<polygon style="fill:#3ADCC9;" points="142.769,184.85 162.462,165.158 162.462,158.195 142.769,177.887 		"/>
		<polygon style="fill:#3ADCC9;" points="142.769,206.579 162.462,186.887 162.462,179.925 142.769,199.617 		"/>
		<path style="fill:#3ADCC9;" d="M160.615,216.615c1.02,0,1.846-0.827,1.846-1.846v-2.25l-4.096,4.096H160.615z"/>
		<polygon style="fill:#3ADCC9;" points="154.463,216.615 162.462,208.616 162.462,201.654 147.5,216.615 		"/>
		<path style="fill:#3ADCC9;" d="M142.769,214.769c0,0.724,0.421,1.345,1.028,1.647l18.665-18.665v-6.962l-19.692,19.692V214.769z"
			/>
	</g>
	<path style="fill:#FFFFFF;" d="M108.16,128l-13.808-13.808c-0.721-0.721-0.721-1.89,0-2.611l8.492-8.492
		c0.346-0.346,0.541-0.816,0.541-1.305V83.692v-18.78c0-0.49-0.195-0.959-0.541-1.305l-4.53-4.53L79.162,39.925
		c-0.346-0.346-0.816-0.541-1.305-0.541H50.769H1.846C0.827,39.385,0,40.211,0,41.231v12.923v4.923v44.308v19.692v52.308
		c0,1.02,0.827,1.846,1.846,1.846h16c1.02,0,1.846-0.827,1.846-1.846v-50.462c0-1.02,0.827-1.846,1.846-1.846h33.465H74.62
		c0.49,0,0.959,0.195,1.305,0.541l3.189,3.188l18.807,18.807c0.346,0.346,0.541,0.816,0.541,1.305v25.462
		c0,0.489-0.194,0.959-0.54,1.305l-22.685,22.697c-0.346,0.346-0.816,0.541-1.306,0.541H1.846c-1.02,0-1.846,0.827-1.846,1.846v16
		c0,1.02,0.827,1.846,1.846,1.846h71.151h9.081c0.49,0,0.959-0.195,1.305-0.541l10.155-10.155l8.997-8.997l15.077-15.065
		c0.347-0.346,0.541-0.816,0.541-1.306v-23.013v-8.295v-10.485c0-0.49-0.195-0.959-0.541-1.305L108.16,128z M75.224,102.844
		c-0.346,0.346-0.816,0.541-1.305,0.541H55.692H21.538c-1.02,0-1.846-0.827-1.846-1.846V60.923c0-1.02,0.827-1.846,1.846-1.846
		h48.159c0.489,0,0.959,0.194,1.305,0.54l12.149,12.137c0.347,0.346,0.541,0.816,0.541,1.306v20.55c0,0.49-0.195,0.959-0.541,1.305
		l-4.038,4.038L75.224,102.844z"/>
	<path style="fill:#FFFFFF;" d="M246.006,128l-13.808-13.808c-0.721-0.721-0.721-1.89,0-2.611l8.492-8.492
		c0.346-0.346,0.541-0.816,0.541-1.305V83.692v-18.78c0-0.49-0.195-0.959-0.541-1.305l-4.53-4.53l-19.152-19.152
		c-0.346-0.346-0.816-0.541-1.305-0.541h-27.088H184c-1.02,0-1.846,0.827-1.846,1.846v16c0,1.02,0.827,1.846,1.846,1.846h23.543
		c0.489,0,0.959,0.194,1.305,0.54l12.149,12.137c0.347,0.346,0.541,0.816,0.541,1.306v20.55c0,0.49-0.195,0.959-0.541,1.305
		l-4.038,4.038l-3.89,3.89c-0.346,0.346-0.816,0.541-1.305,0.541h-18.226H184c-1.02,0-1.846,0.827-1.846,1.846v16
		c0,1.02,0.827,1.846,1.846,1.846h8.849h19.617c0.49,0,0.959,0.195,1.305,0.541l3.189,3.188l18.807,18.807
		c0.346,0.346,0.541,0.816,0.541,1.305v25.462c0,0.489-0.194,0.959-0.54,1.305l-22.685,22.697c-0.346,0.346-0.816,0.541-1.306,0.541
		H184c-1.02,0-1.846,0.827-1.846,1.846v16c0,1.02,0.827,1.846,1.846,1.846h26.843h9.081c0.49,0,0.959-0.195,1.305-0.541
		l10.155-10.155l8.997-8.997l15.077-15.065c0.347-0.346,0.541-0.816,0.541-1.306v-23.013v-8.295v-10.485
		c0-0.49-0.195-0.959-0.541-1.305L246.006,128z"/>
</g>
</svg>
