<?xml version="1.0" encoding="iso-8859-1"?>
<!-- Generator: Adobe Illustrator 27.5.0, SVG Export Plug-In . SVG Version: 6.00 Build 0)  -->
<svg version="1.1" id="Layer_1" xmlns="http://www.w3.org/2000/svg" xmlns:xlink="http://www.w3.org/1999/xlink" x="0px" y="0px"
	 viewBox="0 0 1138.938 256" style="enable-background:new 0 0 1138.938 256;" xml:space="preserve">
<g>
	<path d="M345.572,134.699h18.617l25.25,76.501h-14.765l-6.099-18.938h-29.209l-5.992,18.938H320L345.572,134.699z M342.683,181.884
		h22.576l-11.234-35.522L342.683,181.884z"/>
	<path d="M400.035,155.242h12.946v8.987c3.103-5.35,10.058-10.164,18.296-10.164c14.016,0,24.822,10.378,24.822,28.46v0.856
		c0,17.975-10.378,28.889-24.822,28.889c-8.881,0-15.3-4.387-18.296-9.844v27.926h-12.946V155.242z M442.833,183.596v-0.856
		c0-12.411-6.419-18.51-14.872-18.51c-8.988,0-15.407,6.099-15.407,18.51v0.856c0,12.519,6.099,18.403,15.514,18.403
		C437.59,201.999,442.833,195.579,442.833,183.596z"/>
	<path d="M467.765,155.242h12.946v8.987c3.103-5.35,10.058-10.164,18.296-10.164c14.016,0,24.822,10.378,24.822,28.46v0.856
		c0,17.975-10.378,28.889-24.822,28.889c-8.881,0-15.3-4.387-18.296-9.844v27.926h-12.946V155.242z M510.563,183.596v-0.856
		c0-12.411-6.419-18.51-14.872-18.51c-8.988,0-15.407,6.099-15.407,18.51v0.856c0,12.519,6.099,18.403,15.514,18.403
		C505.32,201.999,510.563,195.579,510.563,183.596z"/>
	<path d="M560.961,155.242h12.946v8.88c2.675-5.456,8.881-10.057,18.082-10.057c11.234,0,19.152,6.526,19.152,21.934V211.2h-12.946
		v-34.024c0-8.452-3.424-12.305-11.128-12.305c-7.275,0-13.16,4.494-13.16,13.375V211.2h-12.946V155.242z"/>
	<path d="M621.949,195.686c0-13.053,12.625-17.761,28.675-17.761h6.954v-2.889c0-7.49-2.567-11.234-10.164-11.234
		c-6.74,0-10.058,3.21-10.699,8.773h-12.519c1.07-13.054,11.448-18.51,23.967-18.51s22.362,5.136,22.362,20.436V211.2h-12.732
		v-6.848c-3.639,4.814-8.56,7.918-17.119,7.918C630.402,212.271,621.949,207.349,621.949,195.686z M657.578,191.62v-5.563h-6.633
		c-9.844,0-16.156,2.247-16.156,9.095c0,4.707,2.567,7.811,8.987,7.811C651.693,202.962,657.578,198.789,657.578,191.62z"/>
	<path d="M685.4,155.242h12.946v8.56c2.675-5.243,8.773-9.736,17.012-9.736c7.275,0,13.054,3.103,15.835,10.057
		c4.28-6.954,11.983-10.057,18.938-10.057c10.271,0,18.617,6.312,18.617,21.72V211.2h-12.946v-34.56
		c0-8.238-3.531-11.77-9.951-11.77c-6.419,0-12.304,4.28-12.304,12.84V211.2h-12.946v-34.56c0-8.238-3.639-11.77-9.951-11.77
		c-6.42,0-12.304,4.28-12.304,12.84V211.2H685.4V155.242z"/>
	<path d="M779.881,183.81v-0.855c0-17.334,11.876-28.889,27.818-28.889c13.909,0,26.428,8.238,26.428,28.246v3.745h-40.979
		c0.428,10.593,5.777,16.584,15.407,16.584c7.811,0,11.876-3.103,12.839-8.56h12.519c-1.819,11.77-11.342,18.189-25.679,18.189
		C791.757,212.271,779.881,201.464,779.881,183.81z M821.287,177.39c-0.642-9.629-5.563-13.909-13.588-13.909
		c-7.811,0-13.054,5.243-14.337,13.909H821.287z"/>
	<path d="M871.47,129.35h12.946V211.2H871.47V129.35z"/>
	<path d="M899.076,138.658c0-4.28,3.424-7.49,7.703-7.49c4.28,0,7.704,3.21,7.704,7.49c0,4.173-3.424,7.382-7.704,7.382
		C902.5,146.04,899.076,142.831,899.076,138.658z M900.467,155.242h12.946V211.2h-12.946V155.242z"/>
	<path d="M929.143,155.242h12.946v8.88c2.675-5.456,8.88-10.057,18.082-10.057c11.234,0,19.151,6.526,19.151,21.934V211.2h-12.946
		v-34.024c0-8.452-3.424-12.305-11.127-12.305c-7.276,0-13.16,4.494-13.16,13.375V211.2h-12.946V155.242z"/>
	<path d="M990.452,183.81v-0.855c0-17.334,11.876-28.889,27.818-28.889c13.909,0,26.428,8.238,26.428,28.246v3.745h-40.979
		c0.428,10.593,5.777,16.584,15.407,16.584c7.811,0,11.876-3.103,12.839-8.56h12.519c-1.819,11.77-11.342,18.189-25.679,18.189
		C1002.328,212.271,990.452,201.464,990.452,183.81z M1031.859,177.39c-0.643-9.629-5.564-13.909-13.589-13.909
		c-7.811,0-13.054,5.243-14.337,13.909H1031.859z"/>
	<path d="M1075.621,208.632l28.889-30.493c7.276-7.703,11.663-14.444,11.663-21.72c0-7.169-4.066-11.662-11.449-11.662
		c-7.597,0-12.411,4.387-13.695,15.193h-13.053c0.963-16.691,11.021-26.321,27.177-26.321c15.835,0,25.25,9.095,25.25,22.576
		c0,9.95-5.885,18.617-14.979,27.391l-17.013,16.584h32.526V211.2h-55.316V208.632z"/>
</g>
<g>
	<path d="M341.895,45.161h10.146l21.539,63.639h-7.654l-6.23-18.335H333.44l-6.142,18.335H320L341.895,45.161z M335.576,84.323
		h22.073L346.612,51.57L335.576,84.323z"/>
	<path d="M384.258,62.25h7.387v7.833c2.67-4.539,8.989-8.634,15.754-8.634c12.193,0,21.183,8.9,21.183,23.408v0.712
		c0,14.241-8.367,24.031-21.183,24.031c-7.654,0-13.084-3.827-15.754-8.455v23.854h-7.387V62.25z M420.928,85.926v-0.712
		c0-11.749-6.497-17.623-14.33-17.623c-8.633,0-15.22,5.696-15.22,17.623v0.712c0,11.927,6.23,17.534,15.309,17.534
		C415.944,103.46,420.928,97.229,420.928,85.926z"/>
	<path d="M440.061,62.25h7.387v7.833c2.67-4.539,8.989-8.634,15.754-8.634c12.193,0,21.183,8.9,21.183,23.408v0.712
		c0,14.241-8.367,24.031-21.183,24.031c-7.654,0-13.084-3.827-15.754-8.455v23.854h-7.387V62.25z M476.73,85.926v-0.712
		c0-11.749-6.497-17.623-14.33-17.623c-8.633,0-15.22,5.696-15.22,17.623v0.712c0,11.927,6.23,17.534,15.309,17.534
		C471.747,103.46,476.73,97.229,476.73,85.926z"/>
	<path d="M519.449,62.25h7.387v7.388c2.136-4.361,7.298-8.188,14.953-8.188c9.613,0,16.377,5.251,16.377,18.78v28.57h-7.387V79.695
		c0-8.188-3.471-11.838-10.948-11.838c-6.854,0-12.995,4.361-12.995,12.728V108.8h-7.387V62.25z"/>
	<path d="M568.843,95.895c0-10.77,11.393-14.419,23.319-14.419h6.675v-3.383c0-7.387-2.848-10.502-9.968-10.502
		c-6.408,0-9.969,2.67-10.681,8.366h-7.387c0.979-10.592,9.435-14.508,18.424-14.508c8.9,0,17,3.649,17,16.644V108.8h-7.388v-5.874
		c-3.471,4.361-7.654,6.675-14.508,6.675C575.696,109.601,568.843,105.418,568.843,95.895z M598.837,92.512v-5.785h-6.408
		c-9.345,0-16.199,2.314-16.199,9.168c0,4.806,2.314,7.832,8.812,7.832C592.874,103.727,598.837,99.722,598.837,92.512z"/>
	<path d="M620.729,62.25h7.387v7.121c2.137-4.361,7.21-7.922,13.885-7.922c5.964,0,11.215,2.492,13.618,8.723
		c3.204-6.053,10.146-8.723,15.932-8.723c8.366,0,15.665,4.984,15.665,18.513V108.8h-7.388V79.429
		c0-8.188-3.471-11.571-9.879-11.571c-6.053,0-12.283,4.095-12.283,12.461V108.8h-7.388V79.429c0-8.188-3.471-11.571-9.879-11.571
		c-6.053,0-12.283,4.095-12.283,12.461V108.8h-7.387V62.25z"/>
	<path d="M698.247,86.015v-0.712c0-14.062,8.99-23.854,21.807-23.854c10.77,0,20.916,6.497,20.916,23.142v2.403h-35.068
		c0.356,10.591,5.43,16.466,14.953,16.466c7.209,0,11.393-2.671,12.372-8.1h7.387c-1.602,9.346-9.345,14.24-19.848,14.24
		C707.593,109.601,698.247,100.345,698.247,86.015z M733.404,81.03c-0.712-9.612-5.696-13.439-13.351-13.439
		c-7.565,0-12.639,5.162-13.885,13.439H733.404z"/>
	<path d="M776.032,39.999h7.477V108.8h-7.477V39.999z"/>
	<path d="M797.481,47.653c0-2.67,2.225-4.895,4.896-4.895c2.67,0,4.895,2.225,4.895,4.895c0,2.671-2.225,4.896-4.895,4.896
		C799.706,52.549,797.481,50.324,797.481,47.653z M798.816,62.25h7.388v46.55h-7.388V62.25z"/>
	<path d="M821.333,62.25h7.387v7.388c2.137-4.361,7.299-8.188,14.953-8.188c9.612,0,16.377,5.251,16.377,18.78v28.57h-7.388V79.695
		c0-8.188-3.471-11.838-10.947-11.838c-6.854,0-12.995,4.361-12.995,12.728V108.8h-7.387V62.25z"/>
	<path d="M871.082,86.015v-0.712c0-14.062,8.99-23.854,21.807-23.854c10.77,0,20.916,6.497,20.916,23.142v2.403h-35.068
		c0.356,10.591,5.43,16.466,14.953,16.466c7.209,0,11.393-2.671,12.372-8.1h7.387c-1.602,9.346-9.346,14.24-19.848,14.24
		C880.428,109.601,871.082,100.345,871.082,86.015z M906.239,81.03c-0.712-9.612-5.696-13.439-13.351-13.439
		c-7.565,0-12.639,5.162-13.885,13.439H906.239z"/>
	<path d="M958.392,52.816l-14.24,10.235v-7.21l14.774-10.681h7.209V108.8h-7.743V52.816z"/>
</g>
<g>
	<g id="aa_x5F_incomecalc_x5F_core">
		<path style="fill:#7F35B2;" d="M211.179,76.8l-8.533-8.533l-16.598-16.598c-0.3-0.3-0.707-0.469-1.131-0.469H171.36h-9.92h-13.556
			c-0.424,0-0.831,0.169-1.131,0.469l-16.598,16.598l-8.533,8.533l-1.686,1.686c-0.3,0.3-0.469,0.707-0.469,1.131v23.476V203.2
			c0,0.884,0.716,1.6,1.6,1.6h13.867c0.884,0,1.6-0.716,1.6-1.6V86.689c0-0.424,0.169-0.831,0.469-1.131l16.823-16.823
			c0.3-0.3,0.707-0.469,1.131-0.469h22.888c0.424,0,0.831,0.169,1.131,0.469l16.823,16.823c0.3,0.3,0.469,0.707,0.469,1.131v31.177
			c0,0.884-0.716,1.6-1.6,1.6h-35.2c-0.884,0-1.6,0.716-1.6,1.6v13.867c0,0.884,0.716,1.6,1.6,1.6h35.2c0.884,0,1.6,0.716,1.6,1.6
			V203.2c0,0.884,0.716,1.6,1.6,1.6h13.867c0.884,0,1.6-0.716,1.6-1.6V103.093V79.617c0-0.424-0.169-0.831-0.469-1.131L211.179,76.8
			z"/>
		<path style="fill:#7F35B2;" d="M91.712,76.8l-8.533-8.533L66.581,51.669c-0.3-0.3-0.707-0.469-1.131-0.469H51.893h-9.92H28.417
			c-0.424,0-0.831,0.169-1.131,0.469L10.688,68.267L2.155,76.8l-1.686,1.686C0.169,78.786,0,79.193,0,79.617v23.476V203.2
			c0,0.884,0.716,1.6,1.6,1.6h13.867c0.884,0,1.6-0.716,1.6-1.6V86.689c0-0.424,0.169-0.831,0.469-1.131l16.823-16.823
			c0.3-0.3,0.707-0.469,1.131-0.469h22.888c0.424,0,0.831,0.169,1.131,0.469l16.823,16.823c0.3,0.3,0.469,0.707,0.469,1.131v31.177
			c0,0.884-0.716,1.6-1.6,1.6H40c-0.884,0-1.6,0.716-1.6,1.6v13.867c0,0.884,0.716,1.6,1.6,1.6h35.2c0.884,0,1.6,0.716,1.6,1.6
			V203.2c0,0.884,0.716,1.6,1.6,1.6h13.867c0.884,0,1.6-0.716,1.6-1.6V103.093V79.617c0-0.424-0.169-0.831-0.469-1.131L91.712,76.8z
			"/>
		<path style="fill:#7F35B2;" d="M238.933,203.3v-82.333c0-0.828,0.672-1.5,1.5-1.5H254.5c0.828,0,1.5,0.672,1.5,1.5V203.3
			c0,0.828-0.672,1.5-1.5,1.5h-14.067C239.605,204.8,238.933,204.128,238.933,203.3z"/>
		<path style="fill:#3ADCC9;" d="M238.933,96.633V82.567c0-0.828,0.672-1.5,1.5-1.5H254.5c0.828,0,1.5,0.672,1.5,1.5v14.067
			c0,0.828-0.672,1.5-1.5,1.5h-14.067C239.605,98.133,238.933,97.462,238.933,96.633z"/>
	</g>
</g>
</svg>
