<?xml version="1.0" encoding="iso-8859-1"?>
<!-- Generator: Adobe Illustrator 27.5.0, SVG Export Plug-In . SVG Version: 6.00 Build 0)  -->
<svg version="1.1" xmlns="http://www.w3.org/2000/svg" xmlns:xlink="http://www.w3.org/1999/xlink" x="0px" y="0px"
	 viewBox="0 0 1024 512" style="enable-background:new 0 0 1024 512;" xml:space="preserve">
<g id="Layer_1">
	<g id="Main_x5F_Purple_x5F_BG_x5F_layer">
	</g>
</g>
<g id="crop">
	<g>
		<defs>
			<rect id="SVGID_1_" width="1024" height="512"/>
		</defs>
		<clipPath id="SVGID_00000023248925902928370710000014907513455508236175_">
			<use xlink:href="#SVGID_1_"  style="overflow:visible;"/>
		</clipPath>
		
			<rect style="clip-path:url(#SVGID_00000023248925902928370710000014907513455508236175_);fill:#48086F;stroke:#000000;stroke-miterlimit:10;" width="1024" height="512"/>
		<g style="clip-path:url(#SVGID_00000023248925902928370710000014907513455508236175_);">
			<path style="fill:#FFFFFF;" d="M63,100.206V79.686h5.146v20.272c0,5.704,2.418,8.245,7.501,8.245
				c4.588,0,8.928-3.037,8.928-8.865V79.686h5.146v32.424h-5.146v-5.146c-1.488,3.038-5.084,5.703-10.292,5.703
				C67.835,112.667,63,109.134,63,100.206z"/>
			<path style="fill:#FFFFFF;" d="M100.137,79.686h5.146v5.146c1.488-3.038,5.083-5.704,10.416-5.704
				c6.695,0,11.407,3.658,11.407,13.082v19.9h-5.146V91.837c0-5.704-2.417-8.246-7.625-8.246c-4.773,0-9.051,3.038-9.051,8.865
				v19.653h-5.146V79.686z"/>
			<path style="fill:#FFFFFF;" d="M134.795,96.548v-0.495c0-9.92,6.199-16.926,15.127-16.926c5.394,0,8.742,2.604,10.602,5.766
				V64.187h5.146v47.923h-5.146v-5.58c-1.86,3.162-6.386,6.138-11.098,6.138C140.933,112.667,134.795,106.653,134.795,96.548z
				 M160.71,96.114v-0.496c0-8.308-3.968-12.213-10.292-12.213c-6.448,0-10.292,4.525-10.292,12.399V96.3
				c0,8.184,4.402,12.09,9.857,12.09C155.998,108.39,160.71,104.422,160.71,96.114z"/>
			<path style="fill:#FFFFFF;" d="M173.669,96.238v-0.496c0-9.795,6.261-16.615,15.189-16.615c7.501,0,14.569,4.526,14.569,16.119
				v1.674h-24.427c0.248,7.378,3.782,11.47,10.416,11.47c5.021,0,7.936-1.86,8.617-5.642h5.146c-1.116,6.51-6.51,9.919-13.825,9.919
				C180.179,112.667,173.669,106.22,173.669,96.238z M198.158,92.767c-0.496-6.695-3.968-9.361-9.299-9.361
				c-5.27,0-8.804,3.596-9.671,9.361H198.158z"/>
			<path style="fill:#FFFFFF;" d="M212.419,84.025h-4.65v-4.34h4.65v-5.27c0-6.572,3.162-10.416,9.547-10.416
				c1.674,0,2.542,0.124,3.534,0.496v4.34c-0.93-0.372-1.922-0.558-3.348-0.558c-3.286,0-4.588,2.293-4.588,5.579v5.828h7.936v4.34
				h-7.936v28.084h-5.146V84.025z"/>
			<path style="fill:#FFFFFF;" d="M231.019,69.518c0-1.859,1.55-3.409,3.41-3.409s3.41,1.55,3.41,3.409c0,1.86-1.55,3.41-3.41,3.41
				S231.019,71.378,231.019,69.518z M231.948,79.686h5.146v32.424h-5.146V79.686z"/>
			<path style="fill:#FFFFFF;" d="M247.634,79.686h5.146v5.146c1.488-3.038,5.083-5.704,10.416-5.704
				c6.695,0,11.407,3.658,11.407,13.082v19.9h-5.146V91.837c0-5.704-2.417-8.246-7.625-8.246c-4.773,0-9.051,3.038-9.051,8.865
				v19.653h-5.146V79.686z"/>
			<path style="fill:#FFFFFF;" d="M282.292,96.238v-0.496c0-9.795,6.261-16.615,15.189-16.615c7.501,0,14.569,4.526,14.569,16.119
				v1.674h-24.427c0.248,7.378,3.782,11.47,10.416,11.47c5.021,0,7.936-1.86,8.617-5.642h5.146c-1.116,6.51-6.51,9.919-13.825,9.919
				C288.801,112.667,282.292,106.22,282.292,96.238z M306.78,92.767c-0.496-6.695-3.968-9.361-9.299-9.361
				c-5.27,0-8.804,3.596-9.671,9.361H306.78z"/>
			<path style="fill:#FFFFFF;" d="M317.507,96.548v-0.495c0-9.92,6.199-16.926,15.127-16.926c5.394,0,8.742,2.604,10.602,5.766
				V64.187h5.146v47.923h-5.146v-5.58c-1.86,3.162-6.386,6.138-11.098,6.138C323.645,112.667,317.507,106.653,317.507,96.548z
				 M343.422,96.114v-0.496c0-8.308-3.968-12.213-10.292-12.213c-6.448,0-10.292,4.525-10.292,12.399V96.3
				c0,8.184,4.402,12.09,9.857,12.09C338.71,108.39,343.422,104.422,343.422,96.114z"/>
		</g>
		<g style="clip-path:url(#SVGID_00000023248925902928370710000014907513455508236175_);">
			<polygon style="fill:#345499;" points="980.14,431.588 928.805,380.254 928.805,390.382 980.14,441.717 			"/>
			<path style="fill:#345499;" d="M928.805,474.98l45.52,45.52h1.023c2.498,0,4.526-1.918,4.748-4.358l-51.291-51.291V474.98z"/>
			<polygon style="fill:#345499;" points="928.805,503.179 946.126,520.5 956.254,520.5 928.805,493.05 			"/>
			<polygon style="fill:#345499;" points="980.14,459.788 928.805,408.453 928.805,418.582 980.14,469.916 			"/>
			<polygon style="fill:#345499;" points="980.14,487.987 928.805,436.652 928.805,446.781 980.14,498.115 			"/>
			<polygon style="fill:#345499;" points="980.14,346.991 928.805,295.656 928.805,305.785 980.14,357.12 			"/>
			<polygon style="fill:#345499;" points="980.14,177.795 968.582,166.237 964.107,171.891 980.14,187.924 			"/>
			<polygon style="fill:#345499;" points="980.14,234.194 943.662,197.716 939.187,203.37 980.14,244.322 			"/>
			<polygon style="fill:#345499;" points="980.14,290.592 928.805,239.257 928.805,249.386 980.14,300.721 			"/>
			<path style="fill:#345499;" d="M980.14,262.393l-48.937-48.937l-1.363,1.722c-0.67,0.847-1.035,1.895-1.035,2.974v3.035
				l51.335,51.335V262.393z"/>
			<polygon style="fill:#345499;" points="980.14,318.791 928.805,267.457 928.805,277.585 980.14,328.92 			"/>
			<polygon style="fill:#345499;" points="980.14,205.995 956.122,181.977 951.647,187.63 980.14,216.123 			"/>
			<polygon style="fill:#345499;" points="980.14,413.518 980.14,403.389 928.805,352.054 928.805,362.183 			"/>
			<polygon style="fill:#345499;" points="980.14,385.319 980.14,375.19 928.805,323.855 928.805,333.984 			"/>
			<polygon style="fill:#327FEF;" points="980.14,187.924 964.107,171.891 956.122,181.977 980.14,205.995 			"/>
			<path style="fill:#327FEF;" d="M980.14,165.41c0-4.542-5.73-6.535-8.549-2.974l-3.009,3.801l11.558,11.558V165.41z"/>
			<polygon style="fill:#327FEF;" points="980.14,300.721 928.805,249.386 928.805,267.457 980.14,318.791 			"/>
			<polygon style="fill:#327FEF;" points="980.14,357.12 928.805,305.785 928.805,323.855 980.14,375.19 			"/>
			<polygon style="fill:#327FEF;" points="980.14,413.518 928.805,362.183 928.805,380.254 980.14,431.588 			"/>
			<polygon style="fill:#327FEF;" points="980.14,441.717 928.805,390.382 928.805,408.453 980.14,459.788 			"/>
			<polygon style="fill:#327FEF;" points="980.14,403.389 980.14,385.319 928.805,333.984 928.805,352.054 			"/>
			<polygon style="fill:#327FEF;" points="980.14,328.92 928.805,277.585 928.805,295.656 980.14,346.991 			"/>
			<polygon style="fill:#327FEF;" points="980.14,272.522 928.805,221.187 928.805,239.257 980.14,290.592 			"/>
			<path style="fill:#327FEF;" d="M928.805,515.708c0,2.646,2.145,4.792,4.792,4.792h12.529l-17.321-17.321V515.708z"/>
			<polygon style="fill:#327FEF;" points="928.805,493.05 956.254,520.5 974.325,520.5 928.805,474.98 			"/>
			<polygon style="fill:#327FEF;" points="980.14,216.123 951.647,187.63 943.662,197.716 980.14,234.194 			"/>
			<polygon style="fill:#327FEF;" points="980.14,244.322 939.187,203.37 931.202,213.456 980.14,262.393 			"/>
			<polygon style="fill:#327FEF;" points="980.14,469.916 928.805,418.582 928.805,436.652 980.14,487.987 			"/>
			<path style="fill:#327FEF;" d="M928.805,446.781v18.071l51.291,51.291c0.013-0.145,0.044-0.285,0.044-0.434v-17.593
				L928.805,446.781z"/>
		</g>
		<path style="clip-path:url(#SVGID_00000023248925902928370710000014907513455508236175_);fill:#7F35B2;" d="M979.109,70.239
			L804.272,291.716c-1.917,2.428-5.598,2.431-7.518,0.005l-116.01-146.565c-2.819-3.561-8.549-1.568-8.549,2.974v367.578
			c0,2.646-2.145,4.792-4.792,4.792h-41.751c-2.646,0-4.792-2.145-4.792-4.792V65.292c0-2.646,2.145-4.792,4.792-4.792h51.221
			c1.464,0,2.848,0.67,3.757,1.818l116.129,146.705c1.919,2.424,5.596,2.424,7.514,0L920.37,62.318
			c0.909-1.148,2.293-1.818,3.757-1.818h51.22c2.646,0,4.792,2.145,4.792,4.792v1.978C980.14,68.347,979.776,69.393,979.109,70.239z
			"/>
		<g style="clip-path:url(#SVGID_00000023248925902928370710000014907513455508236175_);">
			<g>
				<defs>
					<rect id="SVGID_00000124155515491752266550000012566994726424947329_" x="62" y="405" width="155" height="50"/>
				</defs>
				<clipPath id="SVGID_00000183940255047982676480000018436409789111485854_">
					<use xlink:href="#SVGID_00000124155515491752266550000012566994726424947329_"  style="overflow:visible;"/>
				</clipPath>
				<g style="clip-path:url(#SVGID_00000183940255047982676480000018436409789111485854_);">
					<defs>
						<rect id="SVGID_00000085942544283590604730000010298521005593767080_" x="62" y="405" width="155" height="50"/>
					</defs>
					<clipPath id="SVGID_00000077296991746520172510000008902925442693029026_">
						<use xlink:href="#SVGID_00000085942544283590604730000010298521005593767080_"  style="overflow:visible;"/>
					</clipPath>
					<path style="clip-path:url(#SVGID_00000077296991746520172510000008902925442693029026_);fill:#FFFFFF;" d="M217,414.83
						l-15.2,39.27H189l-6.4-21.93l-6.45,21.93h-12.79l-11.24-29.29h-7V438c0,6.19,2.5,7.21,5.92,7.21
						c0.906-0.018,1.808-0.132,2.69-0.34l3.5,9.12c-2.726,0.668-5.523,1.004-8.33,1c-11.72,0-16.72-4.79-16.72-16v-14.18h-5.34
						l-11.33,29.29h-12.8l-6.39-21.93l-6.47,21.93H77.06L62,414.83h14.51l7.57,23.73l7.22-23.73h10l7.29,23.73l7.53-23.73h16.06
						v-7.06l12.94-2.77v9.83h17.69l7.56,23.73l7.22-23.73h10l7.29,23.73l7.5-23.73H217z"/>
				</g>
			</g>
		</g>
	</g>
</g>
</svg>
