<?xml version="1.0" encoding="iso-8859-1"?>
<!-- Generator: Adobe Illustrator 27.5.0, SVG Export Plug-In . SVG Version: 6.00 Build 0)  -->
<svg version="1.1" id="Layer_1" xmlns="http://www.w3.org/2000/svg" xmlns:xlink="http://www.w3.org/1999/xlink" x="0px" y="0px"
	 viewBox="0 0 747.095 256" style="enable-background:new 0 0 747.095 256;" xml:space="preserve">
<g>
	<path d="M176.47,148.302v-39.865h14.399v38.199c0,9.401,3.927,13.686,12.257,13.686c7.735,0,14.519-4.998,14.519-14.875v-37.01
		h14.399v62.238h-14.399v-9.758c-3.094,6.068-9.639,10.948-19.754,10.948C185.634,171.865,176.47,164.844,176.47,148.302z"/>
	<path d="M249.06,108.437h14.399v9.877c2.975-6.069,9.877-11.187,20.111-11.187c12.496,0,21.302,7.26,21.302,24.396v39.152h-14.399
		v-37.843c0-9.401-3.808-13.686-12.376-13.686c-8.092,0-14.637,4.998-14.637,14.875v36.653H249.06V108.437z"/>
	<path d="M317.364,140.567v-0.952c0-19.874,11.781-32.488,27.966-32.488c10.115,0,16.422,4.642,19.874,10.829V79.638h14.399v91.037
		h-14.399v-10.473c-3.332,6.188-11.305,11.663-20.468,11.663C329.145,171.865,317.364,160.798,317.364,140.567z M365.679,139.853
		v-0.951c0-13.686-6.307-20.469-16.779-20.469c-10.591,0-16.78,7.378-16.78,20.825v0.952c0,13.686,6.902,20.23,16.185,20.23
		C358.301,160.44,365.679,153.776,365.679,139.853z"/>
	<path d="M392.572,140.21v-0.952c0-19.278,13.209-32.131,30.94-32.131c15.471,0,29.394,9.163,29.394,31.417v4.165h-45.578
		c0.476,11.781,6.426,18.445,17.136,18.445c8.688,0,13.209-3.451,14.28-9.521h13.924c-2.023,13.091-12.615,20.231-28.561,20.231
		C405.781,171.865,392.572,159.846,392.572,140.21z M438.626,133.069c-0.714-10.71-6.188-15.47-15.114-15.47
		c-8.687,0-14.518,5.831-15.946,15.47H438.626z"/>
	<path d="M468.254,119.266h-8.449v-10.829h8.449v-8.331c0-13.685,7.498-21.063,20.707-21.063c3.57,0,5.593,0.357,7.854,1.071V91.3
		c-1.666-0.714-3.451-0.952-6.069-0.952c-5.712,0-8.093,3.808-8.093,9.163v8.926h14.162v10.829h-14.162v51.409h-14.399V119.266z"/>
	<path d="M506.095,89.99c0-4.76,3.809-8.33,8.568-8.33c4.761,0,8.568,3.57,8.568,8.33c0,4.642-3.808,8.212-8.568,8.212
		C509.904,98.202,506.095,94.632,506.095,89.99z M507.642,108.437h14.399v62.238h-14.399V108.437z"/>
	<path d="M539.534,108.437h14.399v9.877c2.975-6.069,9.877-11.187,20.111-11.187c12.495,0,21.302,7.26,21.302,24.396v39.152h-14.399
		v-37.843c0-9.401-3.809-13.686-12.376-13.686c-8.093,0-14.638,4.998-14.638,14.875v36.653h-14.399V108.437z"/>
	<path d="M607.719,140.21v-0.952c0-19.278,13.209-32.131,30.94-32.131c15.471,0,29.394,9.163,29.394,31.417v4.165h-45.578
		c0.477,11.781,6.427,18.445,17.137,18.445c8.688,0,13.209-3.451,14.28-9.521h13.924c-2.023,13.091-12.614,20.231-28.561,20.231
		C620.928,171.865,607.719,159.846,607.719,140.21z M653.773,133.069c-0.714-10.71-6.188-15.47-15.113-15.47
		c-8.687,0-14.519,5.831-15.946,15.47H653.773z"/>
	<path d="M676.857,140.567v-0.952c0-19.874,11.781-32.488,27.966-32.488c10.115,0,16.422,4.642,19.873,10.829V79.638h14.399v91.037
		h-14.399v-10.473c-3.332,6.188-11.306,11.663-20.469,11.663C688.638,171.865,676.857,160.798,676.857,140.567z M725.173,139.853
		v-0.951c0-13.686-6.308-20.469-16.78-20.469c-10.591,0-16.779,7.378-16.779,20.825v0.952c0,13.686,6.902,20.23,16.185,20.23
		C717.794,160.44,725.173,153.776,725.173,139.853z"/>
</g>
<g>
	<g>
		<path d="M112.47,88.841V198.5c0,0.828-0.672,1.5-1.5,1.5H97.9c-0.828,0-1.5-0.672-1.5-1.5v-93.148
			c0-0.338,0.114-0.666,0.324-0.931l13.07-16.51C110.676,86.796,112.47,87.42,112.47,88.841z"/>
		<path d="M112.147,59.049l-54.732,69.332c-0.6,0.76-1.752,0.761-2.354,0.002L18.746,82.501c-0.882-1.115-2.676-0.491-2.676,0.931
			V198.5c0,0.828-0.672,1.5-1.5,1.5H1.5c-0.828,0-1.5-0.672-1.5-1.5v-141C0,56.672,0.672,56,1.5,56h16.034
			c0.458,0,0.892,0.21,1.176,0.569l36.353,45.925c0.601,0.759,1.752,0.759,2.352,0L93.76,56.569C94.044,56.21,94.477,56,94.936,56
			h16.034c0.828,0,1.5,0.672,1.5,1.5v0.619C112.47,58.457,112.356,58.784,112.147,59.049z"/>
	</g>
</g>
</svg>
