<?xml version="1.0" encoding="iso-8859-1"?>
<!-- Generator: Adobe Illustrator 27.5.0, SVG Export Plug-In . SVG Version: 6.00 Build 0)  -->
<svg version="1.1" id="Layer_1" xmlns="http://www.w3.org/2000/svg" xmlns:xlink="http://www.w3.org/1999/xlink" x="0px" y="0px"
	 viewBox="0 0 256 256" style="enable-background:new 0 0 256 256;" xml:space="preserve">
<path style="fill:#FFFFFF;" d="M184.235,88.841V198.5c0,0.828-0.672,1.5-1.5,1.5h-13.07c-0.828,0-1.5-0.672-1.5-1.5v-93.148
	c0-0.338,0.114-0.666,0.324-0.931l13.07-16.51C182.441,86.796,184.235,87.42,184.235,88.841z"/>
<path style="fill:#FFFFFF;" d="M183.912,59.049l-54.732,69.332c-0.6,0.76-1.752,0.761-2.354,0.002L90.511,82.501
	c-0.882-1.115-2.676-0.491-2.676,0.931V198.5c0,0.828-0.672,1.5-1.5,1.5h-13.07c-0.828,0-1.5-0.672-1.5-1.5v-141
	c0-0.828,0.672-1.5,1.5-1.5h16.034c0.458,0,0.892,0.21,1.176,0.569l36.353,45.925c0.601,0.759,1.752,0.759,2.352,0l36.343-45.925
	c0.284-0.36,0.718-0.569,1.176-0.569h16.034c0.828,0,1.5,0.672,1.5,1.5v0.619C184.235,58.457,184.121,58.784,183.912,59.049z"/>
</svg>
