<?xml version="1.0" encoding="iso-8859-1"?>
<!-- Generator: Adobe Illustrator 27.5.0, SVG Export Plug-In . SVG Version: 6.00 Build 0)  -->
<svg version="1.1" id="Layer_1" xmlns="http://www.w3.org/2000/svg" xmlns:xlink="http://www.w3.org/1999/xlink" x="0px" y="0px"
	 viewBox="0 0 256 256" style="enable-background:new 0 0 256 256;" xml:space="preserve">
<g id="ask_x5F_benix_x5F_core_00000051349372026833829950000006002960360723974274_">
	<path style="fill:#3ADCC9;" d="M212,42.5v-13c0-0.828-0.672-1.5-1.5-1.5h-117c-0.828,0-1.5,0.672-1.5,1.5v117
		c0,0.828,0.672,1.5,1.5,1.5h64.559c0.398,0,0.779,0.158,1.061,0.439l31.121,31.121c0.281,0.281,0.663,0.439,1.061,0.439H210.5
		c0.828,0,1.5-0.672,1.5-1.5v-117c0-0.828-0.672-1.5-1.5-1.5h-13c-0.828,0-1.5,0.672-1.5,1.5v97.559
		c0,1.336-1.616,2.006-2.561,1.061l-27.68-27.68c-0.281-0.281-0.663-0.439-1.061-0.439H109.5c-0.828,0-1.5-0.672-1.5-1.5v-85
		c0-0.828,0.672-1.5,1.5-1.5h101C211.328,44,212,43.328,212,42.5z"/>
	<g>
		<polygon style="fill:#930082;" points="118.277,180 134.277,196 137.448,196 121.448,180 		"/>
		<polygon style="fill:#930082;" points="127.104,180 143.104,196 146.275,196 130.275,180 		"/>
		<polygon style="fill:#930082;" points="109.449,180 112,182.551 125.449,196 128.62,196 112.62,180 		"/>
		<polygon style="fill:#930082;" points="135.932,180 151.932,196 155.103,196 139.103,180 		"/>
		<polygon style="fill:#930082;" points="153.587,180 160,186.413 160,183.242 156.758,180 		"/>
		<path style="fill:#930082;" d="M144.76,180l15.109,15.109c0.083-0.186,0.131-0.392,0.131-0.609v-2.43L147.93,180H144.76z"/>
		<path style="fill:#C900AC;" d="M139.103,180l16,16h3.397c0.611,0,1.135-0.367,1.369-0.891L144.76,180H139.103z"/>
		<polygon style="fill:#C900AC;" points="130.275,180 146.275,196 151.932,196 135.932,180 		"/>
		<polygon style="fill:#C900AC;" points="121.448,180 137.448,196 143.104,196 127.104,180 		"/>
		<polygon style="fill:#C900AC;" points="147.93,180 160,192.07 160,186.413 153.587,180 		"/>
		<path style="fill:#C900AC;" d="M158.5,180h-1.742l3.242,3.242V181.5C160,180.672,159.328,180,158.5,180z"/>
		<polygon style="fill:#C900AC;" points="112,191.378 100.622,180 94.965,180 110.965,196 116.622,196 112,191.378 		"/>
		<polygon style="fill:#C900AC;" points="112.62,180 128.62,196 134.277,196 118.277,180 		"/>
		<polygon style="fill:#930082;" points="60,171.518 44,155.518 44,158.689 60,174.689 		"/>
		<polygon style="fill:#930082;" points="60,180.346 44,164.346 44,167.516 60,183.516 		"/>
		<polygon style="fill:#930082;" points="60,189.173 44,173.173 44,176.344 60,192.344 		"/>
		<polygon style="fill:#930082;" points="60,109.725 44,93.725 44,96.896 60,112.896 		"/>
		<polygon style="fill:#930082;" points="60,145.035 44,129.035 44,132.206 60,148.206 		"/>
		<polygon style="fill:#930082;" points="60,198.001 44,182.001 44,185.172 60,201.172 		"/>
		<path style="fill:#930082;" d="M60,207.059v-0.23l-16-16v3.171l27.66,27.66l1.585-1.585l-11.533-11.533
			C60.875,208.658,60,208.042,60,207.059z"/>
		<polygon style="fill:#930082;" points="60,153.863 44,137.863 44,141.034 60,157.034 		"/>
		<polygon style="fill:#930082;" points="60,136.208 44,120.208 44,123.378 60,139.378 		"/>
		<polygon style="fill:#930082;" points="60,162.69 44,146.69 44,149.861 60,165.861 		"/>
		<polygon style="fill:#930082;" points="60,127.38 44,111.38 44,114.551 60,130.551 		"/>
		<polygon style="fill:#930082;" points="60,118.552 44,102.552 44,105.723 60,121.723 		"/>
		<polygon style="fill:#930082;" points="60,100.897 44,84.897 44,88.068 60,104.068 		"/>
		<polygon style="fill:#930082;" points="86.823,183.857 98.966,196 102.137,196 88.409,182.271 		"/>
		<polygon style="fill:#930082;" points="44,220.482 51.518,228 54.689,228 44,217.311 		"/>
		
			<rect x="70.086" y="202.789" transform="matrix(0.7071 -0.7071 0.7071 0.7071 -128.1972 112.0908)" style="fill:#930082;" width="2.242" height="16.009"/>
		
			<rect x="87.741" y="185.133" transform="matrix(0.7071 -0.7071 0.7071 0.7071 -110.542 119.4038)" style="fill:#930082;" width="2.242" height="16.009"/>
		<path style="fill:#930082;" d="M44,226.5c0,0.828,0.672,1.5,1.5,1.5h0.361L44,226.139V226.5z"/>
		<polygon style="fill:#930082;" points="103.792,180 100.622,180 112,191.378 112,191.378 116.622,196 119.792,196 112,188.208 		
			"/>
		<polygon style="fill:#930082;" points="91.794,180 107.794,196 110.965,196 94.965,180 		"/>
		<polygon style="fill:#930082;" points="44,211.654 60.346,228 63.516,228 44,208.484 		"/>
		
			<rect x="74.5" y="198.375" transform="matrix(0.7071 -0.7071 0.7071 0.7071 -123.7834 113.919)" style="fill:#930082;" width="2.242" height="16.009"/>
		<polygon style="fill:#930082;" points="60,83.242 56.758,80 53.587,80 60,86.413 		"/>
		<polygon style="fill:#930082;" points="44,202.827 67.247,226.073 68.832,224.488 44,199.656 		"/>
		<path style="fill:#930082;" d="M60,92.07L47.93,80H45.5c-0.217,0-0.423,0.048-0.609,0.131L60,95.24V92.07z"/>
		
			<rect x="78.914" y="193.961" transform="matrix(0.7071 -0.7071 0.7071 0.7071 -119.3696 115.7473)" style="fill:#930082;" width="2.242" height="16.009"/>
		
			<rect x="83.327" y="189.547" transform="matrix(0.7071 -0.7071 0.7071 0.7071 -114.9558 117.5755)" style="fill:#930082;" width="2.242" height="16.009"/>
		<polygon style="fill:#C900AC;" points="44,217.311 54.689,228 60.346,228 44,211.654 		"/>
		<polygon style="fill:#C900AC;" points="44,199.656 68.832,224.488 71.66,221.66 44,193.999 		"/>
		<path style="fill:#C900AC;" d="M44,208.484L63.516,228h1.182c0.398,0,0.779-0.158,1.061-0.439l1.487-1.487L44,202.827V208.484z"/>
		<polygon style="fill:#C900AC;" points="44,226.139 45.861,228 51.518,228 44,220.482 		"/>
		<polygon style="fill:#C900AC;" points="60,104.068 44,88.068 44,93.725 60,109.725 		"/>
		<polygon style="fill:#C900AC;" points="60,112.896 44,96.896 44,102.552 60,118.552 		"/>
		<path style="fill:#C900AC;" d="M60,95.24L44.891,80.131C44.367,80.365,44,80.889,44,81.5v3.397l16,16V95.24z"/>
		<polygon style="fill:#C900AC;" points="60,121.723 44,105.723 44,111.38 60,127.38 		"/>
		<polygon style="fill:#C900AC;" points="109.449,180 103.792,180 112,188.208 119.792,196 125.449,196 112,182.551 		"/>
		<polygon style="fill:#C900AC;" points="60,130.551 44,114.551 44,120.208 60,136.208 		"/>
		<path style="fill:#C900AC;" d="M60,81.5c0-0.828-0.672-1.5-1.5-1.5h-1.742L60,83.242V81.5z"/>
		<path style="fill:#C900AC;" d="M91.301,180c-0.398,0-0.779,0.158-1.061,0.439l-1.832,1.832L102.137,196h5.657l-16-16H91.301z"/>
		<polygon style="fill:#C900AC;" points="60,148.206 44,132.206 44,137.863 60,153.863 		"/>
		<polygon style="fill:#C900AC;" points="60,86.413 53.587,80 47.93,80 60,92.07 		"/>
		<polygon style="fill:#C900AC;" points="60,139.378 44,123.378 44,129.035 60,145.035 		"/>
		
			<rect x="84.655" y="187.34" transform="matrix(0.7071 -0.7071 0.7071 0.7071 -112.7489 118.4897)" style="fill:#C900AC;" width="4" height="16.009"/>
		<polygon style="fill:#C900AC;" points="60,165.861 44,149.861 44,155.518 60,171.518 		"/>
		<polygon style="fill:#C900AC;" points="60,157.034 44,141.034 44,146.69 60,162.69 		"/>
		<path style="fill:#C900AC;" d="M83.995,186.685l11.32,11.32l1.566-1.566c0.281-0.281,0.663-0.439,1.061-0.439h1.025
			l-12.143-12.143L83.995,186.685z"/>
		<polygon style="fill:#C900AC;" points="60,174.689 44,158.689 44,164.346 60,180.346 		"/>
		
			<rect x="80.241" y="191.754" transform="matrix(0.7071 -0.7071 0.7071 0.7071 -117.1627 116.6614)" style="fill:#C900AC;" width="4" height="16.009"/>
		<path style="fill:#C900AC;" d="M62.561,208.119c-0.25,0.25-0.546,0.38-0.848,0.422l11.533,11.533l2.828-2.828l-11.32-11.32
			L62.561,208.119z"/>
		<polygon style="fill:#C900AC;" points="60,201.172 44,185.172 44,190.828 60,206.828 		"/>
		
			<rect x="71.414" y="200.582" transform="matrix(0.7071 -0.7071 0.7071 0.7071 -125.9903 113.0049)" style="fill:#C900AC;" width="4" height="16.009"/>
		<polygon style="fill:#C900AC;" points="60,192.344 44,176.344 44,182.001 60,198.001 		"/>
		
			<rect x="75.828" y="196.168" transform="matrix(0.7071 -0.7071 0.7071 0.7071 -121.5765 114.8332)" style="fill:#C900AC;" width="4" height="16.009"/>
		<polygon style="fill:#C900AC;" points="60,183.516 44,167.516 44,173.173 60,189.173 		"/>
	</g>
	<path style="fill:#3ADCC9;" d="M158.5,96h-13c-0.828,0-1.5-0.672-1.5-1.5v-13c0-0.828,0.672-1.5,1.5-1.5h13
		c0.828,0,1.5,0.672,1.5,1.5v13C160,95.328,159.328,96,158.5,96z"/>
</g>
</svg>
