<?xml version="1.0" encoding="iso-8859-1"?>
<!-- Generator: Adobe Illustrator 27.5.0, SVG Export Plug-In . SVG Version: 6.00 Build 0)  -->
<svg version="1.1" id="Layer_1" xmlns="http://www.w3.org/2000/svg" xmlns:xlink="http://www.w3.org/1999/xlink" x="0px" y="0px"
	 viewBox="0 0 256 256" style="enable-background:new 0 0 256 256;" xml:space="preserve">
<g id="ask_x5F_benix_x5F_core">
	<path d="M235.52,18.56V1.92c0-1.06-0.86-1.92-1.92-1.92H83.84c-1.06,0-1.92,0.86-1.92,1.92v149.76c0,1.06,0.86,1.92,1.92,1.92
		h82.635c0.509,0,0.998,0.202,1.358,0.562l39.835,39.835c0.36,0.36,0.848,0.562,1.358,0.562H233.6c1.06,0,1.92-0.86,1.92-1.92V42.88
		c0-1.06-0.86-1.92-1.92-1.92h-16.64c-1.06,0-1.92,0.86-1.92,1.92v124.875c0,1.711-2.068,2.567-3.278,1.358l-35.43-35.43
		c-0.36-0.36-0.848-0.562-1.358-0.562H104.32c-1.06,0-1.92-0.86-1.92-1.92V22.4c0-1.06,0.86-1.92,1.92-1.92H233.6
		C234.66,20.48,235.52,19.62,235.52,18.56z"/>
	<path d="M167.04,194.56H81.026c-0.509,0-0.998,0.202-1.358,0.562l-35.43,35.43c-1.21,1.21-3.278,0.353-3.278-1.358V68.48
		c0-1.06-0.86-1.92-1.92-1.92H22.4c-1.06,0-1.92,0.86-1.92,1.92v185.6c0,1.06,0.86,1.92,1.92,1.92h24.574
		c0.509,0,0.998-0.202,1.358-0.562l39.835-39.835c0.36-0.36,0.848-0.562,1.358-0.562h77.515c1.06,0,1.92-0.86,1.92-1.92v-16.64
		C168.96,195.42,168.1,194.56,167.04,194.56z"/>
	<path d="M167.46,87.04h-17.48c-0.828,0-1.5-0.672-1.5-1.5V68.06c0-0.828,0.672-1.5,1.5-1.5h17.48c0.828,0,1.5,0.672,1.5,1.5v17.48
		C168.96,86.368,168.288,87.04,167.46,87.04z"/>
</g>
</svg>
