<?xml version="1.0" encoding="iso-8859-1"?>
<!-- Generator: Adobe Illustrator 27.5.0, SVG Export Plug-In . SVG Version: 6.00 Build 0)  -->
<svg version="1.1" id="Layer_1" xmlns="http://www.w3.org/2000/svg" xmlns:xlink="http://www.w3.org/1999/xlink" x="0px" y="0px"
	 viewBox="0 0 1149.74 256" style="enable-background:new 0 0 1149.74 256;" xml:space="preserve">
<g>
	<path style="fill:#FFFFFF;" d="M304,157.055V96.811h15.107v59.516c0,16.745,7.098,24.207,22.022,24.207
		c13.469,0,26.209-8.918,26.209-26.026V96.811h15.106V192h-15.106v-15.106c-4.368,8.918-14.924,16.744-30.213,16.744
		C318.197,193.638,304,183.264,304,157.055z"/>
	<path style="fill:#FFFFFF;" d="M413.017,96.811h15.106v15.106c4.368-8.918,14.925-16.745,30.577-16.745
		c19.657,0,33.489,10.739,33.489,38.404V192h-15.106v-59.517c0-16.744-7.098-24.206-22.387-24.206
		c-14.015,0-26.573,8.918-26.573,26.026V192h-15.106V96.811z"/>
	<path style="fill:#FFFFFF;" d="M514.753,146.316v-1.456c0-29.121,18.201-49.688,44.41-49.688c15.834,0,25.663,7.645,31.123,16.927
		v-60.79h15.107V192h-15.107v-16.381c-5.46,9.282-18.747,18.019-32.579,18.019C532.772,193.638,514.753,175.983,514.753,146.316z
		 M590.832,145.042v-1.456c0-24.389-11.648-35.855-30.213-35.855c-18.929,0-30.213,13.287-30.213,36.401v1.456
		c0,24.025,12.923,35.492,28.939,35.492C577,181.08,590.832,169.432,590.832,145.042z"/>
	<path style="fill:#FFFFFF;" d="M628.868,145.406v-1.456c0-28.757,18.383-48.778,44.592-48.778
		c22.022,0,42.771,13.287,42.771,47.322v4.914H644.52c0.729,21.659,11.103,33.672,30.577,33.672
		c14.743,0,23.297-5.461,25.299-16.563h15.106c-3.275,19.111-19.11,29.121-40.587,29.121
		C647.978,193.638,628.868,174.709,628.868,145.406z M700.76,135.214c-1.456-19.657-11.648-27.483-27.301-27.483
		c-15.471,0-25.846,10.557-28.394,27.483H700.76z"/>
	<path style="fill:#FFFFFF;" d="M742.616,109.551h-13.65v-12.74h13.65V81.34c0-19.293,9.282-30.577,28.029-30.577
		c4.914,0,7.462,0.364,10.374,1.456v12.74c-2.729-1.092-5.642-1.638-9.828-1.638c-9.646,0-13.469,6.734-13.469,16.381v17.108h23.297
		v12.74h-23.297V192h-15.106V109.551z"/>
	<path style="fill:#FFFFFF;" d="M797.215,66.961c0-5.46,4.55-10.01,10.01-10.01c5.461,0,10.011,4.55,10.011,10.01
		c0,5.461-4.55,10.011-10.011,10.011C801.765,76.972,797.215,72.422,797.215,66.961z M799.945,96.811h15.106V192h-15.106V96.811z"/>
	<path style="fill:#FFFFFF;" d="M845.989,96.811h15.107v15.106c4.368-8.918,14.924-16.745,30.577-16.745
		c19.656,0,33.489,10.739,33.489,38.404V192h-15.107v-59.517c0-16.744-7.098-24.206-22.387-24.206
		c-14.014,0-26.572,8.918-26.572,26.026V192h-15.107V96.811z"/>
	<path style="fill:#FFFFFF;" d="M947.725,145.406v-1.456c0-28.757,18.383-48.778,44.592-48.778
		c22.022,0,42.771,13.287,42.771,47.322v4.914h-71.711c0.729,21.659,11.103,33.672,30.577,33.672
		c14.743,0,23.297-5.461,25.299-16.563h15.106c-3.275,19.111-19.11,29.121-40.587,29.121
		C966.835,193.638,947.725,174.709,947.725,145.406z M1019.618,135.214c-1.456-19.657-11.648-27.483-27.301-27.483
		c-15.471,0-25.846,10.557-28.394,27.483H1019.618z"/>
	<path style="fill:#FFFFFF;" d="M1051.1,146.316v-1.456c0-29.121,18.2-49.688,44.409-49.688c15.835,0,25.663,7.645,31.124,16.927
		v-60.79h15.106V192h-15.106v-16.381c-5.461,9.282-18.747,18.019-32.58,18.019C1069.119,193.638,1051.1,175.983,1051.1,146.316z
		 M1127.179,145.042v-1.456c0-24.389-11.648-35.855-30.214-35.855c-18.929,0-30.213,13.287-30.213,36.401v1.456
		c0,24.025,12.923,35.492,28.939,35.492C1113.346,181.08,1127.179,169.432,1127.179,145.042z"/>
</g>
<g>
	<path style="fill:#FFFFFF;" d="M197.98,80l-8-8l-15.561-15.561c-0.281-0.281-0.663-0.439-1.061-0.439H160.65h-9.3h-12.709
		c-0.398,0-0.779,0.158-1.061,0.439L122.02,72l-8,8l-1.581,1.581c-0.281,0.281-0.439,0.663-0.439,1.061v22.009v93.85
		c0,0.828,0.672,1.5,1.5,1.5h13c0.828,0,1.5-0.672,1.5-1.5V89.271c0-0.398,0.158-0.779,0.439-1.061l15.771-15.771
		c0.281-0.281,0.663-0.439,1.061-0.439h21.457c0.398,0,0.779,0.158,1.061,0.439l15.771,15.771c0.281,0.281,0.439,0.663,0.439,1.061
		V118.5c0,0.828-0.672,1.5-1.5,1.5h-33c-0.828,0-1.5,0.672-1.5,1.5v13c0,0.828,0.672,1.5,1.5,1.5h33c0.828,0,1.5,0.672,1.5,1.5v61
		c0,0.828,0.672,1.5,1.5,1.5h13c0.828,0,1.5-0.672,1.5-1.5v-93.85V82.641c0-0.398-0.158-0.779-0.439-1.061L197.98,80z"/>
	<path style="fill:#FFFFFF;" d="M85.98,80l-8-8L62.419,56.439C62.138,56.158,61.756,56,61.359,56H48.65h-9.3H26.641
		c-0.398,0-0.779,0.158-1.061,0.439L10.02,72l-8,8l-1.581,1.581C0.158,81.862,0,82.243,0,82.641v22.009v93.85
		c0,0.828,0.672,1.5,1.5,1.5h13c0.828,0,1.5-0.672,1.5-1.5V89.271c0-0.398,0.158-0.779,0.439-1.061l15.771-15.771
		C32.492,72.158,32.874,72,33.271,72h21.457c0.398,0,0.779,0.158,1.061,0.439l15.771,15.771C71.842,88.492,72,88.873,72,89.271
		V118.5c0,0.828-0.672,1.5-1.5,1.5h-33c-0.828,0-1.5,0.672-1.5,1.5v13c0,0.828,0.672,1.5,1.5,1.5h33c0.828,0,1.5,0.672,1.5,1.5v61
		c0,0.828,0.672,1.5,1.5,1.5h13c0.828,0,1.5-0.672,1.5-1.5v-93.85V82.641c0-0.398-0.158-0.779-0.439-1.061L85.98,80z"/>
	<path style="fill:#FFFFFF;" d="M224,198.5v-77c0-0.828,0.672-1.5,1.5-1.5h13c0.828,0,1.5,0.672,1.5,1.5v77
		c0,0.828-0.672,1.5-1.5,1.5h-13C224.672,200,224,199.328,224,198.5z"/>
	<path style="fill:#3ADCC9;" d="M224,98.5v-13c0-0.828,0.672-1.5,1.5-1.5h13c0.828,0,1.5,0.672,1.5,1.5v13
		c0,0.828-0.672,1.5-1.5,1.5h-13C224.672,100,224,99.328,224,98.5z"/>
</g>
</svg>
