<?xml version="1.0" encoding="iso-8859-1"?>
<!-- Generator: Adobe Illustrator 27.5.0, SVG Export Plug-In . SVG Version: 6.00 Build 0)  -->
<svg version="1.1" id="Layer_1" xmlns="http://www.w3.org/2000/svg" xmlns:xlink="http://www.w3.org/1999/xlink" x="0px" y="0px"
	 viewBox="0 0 1165.74 256" style="enable-background:new 0 0 1165.74 256;" xml:space="preserve">
<g>
	<path d="M320,157.055V96.811h15.107v59.516c0,16.745,7.098,24.207,22.022,24.207c13.469,0,26.209-8.918,26.209-26.026V96.811
		h15.106V192h-15.106v-15.106c-4.368,8.918-14.924,16.744-30.213,16.744C334.197,193.638,320,183.264,320,157.055z"/>
	<path d="M429.017,96.811h15.106v15.106c4.368-8.918,14.925-16.745,30.577-16.745c19.657,0,33.489,10.739,33.489,38.404V192h-15.106
		v-59.517c0-16.744-7.098-24.206-22.387-24.206c-14.015,0-26.573,8.918-26.573,26.026V192h-15.106V96.811z"/>
	<path d="M530.753,146.316v-1.456c0-29.121,18.201-49.688,44.41-49.688c15.834,0,25.663,7.645,31.123,16.927v-60.79h15.107V192
		h-15.107v-16.381c-5.46,9.282-18.747,18.019-32.579,18.019C548.772,193.638,530.753,175.983,530.753,146.316z M606.832,145.042
		v-1.456c0-24.389-11.648-35.855-30.213-35.855c-18.929,0-30.213,13.287-30.213,36.401v1.456c0,24.025,12.923,35.492,28.939,35.492
		C593,181.08,606.832,169.432,606.832,145.042z"/>
	<path d="M644.868,145.406v-1.456c0-28.757,18.383-48.778,44.592-48.778c22.022,0,42.771,13.287,42.771,47.322v4.914H660.52
		c0.729,21.659,11.103,33.672,30.577,33.672c14.743,0,23.297-5.461,25.299-16.563h15.106c-3.275,19.111-19.11,29.121-40.587,29.121
		C663.978,193.638,644.868,174.709,644.868,145.406z M716.76,135.214c-1.456-19.657-11.648-27.483-27.301-27.483
		c-15.471,0-25.846,10.557-28.394,27.483H716.76z"/>
	<path d="M758.616,109.551h-13.65v-12.74h13.65V81.34c0-19.293,9.282-30.577,28.029-30.577c4.914,0,7.462,0.364,10.374,1.456v12.74
		c-2.729-1.092-5.642-1.638-9.828-1.638c-9.646,0-13.469,6.734-13.469,16.381v17.108h23.297v12.74h-23.297V192h-15.106V109.551z"/>
	<path d="M813.215,66.961c0-5.46,4.55-10.01,10.01-10.01c5.461,0,10.011,4.55,10.011,10.01c0,5.461-4.55,10.011-10.011,10.011
		C817.765,76.972,813.215,72.422,813.215,66.961z M815.945,96.811h15.106V192h-15.106V96.811z"/>
	<path d="M861.989,96.811h15.107v15.106c4.368-8.918,14.924-16.745,30.577-16.745c19.656,0,33.489,10.739,33.489,38.404V192h-15.107
		v-59.517c0-16.744-7.098-24.206-22.387-24.206c-14.014,0-26.572,8.918-26.572,26.026V192h-15.107V96.811z"/>
	<path d="M963.725,145.406v-1.456c0-28.757,18.383-48.778,44.592-48.778c22.022,0,42.771,13.287,42.771,47.322v4.914h-71.711
		c0.729,21.659,11.103,33.672,30.577,33.672c14.743,0,23.297-5.461,25.299-16.563h15.106c-3.275,19.111-19.11,29.121-40.587,29.121
		C982.835,193.638,963.725,174.709,963.725,145.406z M1035.618,135.214c-1.456-19.657-11.648-27.483-27.301-27.483
		c-15.471,0-25.846,10.557-28.394,27.483H1035.618z"/>
	<path d="M1067.1,146.316v-1.456c0-29.121,18.2-49.688,44.409-49.688c15.835,0,25.663,7.645,31.124,16.927v-60.79h15.106V192
		h-15.106v-16.381c-5.461,9.282-18.747,18.019-32.58,18.019C1085.119,193.638,1067.1,175.983,1067.1,146.316z M1143.179,145.042
		v-1.456c0-24.389-11.648-35.855-30.214-35.855c-18.929,0-30.213,13.287-30.213,36.401v1.456c0,24.025,12.923,35.492,28.939,35.492
		C1129.346,181.08,1143.179,169.432,1143.179,145.042z"/>
</g>
<g id="aa_x5F_incomecalc_x5F_core">
	<path d="M210.679,76.3l-8.533-8.533l-16.598-16.598c-0.3-0.3-0.707-0.469-1.131-0.469H170.86h-9.92h-13.556
		c-0.424,0-0.831,0.169-1.131,0.469l-16.598,16.598l-8.533,8.533l-1.686,1.686c-0.3,0.3-0.469,0.707-0.469,1.131v23.476V202.7
		c0,0.884,0.716,1.6,1.6,1.6h13.867c0.884,0,1.6-0.716,1.6-1.6V86.189c0-0.424,0.169-0.831,0.469-1.131l16.823-16.823
		c0.3-0.3,0.707-0.469,1.131-0.469h22.888c0.424,0,0.831,0.169,1.131,0.469l16.823,16.823c0.3,0.3,0.469,0.707,0.469,1.131v31.177
		c0,0.884-0.716,1.6-1.6,1.6h-35.2c-0.884,0-1.6,0.716-1.6,1.6v13.867c0,0.884,0.716,1.6,1.6,1.6h35.2c0.884,0,1.6,0.716,1.6,1.6
		V202.7c0,0.884,0.716,1.6,1.6,1.6h13.867c0.884,0,1.6-0.716,1.6-1.6V102.593V79.117c0-0.424-0.169-0.831-0.469-1.131L210.679,76.3z
		"/>
	<path d="M91.212,76.3l-8.533-8.533L66.081,51.169c-0.3-0.3-0.707-0.469-1.131-0.469H51.393h-9.92H27.917
		c-0.424,0-0.831,0.169-1.131,0.469L10.188,67.767L1.655,76.3l-1.686,1.686c-0.3,0.3-0.469,0.707-0.469,1.131v23.476V202.7
		c0,0.884,0.716,1.6,1.6,1.6h13.867c0.884,0,1.6-0.716,1.6-1.6V86.189c0-0.424,0.169-0.831,0.469-1.131l16.823-16.823
		c0.3-0.3,0.707-0.469,1.131-0.469h22.888c0.424,0,0.831,0.169,1.131,0.469l16.823,16.823c0.3,0.3,0.469,0.707,0.469,1.131v31.177
		c0,0.884-0.716,1.6-1.6,1.6H39.5c-0.884,0-1.6,0.716-1.6,1.6v13.867c0,0.884,0.716,1.6,1.6,1.6h35.2c0.884,0,1.6,0.716,1.6,1.6
		V202.7c0,0.884,0.716,1.6,1.6,1.6h13.867c0.884,0,1.6-0.716,1.6-1.6V102.593V79.117c0-0.424-0.169-0.831-0.469-1.131L91.212,76.3z"
		/>
	<path d="M238.433,202.8v-82.333c0-0.828,0.672-1.5,1.5-1.5H254c0.828,0,1.5,0.672,1.5,1.5V202.8c0,0.828-0.672,1.5-1.5,1.5h-14.067
		C239.105,204.3,238.433,203.628,238.433,202.8z"/>
	<path d="M238.433,96.133V82.067c0-0.828,0.672-1.5,1.5-1.5H254c0.828,0,1.5,0.672,1.5,1.5v14.067c0,0.828-0.672,1.5-1.5,1.5
		h-14.067C239.105,97.633,238.433,96.962,238.433,96.133z"/>
</g>
</svg>
