<?xml version="1.0" encoding="iso-8859-1"?>
<!-- Generator: Adobe Illustrator 27.5.0, SVG Export Plug-In . SVG Version: 6.00 Build 0)  -->
<svg version="1.1" id="Layer_1" xmlns="http://www.w3.org/2000/svg" xmlns:xlink="http://www.w3.org/1999/xlink" x="0px" y="0px"
	 viewBox="0 0 842.625 256" style="enable-background:new 0 0 842.625 256;" xml:space="preserve">
<g>
	<path style="fill:#808080;" d="M272,148.302v-39.865h14.399v38.199c0,9.401,3.927,13.686,12.257,13.686
		c7.735,0,14.519-4.998,14.519-14.875v-37.01h14.399v62.238h-14.399v-9.758c-3.094,6.068-9.639,10.948-19.754,10.948
		C281.164,171.865,272,164.844,272,148.302z"/>
	<path style="fill:#808080;" d="M344.59,108.437h14.399v9.877c2.975-6.069,9.877-11.187,20.111-11.187
		c12.496,0,21.302,7.26,21.302,24.396v39.152h-14.399v-37.843c0-9.401-3.808-13.686-12.376-13.686
		c-8.092,0-14.637,4.998-14.637,14.875v36.653H344.59V108.437z"/>
	<path style="fill:#808080;" d="M412.894,140.567v-0.952c0-19.874,11.781-32.488,27.966-32.488c10.115,0,16.422,4.642,19.874,10.829
		V79.638h14.399v91.037h-14.399v-10.473c-3.332,6.188-11.305,11.663-20.468,11.663C424.675,171.865,412.894,160.798,412.894,140.567
		z M461.209,139.853v-0.951c0-13.686-6.307-20.469-16.779-20.469c-10.591,0-16.78,7.378-16.78,20.825v0.952
		c0,13.686,6.902,20.23,16.185,20.23C453.831,160.44,461.209,153.776,461.209,139.853z"/>
	<path style="fill:#808080;" d="M488.102,140.21v-0.952c0-19.278,13.209-32.131,30.94-32.131c15.471,0,29.394,9.163,29.394,31.417
		v4.165h-45.578c0.476,11.781,6.426,18.445,17.136,18.445c8.688,0,13.209-3.451,14.28-9.521h13.924
		c-2.023,13.091-12.615,20.231-28.561,20.231C501.311,171.865,488.102,159.846,488.102,140.21z M534.156,133.069
		c-0.714-10.71-6.188-15.47-15.114-15.47c-8.687,0-14.518,5.831-15.946,15.47H534.156z"/>
	<path style="fill:#808080;" d="M563.784,119.266h-8.449v-10.829h8.449v-8.331c0-13.685,7.498-21.063,20.707-21.063
		c3.57,0,5.593,0.357,7.854,1.071V91.3c-1.666-0.714-3.451-0.952-6.069-0.952c-5.712,0-8.093,3.808-8.093,9.163v8.926h14.162v10.829
		h-14.162v51.409h-14.399V119.266z"/>
	<path style="fill:#808080;" d="M601.625,89.99c0-4.76,3.809-8.33,8.568-8.33c4.761,0,8.568,3.57,8.568,8.33
		c0,4.642-3.808,8.212-8.568,8.212C605.434,98.202,601.625,94.632,601.625,89.99z M603.172,108.437h14.399v62.238h-14.399V108.437z"
		/>
	<path style="fill:#808080;" d="M635.064,108.437h14.399v9.877c2.975-6.069,9.877-11.187,20.111-11.187
		c12.495,0,21.302,7.26,21.302,24.396v39.152h-14.399v-37.843c0-9.401-3.809-13.686-12.376-13.686
		c-8.093,0-14.638,4.998-14.638,14.875v36.653h-14.399V108.437z"/>
	<path style="fill:#808080;" d="M703.25,140.21v-0.952c0-19.278,13.209-32.131,30.94-32.131c15.471,0,29.394,9.163,29.394,31.417
		v4.165h-45.578c0.477,11.781,6.427,18.445,17.137,18.445c8.688,0,13.209-3.451,14.28-9.521h13.924
		c-2.023,13.091-12.614,20.231-28.561,20.231C716.458,171.865,703.25,159.846,703.25,140.21z M749.303,133.069
		c-0.714-10.71-6.188-15.47-15.113-15.47c-8.687,0-14.519,5.831-15.946,15.47H749.303z"/>
	<path style="fill:#808080;" d="M772.387,140.567v-0.952c0-19.874,11.781-32.488,27.966-32.488c10.115,0,16.422,4.642,19.873,10.829
		V79.638h14.399v91.037h-14.399v-10.473c-3.332,6.188-11.306,11.663-20.469,11.663C784.168,171.865,772.387,160.798,772.387,140.567
		z M820.703,139.853v-0.951c0-13.686-6.308-20.469-16.78-20.469c-10.591,0-16.779,7.378-16.779,20.825v0.952
		c0,13.686,6.902,20.23,16.185,20.23C813.324,160.44,820.703,153.776,820.703,139.853z"/>
</g>
<g>
	<g>
		<g>
			<path style="fill:#808080;" d="M192,41.5v53c0,0.828,0.672,1.5,1.5,1.5h13c0.828,0,1.5-0.672,1.5-1.5V40V25.5
				c0-0.828-0.672-1.5-1.5-1.5H192h-54.5c-0.828,0-1.5,0.672-1.5,1.5v13c0,0.828,0.672,1.5,1.5,1.5h53
				C191.328,40,192,40.672,192,41.5z"/>
			<path style="fill:#808080;" d="M137.5,96h13c0.828,0,1.5-0.672,1.5-1.5v-13c0-0.828-0.672-1.5-1.5-1.5h-13
				c-0.828,0-1.5,0.672-1.5,1.5v13C136,95.328,136.672,96,137.5,96z"/>
			<path style="fill:#808080;" d="M78.829,106.97L72,113.799l0-9.657l0-27.154C72,56.56,88.56,40,108.988,40h1.512
				c0.828,0,1.5-0.672,1.5-1.5V25.488c0-0.822-0.666-1.488-1.488-1.488h-1.524C79.723,24,56,47.723,56,76.988v27.154v9.657
				l-6.828-6.828L33.948,91.747c-0.586-0.586-1.536-0.586-2.121,0l-9.192,9.192c-0.586,0.586-0.586,1.536,0,2.121l40.305,40.305
				c0.586,0.586,1.536,0.586,2.121,0l40.305-40.305c0.586-0.586,0.586-1.536,0-2.121l-9.192-9.192c-0.586-0.586-1.536-0.586-2.121,0
				L78.829,106.97z"/>
		</g>
		<g>
			<path style="fill:#808080;" d="M16,214.5v-53c0-0.828-0.672-1.5-1.5-1.5h-13c-0.828,0-1.5,0.672-1.5,1.5V216v14.5
				c0,0.828,0.672,1.5,1.5,1.5H16h54.5c0.828,0,1.5-0.672,1.5-1.5v-13c0-0.828-0.672-1.5-1.5-1.5h-53
				C16.672,216,16,215.328,16,214.5z"/>
			<path style="fill:#808080;" d="M70.5,160h-13c-0.828,0-1.5,0.672-1.5,1.5v13c0,0.828,0.672,1.5,1.5,1.5h13
				c0.828,0,1.5-0.672,1.5-1.5v-13C72,160.672,71.328,160,70.5,160z"/>
			<path style="fill:#808080;" d="M129.171,149.03l6.828-6.828l0,9.657l0,27.154C136,199.44,119.44,216,99.012,216H97.5
				c-0.828,0-1.5,0.672-1.5,1.5v13.012c0,0.822,0.666,1.488,1.488,1.488h1.524C128.277,232,152,208.277,152,179.012v-27.154v-9.657
				l6.828,6.828l15.224,15.224c0.586,0.586,1.536,0.586,2.121,0l9.192-9.192c0.586-0.586,0.586-1.536,0-2.121l-40.305-40.305
				c-0.586-0.586-1.536-0.586-2.121,0l-40.305,40.305c-0.586,0.586-0.586,1.536,0,2.121l9.192,9.192
				c0.586,0.586,1.536,0.586,2.121,0L129.171,149.03z"/>
		</g>
	</g>
</g>
</svg>
