<?xml version="1.0" encoding="iso-8859-1"?>
<!-- Generator: Adobe Illustrator 27.5.0, SVG Export Plug-In . SVG Version: 6.00 Build 0)  -->
<svg version="1.1" id="Layer_1" xmlns="http://www.w3.org/2000/svg" xmlns:xlink="http://www.w3.org/1999/xlink" x="0px" y="0px"
	 viewBox="0 0 1165.74 256" style="enable-background:new 0 0 1165.74 256;" xml:space="preserve">
<g>
	<path style="fill:#FFFFFF;" d="M320,157.055V96.811h15.107v59.516c0,16.745,7.098,24.207,22.022,24.207
		c13.469,0,26.209-8.918,26.209-26.026V96.811h15.106V192h-15.106v-15.106c-4.368,8.918-14.924,16.744-30.213,16.744
		C334.197,193.638,320,183.264,320,157.055z"/>
	<path style="fill:#FFFFFF;" d="M429.017,96.811h15.106v15.106c4.368-8.918,14.925-16.745,30.577-16.745
		c19.657,0,33.489,10.739,33.489,38.404V192h-15.106v-59.517c0-16.744-7.098-24.206-22.387-24.206
		c-14.015,0-26.573,8.918-26.573,26.026V192h-15.106V96.811z"/>
	<path style="fill:#FFFFFF;" d="M530.753,146.316v-1.456c0-29.121,18.201-49.688,44.41-49.688c15.834,0,25.663,7.645,31.123,16.927
		v-60.79h15.107V192h-15.107v-16.381c-5.46,9.282-18.747,18.019-32.579,18.019C548.772,193.638,530.753,175.983,530.753,146.316z
		 M606.832,145.042v-1.456c0-24.389-11.648-35.855-30.213-35.855c-18.929,0-30.213,13.287-30.213,36.401v1.456
		c0,24.025,12.923,35.492,28.939,35.492C593,181.08,606.832,169.432,606.832,145.042z"/>
	<path style="fill:#FFFFFF;" d="M644.868,145.406v-1.456c0-28.757,18.383-48.778,44.592-48.778
		c22.022,0,42.771,13.287,42.771,47.322v4.914H660.52c0.729,21.659,11.103,33.672,30.577,33.672
		c14.743,0,23.297-5.461,25.299-16.563h15.106c-3.275,19.111-19.11,29.121-40.587,29.121
		C663.978,193.638,644.868,174.709,644.868,145.406z M716.76,135.214c-1.456-19.657-11.648-27.483-27.301-27.483
		c-15.471,0-25.846,10.557-28.394,27.483H716.76z"/>
	<path style="fill:#FFFFFF;" d="M758.616,109.551h-13.65v-12.74h13.65V81.34c0-19.293,9.282-30.577,28.029-30.577
		c4.914,0,7.462,0.364,10.374,1.456v12.74c-2.729-1.092-5.642-1.638-9.828-1.638c-9.646,0-13.469,6.734-13.469,16.381v17.108h23.297
		v12.74h-23.297V192h-15.106V109.551z"/>
	<path style="fill:#FFFFFF;" d="M813.215,66.961c0-5.46,4.55-10.01,10.01-10.01c5.461,0,10.011,4.55,10.011,10.01
		c0,5.461-4.55,10.011-10.011,10.011C817.765,76.972,813.215,72.422,813.215,66.961z M815.945,96.811h15.106V192h-15.106V96.811z"/>
	<path style="fill:#FFFFFF;" d="M861.989,96.811h15.107v15.106c4.368-8.918,14.924-16.745,30.577-16.745
		c19.656,0,33.489,10.739,33.489,38.404V192h-15.107v-59.517c0-16.744-7.098-24.206-22.387-24.206
		c-14.014,0-26.572,8.918-26.572,26.026V192h-15.107V96.811z"/>
	<path style="fill:#FFFFFF;" d="M963.725,145.406v-1.456c0-28.757,18.383-48.778,44.592-48.778
		c22.022,0,42.771,13.287,42.771,47.322v4.914h-71.711c0.729,21.659,11.103,33.672,30.577,33.672
		c14.743,0,23.297-5.461,25.299-16.563h15.106c-3.275,19.111-19.11,29.121-40.587,29.121
		C982.835,193.638,963.725,174.709,963.725,145.406z M1035.618,135.214c-1.456-19.657-11.648-27.483-27.301-27.483
		c-15.471,0-25.846,10.557-28.394,27.483H1035.618z"/>
	<path style="fill:#FFFFFF;" d="M1067.1,146.316v-1.456c0-29.121,18.2-49.688,44.409-49.688c15.835,0,25.663,7.645,31.124,16.927
		v-60.79h15.106V192h-15.106v-16.381c-5.461,9.282-18.747,18.019-32.58,18.019C1085.119,193.638,1067.1,175.983,1067.1,146.316z
		 M1143.179,145.042v-1.456c0-24.389-11.648-35.855-30.214-35.855c-18.929,0-30.213,13.287-30.213,36.401v1.456
		c0,24.025,12.923,35.492,28.939,35.492C1129.346,181.08,1143.179,169.432,1143.179,145.042z"/>
</g>
<g>
	<g id="benefits_x5F_broker_x5F_core">
		<path style="fill:#3ADCC9;" d="M162.462,41.231v173.538c0,1.02-0.827,1.846-1.846,1.846h-16c-1.02,0-1.846-0.827-1.846-1.846
			V41.231c0-1.02,0.827-1.846,1.846-1.846h16C161.635,39.385,162.462,40.211,162.462,41.231z"/>
		<path style="fill:#FFFFFF;" d="M108.16,128l-13.808-13.808c-0.721-0.721-0.721-1.89,0-2.611l8.492-8.492
			c0.346-0.346,0.541-0.816,0.541-1.305V83.692v-18.78c0-0.49-0.195-0.959-0.541-1.305l-4.53-4.53L79.162,39.925
			c-0.346-0.346-0.816-0.541-1.305-0.541H50.769H1.846C0.827,39.385,0,40.211,0,41.231v12.923v4.923v44.308v19.692v52.308
			c0,1.02,0.827,1.846,1.846,1.846h16c1.02,0,1.846-0.827,1.846-1.846v-50.462c0-1.02,0.827-1.846,1.846-1.846h33.465H74.62
			c0.49,0,0.959,0.195,1.305,0.541l3.189,3.188l18.807,18.807c0.346,0.346,0.541,0.816,0.541,1.305v25.462
			c0,0.489-0.194,0.959-0.54,1.305l-22.685,22.697c-0.346,0.346-0.816,0.541-1.306,0.541H1.846c-1.02,0-1.846,0.827-1.846,1.846v16
			c0,1.02,0.827,1.846,1.846,1.846h71.151h9.081c0.49,0,0.959-0.195,1.305-0.541l10.155-10.155l8.997-8.997l15.077-15.065
			c0.347-0.346,0.541-0.816,0.541-1.306v-23.013v-8.295v-10.485c0-0.49-0.195-0.959-0.541-1.305L108.16,128z M75.224,102.844
			c-0.346,0.346-0.816,0.541-1.305,0.541H55.692H21.538c-1.02,0-1.846-0.827-1.846-1.846V60.923c0-1.02,0.827-1.846,1.846-1.846
			h48.159c0.489,0,0.959,0.194,1.305,0.54l12.149,12.137c0.347,0.346,0.541,0.816,0.541,1.306v20.55c0,0.49-0.195,0.959-0.541,1.305
			l-4.038,4.038L75.224,102.844z"/>
		<path style="fill:#FFFFFF;" d="M246.006,128l-13.808-13.808c-0.721-0.721-0.721-1.89,0-2.611l8.492-8.492
			c0.346-0.346,0.541-0.816,0.541-1.305V83.692v-18.78c0-0.49-0.195-0.959-0.541-1.305l-4.53-4.53l-19.152-19.152
			c-0.346-0.346-0.816-0.541-1.305-0.541h-27.088H184c-1.02,0-1.846,0.827-1.846,1.846v16c0,1.02,0.827,1.846,1.846,1.846h23.543
			c0.489,0,0.959,0.194,1.305,0.54l12.149,12.137c0.347,0.346,0.541,0.816,0.541,1.306v20.55c0,0.49-0.195,0.959-0.541,1.305
			l-4.038,4.038l-3.89,3.89c-0.346,0.346-0.816,0.541-1.305,0.541h-18.226H184c-1.02,0-1.846,0.827-1.846,1.846v16
			c0,1.02,0.827,1.846,1.846,1.846h8.849h19.617c0.49,0,0.959,0.195,1.305,0.541l3.189,3.188l18.807,18.807
			c0.346,0.346,0.541,0.816,0.541,1.305v25.462c0,0.489-0.194,0.959-0.54,1.305l-22.685,22.697
			c-0.346,0.346-0.816,0.541-1.306,0.541H184c-1.02,0-1.846,0.827-1.846,1.846v16c0,1.02,0.827,1.846,1.846,1.846h26.843h9.081
			c0.49,0,0.959-0.195,1.305-0.541l10.155-10.155l8.997-8.997l15.077-15.065c0.347-0.346,0.541-0.816,0.541-1.306v-23.013v-8.295
			v-10.485c0-0.49-0.195-0.959-0.541-1.305L246.006,128z"/>
	</g>
</g>
</svg>
