<?xml version="1.0" encoding="iso-8859-1"?>
<!-- Generator: Adobe Illustrator 27.5.0, SVG Export Plug-In . SVG Version: 6.00 Build 0)  -->
<svg version="1.1" xmlns="http://www.w3.org/2000/svg" xmlns:xlink="http://www.w3.org/1999/xlink" x="0px" y="0px"
	 viewBox="0 0 1024 512" style="enable-background:new 0 0 1024 512;" xml:space="preserve">
<pattern  y="-784" width="256" height="256" patternUnits="userSpaceOnUse" id="WTW_x5F_Stratosphere_x5F_Diagonal_x5F_1" viewBox="0 -256 256 256" style="overflow:visible;">
	<g>
		<rect y="-256" style="fill:none;" width="256" height="256"/>
		<rect y="-256" style="fill:#345499;" width="256" height="256"/>
		<polygon style="fill:#327FEF;" points="152.897,0 256,-103.103 256,-108.76 147.24,0 		"/>
		<polygon style="fill:#327FEF;" points="29.311,0 256,-226.689 256,-232.346 23.654,0 		"/>
		<polygon style="fill:#327FEF;" points="11.656,0 256,-244.344 256,-250.001 5.999,0 		"/>
		<polygon style="fill:#327FEF;" points="161.725,0 256,-94.275 256,-99.932 156.068,0 		"/>
		<polygon style="fill:#327FEF;" points="20.484,0 256,-235.516 256,-241.173 14.827,0 		"/>
		<polygon style="fill:#327FEF;" points="170.552,0 256,-85.448 256,-91.104 164.896,0 		"/>
		<polygon style="fill:#327FEF;" points="64.621,0 256,-191.379 256,-197.035 58.965,0 		"/>
		<polygon style="fill:#327FEF;" points="82.277,0 256,-173.723 256,-179.38 76.62,0 		"/>
		<polygon style="fill:#327FEF;" points="99.932,0 256,-156.068 256,-161.725 94.275,0 		"/>
		<polygon style="fill:#327FEF;" points="108.759,0 256,-147.241 256,-152.898 103.103,0 		"/>
		<polygon style="fill:#327FEF;" points="91.104,0 256,-164.896 256,-170.553 85.447,0 		"/>
		<polygon style="fill:#327FEF;" points="73.449,0 256,-182.551 256,-188.208 67.792,0 		"/>
		<polygon style="fill:#327FEF;" points="55.794,0 256,-200.206 256,-205.863 50.137,0 		"/>
		<polygon style="fill:#327FEF;" points="144.07,0 256,-111.93 256,-117.587 138.413,0 		"/>
		<polygon style="fill:#327FEF;" points="135.242,0 256,-120.758 256,-126.415 129.585,0 		"/>
		<polygon style="fill:#327FEF;" points="38.139,0 256,-217.861 256,-223.518 32.482,0 		"/>
		<polygon style="fill:#327FEF;" points="46.966,0 256,-209.034 256,-214.691 41.309,0 		"/>
		<polygon style="fill:#327FEF;" points="117.587,0 256,-138.413 256,-144.07 111.93,0 		"/>
		<polygon style="fill:#327FEF;" points="126.415,0 256,-129.585 256,-135.242 120.758,0 		"/>
		<polygon style="fill:#327FEF;" points="197.035,0 256,-58.965 256,-64.622 191.378,0 		"/>
		<polygon style="fill:#327FEF;" points="156.068,-256 0,-99.932 0,-94.275 161.725,-256 		"/>
		<polygon style="fill:#327FEF;" points="41.309,-256 0,-214.691 0,-209.034 46.966,-256 		"/>
		<polygon style="fill:#327FEF;" points="164.896,-256 0,-91.104 0,-85.448 170.552,-256 		"/>
		<polygon style="fill:#327FEF;" points="147.24,-256 0,-108.76 0,-103.103 152.897,-256 		"/>
		<polygon style="fill:#327FEF;" points="32.482,-256 0,-223.518 0,-217.861 38.139,-256 		"/>
		<polygon style="fill:#327FEF;" points="173.723,-256 0,-82.277 0,-76.62 179.38,-256 		"/>
		<polygon style="fill:#327FEF;" points="50.137,-256 0,-205.863 0,-200.206 55.794,-256 		"/>
		<polygon style="fill:#327FEF;" points="179.38,0 256,-76.62 256,-82.277 173.723,0 		"/>
		<polygon style="fill:#327FEF;" points="182.551,-256 0,-73.449 0,-67.792 188.208,-256 		"/>
		<polygon style="fill:#327FEF;" points="111.93,-256 0,-144.07 0,-138.413 117.587,-256 		"/>
		<polygon style="fill:#327FEF;" points="103.103,-256 0,-152.897 0,-147.241 108.759,-256 		"/>
		<polygon style="fill:#327FEF;" points="94.275,-256 0,-161.725 0,-156.068 99.932,-256 		"/>
		<polygon style="fill:#327FEF;" points="67.792,-256 0,-188.208 0,-182.551 73.449,-256 		"/>
		<polygon style="fill:#327FEF;" points="76.62,-256 0,-179.38 0,-173.723 82.277,-256 		"/>
		<polygon style="fill:#327FEF;" points="120.758,-256 0,-135.242 0,-129.585 126.415,-256 		"/>
		<polygon style="fill:#327FEF;" points="129.585,-256 0,-126.415 0,-120.758 135.242,-256 		"/>
		<polygon style="fill:#327FEF;" points="58.965,-256 0,-197.035 0,-191.379 64.621,-256 		"/>
		<polygon style="fill:#327FEF;" points="200.206,-256 0,-55.794 0,-50.137 205.863,-256 		"/>
		<polygon style="fill:#327FEF;" points="138.413,-256 0,-117.587 0,-111.93 144.07,-256 		"/>
		<polygon style="fill:#327FEF;" points="191.379,-256 0,-64.622 0,-58.965 197.035,-256 		"/>
		<polygon style="fill:#327FEF;" points="223.518,0 256,-32.482 256,-38.139 217.861,0 		"/>
		<polygon style="fill:#327FEF;" points="241.173,0 256,-14.827 256,-20.484 235.516,0 		"/>
		<polygon style="fill:#327FEF;" points="232.346,0 256,-23.654 256,-29.311 226.689,0 		"/>
		<polygon style="fill:#327FEF;" points="0,-256 0,-253.172 2.828,-256 		"/>
		<polygon style="fill:#327FEF;" points="188.208,0 256,-67.792 256,-73.449 182.551,0 		"/>
		<polygon style="fill:#327FEF;" points="85.447,-256 0,-170.553 0,-164.896 91.104,-256 		"/>
		<polygon style="fill:#327FEF;" points="250.001,0 256,-5.999 256,-11.656 244.344,0 		"/>
		<polygon style="fill:#327FEF;" points="214.69,0 256,-41.31 256,-46.966 209.034,0 		"/>
		<polygon style="fill:#327FEF;" points="23.654,-256 0,-232.346 0,-226.689 29.311,-256 		"/>
		<polygon style="fill:#327FEF;" points="205.863,0 256,-50.137 256,-55.794 200.206,0 		"/>
		<polygon style="fill:#327FEF;" points="217.861,-256 0,-38.139 0,-32.482 223.518,-256 		"/>
		<polygon style="fill:#327FEF;" points="14.827,-256 0,-241.173 0,-235.516 20.484,-256 		"/>
		<polygon style="fill:#327FEF;" points="209.034,-256 0,-46.966 0,-41.31 214.691,-256 		"/>
		<polygon style="fill:#327FEF;" points="226.689,-256 0,-29.311 0,-23.654 232.346,-256 		"/>
		<polygon style="fill:#327FEF;" points="256,0 256,-2.828 253.172,0 		"/>
		<polygon style="fill:#327FEF;" points="256,-256 253.172,-256 0,-2.828 0,0 2.828,0 256,-253.172 		"/>
		<polygon style="fill:#327FEF;" points="244.344,-256 0,-11.656 0,-5.999 250.001,-256 		"/>
		<polygon style="fill:#327FEF;" points="235.516,-256 0,-20.484 0,-14.827 241.173,-256 		"/>
		<polygon style="fill:#327FEF;" points="5.999,-256 0,-250.001 0,-244.344 11.656,-256 		"/>
	</g>
</pattern>
<g id="Layer_1">
	<g id="Main_x5F_Purple_x5F_BG_x5F_layer">
	</g>
</g>
<g id="crop">
	<g>
		<defs>
			<rect id="SVGID_1_" width="1024" height="512"/>
		</defs>
		<clipPath id="SVGID_00000137102038140480445090000015483589117662200250_">
			<use xlink:href="#SVGID_1_"  style="overflow:visible;"/>
		</clipPath>
		
			<rect style="clip-path:url(#SVGID_00000137102038140480445090000015483589117662200250_);fill:#48086F;" width="1024" height="512"/>
		<g style="clip-path:url(#SVGID_00000137102038140480445090000015483589117662200250_);">
			<path style="fill:#FFFFFF;" d="M67.65,103.802V83.839H63v-4.34h4.65v-7.378h5.146v7.378h7.563v4.34h-7.563v19.467
				c0,3.161,1.426,4.711,4.03,4.711c1.612,0,2.852-0.247,3.968-0.682v4.34c-1.054,0.372-2.294,0.682-4.402,0.682
				C70.501,112.356,67.65,108.885,67.65,103.802z"/>
			<path style="fill:#FFFFFF;" d="M88.543,79.499h5.146v5.827c2.046-3.657,4.835-6.199,10.663-6.386v4.836
				c-6.509,0.311-10.663,2.355-10.663,10.354v17.793h-5.146V79.499z"/>
			<path style="fill:#FFFFFF;" d="M108.507,96.052v-0.496c0-9.795,6.261-16.615,15.189-16.615c7.501,0,14.569,4.526,14.569,16.119
				v1.674h-24.427c0.248,7.378,3.782,11.47,10.416,11.47c5.021,0,7.936-1.86,8.617-5.642h5.146c-1.116,6.51-6.51,9.919-13.825,9.919
				C115.017,112.48,108.507,106.033,108.507,96.052z M132.996,92.58c-0.496-6.695-3.968-9.361-9.299-9.361
				c-5.27,0-8.804,3.596-9.671,9.361H132.996z"/>
			<path style="fill:#FFFFFF;" d="M146.141,64h5.146v30.439l13.453-14.94h6.014l-13.887,15.064l15.065,17.359h-6.261l-14.383-16.801
				v16.801h-5.146V64z"/>
			<path style="fill:#FFFFFF;" d="M178.132,64h5.146v30.439l13.453-14.94h6.014l-13.887,15.064l15.065,17.359h-6.261l-14.383-16.801
				v16.801h-5.146V64z"/>
			<path style="fill:#FFFFFF;" d="M206.466,96.052v-0.496c0-9.795,6.261-16.615,15.189-16.615c7.501,0,14.569,4.526,14.569,16.119
				v1.674h-24.427c0.248,7.378,3.782,11.47,10.416,11.47c5.021,0,7.936-1.86,8.617-5.642h5.146c-1.116,6.51-6.51,9.919-13.825,9.919
				C212.976,112.48,206.466,106.033,206.466,96.052z M230.955,92.58c-0.496-6.695-3.968-9.361-9.299-9.361
				c-5.27,0-8.804,3.596-9.671,9.361H230.955z"/>
			<path style="fill:#FFFFFF;" d="M244.1,79.499h5.146v5.827c2.046-3.657,4.835-6.199,10.663-6.386v4.836
				c-6.509,0.311-10.663,2.355-10.663,10.354v17.793H244.1V79.499z"/>
		</g>
		<g style="clip-path:url(#SVGID_00000137102038140480445090000015483589117662200250_);">
			
				<pattern  id="SVGID_00000083808819759339066730000007646363927140871608_" xlink:href="#WTW_x5F_Stratosphere_x5F_Diagonal_x5F_1" patternTransform="matrix(2.2115 0 0 2.2115 9257.4229 7422.1924)">
			</pattern>
			<path style="fill:url(#SVGID_00000083808819759339066730000007646363927140871608_);" d="M995.115,99.202v117.212
				c0,1.832,1.485,3.317,3.317,3.317h28.75c1.832,0,3.317-1.485,3.317-3.317V95.885V63.817c0-1.832-1.485-3.317-3.317-3.317h-32.067
				H874.587c-1.832,0-3.317,1.485-3.317,3.317v28.75c0,1.832,1.485,3.317,3.317,3.317h117.212
				C993.63,95.885,995.115,97.37,995.115,99.202z"/>
			
				<pattern  id="SVGID_00000016042910972898760780000013773598560680462267_" xlink:href="#WTW_x5F_Stratosphere_x5F_Diagonal_x5F_1" patternTransform="matrix(2.2115 0 0 2.2115 9257.4229 7422.1924)">
			</pattern>
			<path style="fill:url(#SVGID_00000016042910972898760780000013773598560680462267_);" d="M872.769,219.731h32.385
				c0.828,0,1.5-0.672,1.5-1.5v-32.385c0-0.828-0.672-1.5-1.5-1.5h-32.385c-0.828,0-1.5,0.672-1.5,1.5v32.385
				C871.269,219.059,871.941,219.731,872.769,219.731z"/>
			
				<pattern  id="SVGID_00000158735628411500245000000007734630777537020829_" xlink:href="#WTW_x5F_Stratosphere_x5F_Diagonal_x5F_1" patternTransform="matrix(2.2115 0 0 2.2115 9257.4229 7422.1924)">
			</pattern>
			<path style="fill:url(#SVGID_00000158735628411500245000000007734630777537020829_);" d="M744.832,243.992l-15.101,15.101
				l0-21.356l0-60.052c0-45.177,36.623-81.801,81.8-81.801h3.344c1.832,0,3.317-1.485,3.317-3.317V63.791
				c0-1.817-1.473-3.291-3.291-3.291h-3.371c-64.719,0-117.185,52.465-117.185,117.185v60.052v21.356l-15.101-15.101l-33.668-33.667
				c-1.295-1.295-3.396-1.295-4.691,0l-20.329,20.329c-1.296,1.295-1.296,3.396,0,4.691l89.136,89.136
				c1.296,1.296,3.396,1.296,4.691,0l89.136-89.136c1.295-1.295,1.295-3.396,0-4.691l-20.329-20.329
				c-1.296-1.295-3.396-1.295-4.691,0L744.832,243.992z"/>
		</g>
		<g style="clip-path:url(#SVGID_00000137102038140480445090000015483589117662200250_);">
			<path style="fill:#7F35B2;" d="M605.885,481.798V364.587c0-1.832-1.485-3.317-3.317-3.317h-28.75
				c-1.832,0-3.317,1.485-3.317,3.317v120.529v32.067c0,1.832,1.485,3.317,3.317,3.317h32.067h120.529
				c1.832,0,3.317-1.485,3.317-3.317v-28.75c0-1.832-1.485-3.317-3.317-3.317H609.202
				C607.37,485.115,605.885,483.63,605.885,481.798z"/>
			<path style="fill:#7F35B2;" d="M728.231,361.269h-32.385c-0.828,0-1.5,0.672-1.5,1.5v32.385c0,0.828,0.672,1.5,1.5,1.5h32.385
				c0.828,0,1.5-0.672,1.5-1.5v-32.385C729.731,361.941,729.059,361.269,728.231,361.269z"/>
			<path style="fill:#7F35B2;" d="M856.168,337.008l15.101-15.101l0,21.356l0,60.052c0,45.177-36.623,81.801-81.8,81.801h-3.344
				c-1.832,0-3.317,1.485-3.317,3.317v28.777c0,1.817,1.473,3.291,3.291,3.291h3.371c64.719,0,117.185-52.465,117.185-117.185
				v-60.052v-21.356l15.101,15.101l33.668,33.667c1.295,1.295,3.396,1.295,4.691,0l20.329-20.329c1.296-1.296,1.296-3.396,0-4.691
				l-89.136-89.136c-1.296-1.295-3.396-1.295-4.691,0l-89.136,89.136c-1.295,1.296-1.295,3.396,0,4.691l20.329,20.329
				c1.296,1.296,3.396,1.296,4.691,0L856.168,337.008z"/>
		</g>
		<g style="clip-path:url(#SVGID_00000137102038140480445090000015483589117662200250_);">
			<g>
				<defs>
					<rect id="SVGID_00000062157561152337913580000004385107537186389911_" x="62" y="405" width="155" height="50"/>
				</defs>
				<clipPath id="SVGID_00000052078870147673790100000005372653459893732756_">
					<use xlink:href="#SVGID_00000062157561152337913580000004385107537186389911_"  style="overflow:visible;"/>
				</clipPath>
				<g style="clip-path:url(#SVGID_00000052078870147673790100000005372653459893732756_);">
					<defs>
						<rect id="SVGID_00000168109075516483216490000014768487912558107320_" x="62" y="405" width="155" height="50"/>
					</defs>
					<clipPath id="SVGID_00000130619559715789942140000010745287887785732256_">
						<use xlink:href="#SVGID_00000168109075516483216490000014768487912558107320_"  style="overflow:visible;"/>
					</clipPath>
					<path style="clip-path:url(#SVGID_00000130619559715789942140000010745287887785732256_);fill:#FFFFFF;" d="M217,414.83
						l-15.2,39.27H189l-6.4-21.93l-6.45,21.93h-12.79l-11.24-29.29h-7V438c0,6.19,2.5,7.21,5.92,7.21
						c0.906-0.018,1.808-0.132,2.69-0.34l3.5,9.12c-2.726,0.668-5.523,1.004-8.33,1c-11.72,0-16.72-4.79-16.72-16v-14.18h-5.34
						l-11.33,29.29h-12.8l-6.39-21.93l-6.47,21.93H77.06L62,414.83h14.51l7.57,23.73l7.22-23.73h10l7.29,23.73l7.53-23.73h16.06
						v-7.06l12.94-2.77v9.83h17.69l7.56,23.73l7.22-23.73h10l7.29,23.73l7.5-23.73H217z"/>
				</g>
			</g>
		</g>
	</g>
</g>
</svg>
