<?xml version="1.0" encoding="iso-8859-1"?>
<!-- Generator: Adobe Illustrator 27.5.0, SVG Export Plug-In . SVG Version: 6.00 Build 0)  -->
<svg version="1.1" xmlns="http://www.w3.org/2000/svg" xmlns:xlink="http://www.w3.org/1999/xlink" x="0px" y="0px"
	 viewBox="0 0 1024 512" style="enable-background:new 0 0 1024 512;" xml:space="preserve">
<g id="Layer_1">
	<g id="Main_x5F_Purple_x5F_BG_x5F_layer">
	</g>
</g>
<g id="crop">
	<g>
		<defs>
			<rect id="SVGID_1_" width="1024" height="512"/>
		</defs>
		<clipPath id="SVGID_00000090990709879454186170000002182791029377613737_">
			<use xlink:href="#SVGID_1_"  style="overflow:visible;"/>
		</clipPath>
		
			<rect style="clip-path:url(#SVGID_00000090990709879454186170000002182791029377613737_);fill:#48086F;stroke:#000000;stroke-miterlimit:10;" width="1024" height="512"/>
		<g style="clip-path:url(#SVGID_00000090990709879454186170000002182791029377613737_);">
			<path style="fill:#FFFFFF;" d="M63,100.206V79.686h5.146v20.272c0,5.704,2.418,8.245,7.501,8.245
				c4.588,0,8.928-3.037,8.928-8.865V79.686h5.146v32.424h-5.146v-5.146c-1.488,3.038-5.084,5.703-10.292,5.703
				C67.835,112.667,63,109.134,63,100.206z"/>
			<path style="fill:#FFFFFF;" d="M100.137,79.686h5.146v5.146c1.488-3.038,5.083-5.704,10.416-5.704
				c6.695,0,11.407,3.658,11.407,13.082v19.9h-5.146V91.837c0-5.704-2.417-8.246-7.625-8.246c-4.773,0-9.051,3.038-9.051,8.865
				v19.653h-5.146V79.686z"/>
			<path style="fill:#FFFFFF;" d="M134.795,96.548v-0.495c0-9.92,6.199-16.926,15.127-16.926c5.394,0,8.742,2.604,10.602,5.766
				V64.187h5.146v47.923h-5.146v-5.58c-1.86,3.162-6.386,6.138-11.098,6.138C140.933,112.667,134.795,106.653,134.795,96.548z
				 M160.71,96.114v-0.496c0-8.308-3.968-12.213-10.292-12.213c-6.448,0-10.292,4.525-10.292,12.399V96.3
				c0,8.184,4.402,12.09,9.857,12.09C155.998,108.39,160.71,104.422,160.71,96.114z"/>
			<path style="fill:#FFFFFF;" d="M173.669,96.238v-0.496c0-9.795,6.261-16.615,15.189-16.615c7.501,0,14.569,4.526,14.569,16.119
				v1.674h-24.427c0.248,7.378,3.782,11.47,10.416,11.47c5.021,0,7.936-1.86,8.617-5.642h5.146c-1.116,6.51-6.51,9.919-13.825,9.919
				C180.179,112.667,173.669,106.22,173.669,96.238z M198.158,92.767c-0.496-6.695-3.968-9.361-9.299-9.361
				c-5.27,0-8.804,3.596-9.671,9.361H198.158z"/>
			<path style="fill:#FFFFFF;" d="M212.419,84.025h-4.65v-4.34h4.65v-5.27c0-6.572,3.162-10.416,9.547-10.416
				c1.674,0,2.542,0.124,3.534,0.496v4.34c-0.93-0.372-1.922-0.558-3.348-0.558c-3.286,0-4.588,2.293-4.588,5.579v5.828h7.936v4.34
				h-7.936v28.084h-5.146V84.025z"/>
			<path style="fill:#FFFFFF;" d="M231.019,69.518c0-1.859,1.55-3.409,3.41-3.409s3.41,1.55,3.41,3.409c0,1.86-1.55,3.41-3.41,3.41
				S231.019,71.378,231.019,69.518z M231.948,79.686h5.146v32.424h-5.146V79.686z"/>
			<path style="fill:#FFFFFF;" d="M247.634,79.686h5.146v5.146c1.488-3.038,5.083-5.704,10.416-5.704
				c6.695,0,11.407,3.658,11.407,13.082v19.9h-5.146V91.837c0-5.704-2.417-8.246-7.625-8.246c-4.773,0-9.051,3.038-9.051,8.865
				v19.653h-5.146V79.686z"/>
			<path style="fill:#FFFFFF;" d="M282.292,96.238v-0.496c0-9.795,6.261-16.615,15.189-16.615c7.501,0,14.569,4.526,14.569,16.119
				v1.674h-24.427c0.248,7.378,3.782,11.47,10.416,11.47c5.021,0,7.936-1.86,8.617-5.642h5.146c-1.116,6.51-6.51,9.919-13.825,9.919
				C288.801,112.667,282.292,106.22,282.292,96.238z M306.78,92.767c-0.496-6.695-3.968-9.361-9.299-9.361
				c-5.27,0-8.804,3.596-9.671,9.361H306.78z"/>
			<path style="fill:#FFFFFF;" d="M317.507,96.548v-0.495c0-9.92,6.199-16.926,15.127-16.926c5.394,0,8.742,2.604,10.602,5.766
				V64.187h5.146v47.923h-5.146v-5.58c-1.86,3.162-6.386,6.138-11.098,6.138C323.645,112.667,317.507,106.653,317.507,96.548z
				 M343.422,96.114v-0.496c0-8.308-3.968-12.213-10.292-12.213c-6.448,0-10.292,4.525-10.292,12.399V96.3
				c0,8.184,4.402,12.09,9.857,12.09C338.71,108.39,343.422,104.422,343.422,96.114z"/>
		</g>
		
			<g id="aa_x5F_incomecalc_x5F_core_00000148648284358269417210000016391387678638884792_" style="clip-path:url(#SVGID_00000090990709879454186170000002182791029377613737_);">
			<path style="fill:#FFFFFF;" d="M949.962,198.5l-15.333-15.333l-29.825-29.825c-0.539-0.539-1.27-0.842-2.033-0.842h-24.358
				h-17.825h-24.358c-0.763,0-1.494,0.303-2.033,0.842l-29.825,29.825L789.038,198.5l-3.03,3.03
				c-0.539,0.539-0.842,1.27-0.842,2.033v42.183v179.879c0,1.588,1.287,2.875,2.875,2.875h24.917c1.588,0,2.875-1.287,2.875-2.875
				V216.27c0-0.762,0.303-1.494,0.842-2.033l30.228-30.228c0.539-0.539,1.27-0.842,2.033-0.842h41.126
				c0.763,0,1.494,0.303,2.033,0.842l30.228,30.228c0.539,0.539,0.842,1.27,0.842,2.033v56.022c0,1.588-1.287,2.875-2.875,2.875
				h-63.25c-1.588,0-2.875,1.287-2.875,2.875v24.917c0,1.588,1.287,2.875,2.875,2.875h63.25c1.588,0,2.875,1.287,2.875,2.875
				v116.917c0,1.588,1.287,2.875,2.875,2.875h24.917c1.588,0,2.875-1.287,2.875-2.875V245.746v-42.183
				c0-0.763-0.303-1.494-0.842-2.033L949.962,198.5z"/>
			<path style="fill:#FFFFFF;" d="M735.295,198.5l-15.333-15.333l-29.825-29.825c-0.539-0.539-1.27-0.842-2.033-0.842h-24.358
				h-17.825h-24.358c-0.763,0-1.494,0.303-2.033,0.842l-29.825,29.825L574.372,198.5l-3.03,3.03
				c-0.539,0.539-0.842,1.27-0.842,2.033v42.183v179.879c0,1.588,1.287,2.875,2.875,2.875h24.917c1.588,0,2.875-1.287,2.875-2.875
				V216.27c0-0.762,0.303-1.494,0.842-2.033l30.228-30.228c0.539-0.539,1.27-0.842,2.033-0.842h41.127
				c0.762,0,1.494,0.303,2.033,0.842l30.228,30.228c0.539,0.539,0.842,1.27,0.842,2.033v56.022c0,1.588-1.287,2.875-2.875,2.875
				h-63.25c-1.588,0-2.875,1.287-2.875,2.875v24.917c0,1.588,1.287,2.875,2.875,2.875h63.25c1.588,0,2.875,1.287,2.875,2.875
				v116.917c0,1.588,1.287,2.875,2.875,2.875h24.917c1.588,0,2.875-1.287,2.875-2.875V245.746v-42.183
				c0-0.763-0.303-1.494-0.842-2.033L735.295,198.5z"/>
			<path style="fill:#FFFFFF;" d="M999.833,427V276.667c0-0.828,0.672-1.5,1.5-1.5H1029c0.828,0,1.5,0.672,1.5,1.5V427
				c0,0.828-0.672,1.5-1.5,1.5h-27.667C1000.505,428.5,999.833,427.828,999.833,427z"/>
			<g>
				<polygon style="fill:#339781;" points="1030.5,220.351 1014.018,236.833 1020.095,236.833 1030.5,226.429 				"/>
				<path style="fill:#339781;" d="M1030.5,209.042c0-1.544-1.22-2.794-2.748-2.862l-27.906,27.906
					c0.068,1.527,1.318,2.748,2.862,2.748h0.467l27.324-27.324V209.042z"/>
				<polygon style="fill:#339781;" points="1010.846,206.167 999.833,217.179 999.833,223.256 1016.923,206.167 				"/>
				<path style="fill:#3ADCC9;" d="M1002.708,206.167c-1.588,0-2.875,1.287-2.875,2.875v8.137l11.012-11.012H1002.708z"/>
				<path style="fill:#3ADCC9;" d="M1020.095,236.833h7.53c1.588,0,2.875-1.287,2.875-2.875v-7.53L1020.095,236.833z"/>
				<polygon style="fill:#3ADCC9;" points="1030.5,209.509 1003.176,236.833 1014.018,236.833 1030.5,220.351 				"/>
				<path style="fill:#3ADCC9;" d="M1027.625,206.167h-10.702l-17.09,17.09v10.702c0,0.044,0.011,0.084,0.013,0.127l27.906-27.906
					C1027.709,206.178,1027.669,206.167,1027.625,206.167z"/>
			</g>
		</g>
		<g style="clip-path:url(#SVGID_00000090990709879454186170000002182791029377613737_);">
			<g>
				<defs>
					<rect id="SVGID_00000129207929349490948880000013782091568918785941_" x="62" y="405" width="155" height="50"/>
				</defs>
				<clipPath id="SVGID_00000008829120742017321770000000797203801069076411_">
					<use xlink:href="#SVGID_00000129207929349490948880000013782091568918785941_"  style="overflow:visible;"/>
				</clipPath>
				<g style="clip-path:url(#SVGID_00000008829120742017321770000000797203801069076411_);">
					<defs>
						<rect id="SVGID_00000080175734755786007310000004900631126147192504_" x="62" y="405" width="155" height="50"/>
					</defs>
					<clipPath id="SVGID_00000124149117894614057990000008777233503395365256_">
						<use xlink:href="#SVGID_00000080175734755786007310000004900631126147192504_"  style="overflow:visible;"/>
					</clipPath>
					<path style="clip-path:url(#SVGID_00000124149117894614057990000008777233503395365256_);fill:#FFFFFF;" d="M217,414.83
						l-15.2,39.27H189l-6.4-21.93l-6.45,21.93h-12.79l-11.24-29.29h-7V438c0,6.19,2.5,7.21,5.92,7.21
						c0.906-0.018,1.808-0.132,2.69-0.34l3.5,9.12c-2.726,0.668-5.523,1.004-8.33,1c-11.72,0-16.72-4.79-16.72-16v-14.18h-5.34
						l-11.33,29.29h-12.8l-6.39-21.93l-6.47,21.93H77.06L62,414.83h14.51l7.57,23.73l7.22-23.73h10l7.29,23.73l7.53-23.73h16.06
						v-7.06l12.94-2.77v9.83h17.69l7.56,23.73l7.22-23.73h10l7.29,23.73l7.5-23.73H217z"/>
				</g>
			</g>
		</g>
	</g>
</g>
</svg>
