<?xml version="1.0" encoding="iso-8859-1"?>
<!-- Generator: Adobe Illustrator 27.5.0, SVG Export Plug-In . SVG Version: 6.00 Build 0)  -->
<svg version="1.1" id="Layer_1" xmlns="http://www.w3.org/2000/svg" xmlns:xlink="http://www.w3.org/1999/xlink" x="0px" y="0px"
	 viewBox="0 0 256 256" style="enable-background:new 0 0 256 256;" xml:space="preserve">
<path style="fill:#FFFFFF;" d="M232,98.5v-13c0-0.828,0.672-1.5,1.5-1.5h13c0.828,0,1.5,0.672,1.5,1.5v13c0,0.828-0.672,1.5-1.5,1.5
	h-13C232.672,100,232,99.328,232,98.5z"/>
<path style="fill:#FFFFFF;" d="M232,198.5v-77c0-0.828,0.672-1.5,1.5-1.5h13c0.828,0,1.5,0.672,1.5,1.5v77
	c0,0.828-0.672,1.5-1.5,1.5h-13C232.672,200,232,199.328,232,198.5z"/>
<path style="fill:#FFFFFF;" d="M93.98,80l-8-8L70.419,56.439C70.138,56.158,69.756,56,69.359,56H56.65h-9.3H34.641
	c-0.398,0-0.779,0.158-1.061,0.439L18.02,72l-8,8l-1.581,1.581C8.158,81.862,8,82.243,8,82.641v22.009v93.85
	c0,0.828,0.672,1.5,1.5,1.5h13c0.828,0,1.5-0.672,1.5-1.5V89.271c0-0.398,0.158-0.779,0.439-1.061l15.771-15.771
	C40.492,72.158,40.874,72,41.271,72h21.457c0.398,0,0.779,0.158,1.061,0.439l15.771,15.771C79.842,88.492,80,88.873,80,89.271V118.5
	c0,0.828-0.672,1.5-1.5,1.5h-33c-0.828,0-1.5,0.672-1.5,1.5v13c0,0.828,0.672,1.5,1.5,1.5h33c0.828,0,1.5,0.672,1.5,1.5v61
	c0,0.828,0.672,1.5,1.5,1.5h13c0.828,0,1.5-0.672,1.5-1.5v-93.85V82.641c0-0.398-0.158-0.779-0.439-1.061L93.98,80z"/>
<path style="fill:#FFFFFF;" d="M205.98,80l-8-8l-15.561-15.561c-0.281-0.281-0.663-0.439-1.061-0.439H168.65h-9.3h-12.709
	c-0.398,0-0.779,0.158-1.061,0.439L130.02,72l-8,8l-1.581,1.581c-0.281,0.281-0.439,0.663-0.439,1.061v22.009v93.85
	c0,0.828,0.672,1.5,1.5,1.5h13c0.828,0,1.5-0.672,1.5-1.5V89.271c0-0.398,0.158-0.779,0.439-1.061l15.771-15.771
	c0.281-0.281,0.663-0.439,1.061-0.439h21.457c0.398,0,0.779,0.158,1.061,0.439l15.771,15.771c0.281,0.281,0.439,0.663,0.439,1.061
	V118.5c0,0.828-0.672,1.5-1.5,1.5h-33c-0.828,0-1.5,0.672-1.5,1.5v13c0,0.828,0.672,1.5,1.5,1.5h33c0.828,0,1.5,0.672,1.5,1.5v61
	c0,0.828,0.672,1.5,1.5,1.5h13c0.828,0,1.5-0.672,1.5-1.5v-93.85V82.641c0-0.398-0.158-0.779-0.439-1.061L205.98,80z"/>
</svg>
