<?xml version="1.0" encoding="iso-8859-1"?>
<!-- Generator: Adobe Illustrator 27.5.0, SVG Export Plug-In . SVG Version: 6.00 Build 0)  -->
<svg version="1.1" id="Layer_1" xmlns="http://www.w3.org/2000/svg" xmlns:xlink="http://www.w3.org/1999/xlink" x="0px" y="0px"
	 viewBox="0 0 256 256" style="enable-background:new 0 0 256 256;" xml:space="preserve">
<g>
	<g>
		<path d="M216,41.5v53c0,0.828,0.672,1.5,1.5,1.5h13c0.828,0,1.5-0.672,1.5-1.5V40V25.5c0-0.828-0.672-1.5-1.5-1.5H216h-54.5
			c-0.828,0-1.5,0.672-1.5,1.5v13c0,0.828,0.672,1.5,1.5,1.5h53C215.328,40,216,40.672,216,41.5z"/>
		<path d="M161.5,96h13c0.828,0,1.5-0.672,1.5-1.5v-13c0-0.828-0.672-1.5-1.5-1.5h-13c-0.828,0-1.5,0.672-1.5,1.5v13
			C160,95.328,160.672,96,161.5,96z"/>
		<path d="M102.829,106.97L96,113.799l0-9.657l0-27.154C96,56.56,112.56,40,132.988,40h1.512c0.828,0,1.5-0.672,1.5-1.5V25.488
			c0-0.822-0.666-1.488-1.488-1.488h-1.524C103.723,24,80,47.723,80,76.988v27.154v9.657l-6.828-6.828L57.948,91.747
			c-0.586-0.586-1.536-0.586-2.121,0l-9.192,9.192c-0.586,0.586-0.586,1.536,0,2.121l40.305,40.305c0.586,0.586,1.536,0.586,2.121,0
			l40.305-40.305c0.586-0.586,0.586-1.536,0-2.121l-9.192-9.192c-0.586-0.586-1.536-0.586-2.121,0L102.829,106.97z"/>
	</g>
	<g>
		<path d="M40,214.5v-53c0-0.828-0.672-1.5-1.5-1.5h-13c-0.828,0-1.5,0.672-1.5,1.5V216v14.5c0,0.828,0.672,1.5,1.5,1.5H40h54.5
			c0.828,0,1.5-0.672,1.5-1.5v-13c0-0.828-0.672-1.5-1.5-1.5h-53C40.672,216,40,215.328,40,214.5z"/>
		<path d="M94.5,160h-13c-0.828,0-1.5,0.672-1.5,1.5v13c0,0.828,0.672,1.5,1.5,1.5h13c0.828,0,1.5-0.672,1.5-1.5v-13
			C96,160.672,95.328,160,94.5,160z"/>
		<path d="M153.171,149.03l6.828-6.828l0,9.657l0,27.154C160,199.44,143.44,216,123.012,216H121.5c-0.828,0-1.5,0.672-1.5,1.5
			v13.012c0,0.822,0.666,1.488,1.488,1.488h1.524C152.277,232,176,208.277,176,179.012v-27.154v-9.657l6.828,6.828l15.224,15.224
			c0.586,0.586,1.536,0.586,2.121,0l9.192-9.192c0.586-0.586,0.586-1.536,0-2.121l-40.305-40.305c-0.586-0.586-1.536-0.586-2.121,0
			l-40.305,40.305c-0.586,0.586-0.586,1.536,0,2.121l9.192,9.192c0.586,0.586,1.536,0.586,2.121,0L153.171,149.03z"/>
	</g>
</g>
</svg>
