<?xml version="1.0" encoding="iso-8859-1"?>
<!-- Generator: Adobe Illustrator 27.5.0, SVG Export Plug-In . SVG Version: 6.00 Build 0)  -->
<svg version="1.1" id="Layer_1" xmlns="http://www.w3.org/2000/svg" xmlns:xlink="http://www.w3.org/1999/xlink" x="0px" y="0px"
	 viewBox="0 0 888.915 256" style="enable-background:new 0 0 888.915 256;" xml:space="preserve">
<g>
	<path d="M272,148.302v-39.865h14.399v38.199c0,9.401,3.927,13.686,12.257,13.686c7.735,0,14.519-4.998,14.519-14.875v-37.01h14.399
		v62.238h-14.399v-9.758c-3.094,6.068-9.639,10.948-19.754,10.948C281.164,171.865,272,164.844,272,148.302z"/>
	<path d="M344.59,108.437h14.399v9.877c2.975-6.069,9.877-11.187,20.111-11.187c12.496,0,21.302,7.26,21.302,24.396v39.152h-14.399
		v-37.843c0-9.401-3.808-13.686-12.376-13.686c-8.092,0-14.637,4.998-14.637,14.875v36.653H344.59V108.437z"/>
	<path d="M412.894,140.567v-0.952c0-19.874,11.781-32.488,27.966-32.488c10.115,0,16.422,4.642,19.874,10.829V79.638h14.399v91.037
		h-14.399v-10.473c-3.332,6.188-11.305,11.663-20.468,11.663C424.675,171.865,412.894,160.798,412.894,140.567z M461.209,139.853
		v-0.951c0-13.686-6.307-20.469-16.779-20.469c-10.591,0-16.78,7.378-16.78,20.825v0.952c0,13.686,6.902,20.23,16.185,20.23
		C453.831,160.44,461.209,153.776,461.209,139.853z"/>
	<path d="M488.102,140.21v-0.952c0-19.278,13.209-32.131,30.94-32.131c15.471,0,29.394,9.163,29.394,31.417v4.165h-45.578
		c0.476,11.781,6.426,18.445,17.136,18.445c8.688,0,13.209-3.451,14.28-9.521h13.924c-2.023,13.091-12.615,20.231-28.561,20.231
		C501.311,171.865,488.102,159.846,488.102,140.21z M534.156,133.069c-0.714-10.71-6.188-15.47-15.114-15.47
		c-8.687,0-14.518,5.831-15.946,15.47H534.156z"/>
	<path d="M563.784,119.266h-8.449v-10.829h8.449v-8.331c0-13.685,7.498-21.063,20.707-21.063c3.57,0,5.593,0.357,7.854,1.071V91.3
		c-1.666-0.714-3.451-0.952-6.069-0.952c-5.712,0-8.093,3.808-8.093,9.163v8.926h14.162v10.829h-14.162v51.409h-14.399V119.266z"/>
	<path d="M601.625,89.99c0-4.76,3.809-8.33,8.568-8.33c4.761,0,8.568,3.57,8.568,8.33c0,4.642-3.808,8.212-8.568,8.212
		C605.434,98.202,601.625,94.632,601.625,89.99z M603.172,108.437h14.399v62.238h-14.399V108.437z"/>
	<path d="M635.064,108.437h14.399v9.877c2.975-6.069,9.877-11.187,20.111-11.187c12.495,0,21.302,7.26,21.302,24.396v39.152h-14.399
		v-37.843c0-9.401-3.809-13.686-12.376-13.686c-8.093,0-14.638,4.998-14.638,14.875v36.653h-14.399V108.437z"/>
	<path d="M703.25,140.21v-0.952c0-19.278,13.209-32.131,30.94-32.131c15.471,0,29.394,9.163,29.394,31.417v4.165h-45.578
		c0.477,11.781,6.427,18.445,17.137,18.445c8.688,0,13.209-3.451,14.28-9.521h13.924c-2.023,13.091-12.614,20.231-28.561,20.231
		C716.458,171.865,703.25,159.846,703.25,140.21z M749.303,133.069c-0.714-10.71-6.188-15.47-15.113-15.47
		c-8.687,0-14.519,5.831-15.946,15.47H749.303z"/>
	<path d="M772.387,140.567v-0.952c0-19.874,11.781-32.488,27.966-32.488c10.115,0,16.422,4.642,19.873,10.829V79.638h14.399v91.037
		h-14.399v-10.473c-3.332,6.188-11.306,11.663-20.469,11.663C784.168,171.865,772.387,160.798,772.387,140.567z M820.703,139.853
		v-0.951c0-13.686-6.308-20.469-16.78-20.469c-10.591,0-16.779,7.378-16.779,20.825v0.952c0,13.686,6.902,20.23,16.185,20.23
		C813.324,160.44,820.703,153.776,820.703,139.853z"/>
	<path d="M864.968,101.296L847,113.554V99.63l19.754-14.042h14.161v85.087h-15.946V101.296z"/>
</g>
<g>
	<g id="benefits_x5F_broker_x5F_core">
		<path style="fill:#3ADCC9;" d="M132,57.5v141c0,0.828-0.672,1.5-1.5,1.5h-13c-0.828,0-1.5-0.672-1.5-1.5v-141
			c0-0.828,0.672-1.5,1.5-1.5h13C131.328,56,132,56.672,132,57.5z"/>
		<path style="fill:#7F35B2;" d="M87.88,128l-11.219-11.219c-0.586-0.586-0.586-1.536,0-2.121l6.9-6.9
			c0.281-0.281,0.439-0.663,0.439-1.061V92V76.741c0-0.398-0.158-0.779-0.439-1.061L79.88,72L64.319,56.439
			C64.038,56.158,63.657,56,63.259,56H41.25H1.5C0.672,56,0,56.672,0,57.5V68v4v36v16v42.5c0,0.828,0.672,1.5,1.5,1.5h13
			c0.828,0,1.5-0.672,1.5-1.5v-41c0-0.828,0.672-1.5,1.5-1.5h27.19h15.939c0.398,0,0.779,0.158,1.061,0.439l2.591,2.591
			l15.281,15.281c0.281,0.281,0.439,0.663,0.439,1.061v20.688c0,0.398-0.158,0.779-0.439,1.06L61.129,183.56
			c-0.281,0.281-0.663,0.44-1.061,0.44H1.5c-0.828,0-1.5,0.672-1.5,1.5v13c0,0.828,0.672,1.5,1.5,1.5h57.81h7.379
			c0.398,0,0.779-0.158,1.061-0.439L76,191.31l7.31-7.31l12.25-12.241c0.282-0.281,0.44-0.663,0.44-1.061V152v-6.74v-8.519
			c0-0.398-0.158-0.779-0.439-1.061L87.88,128z M61.119,107.561c-0.281,0.281-0.663,0.439-1.061,0.439H45.25H17.5
			c-0.828,0-1.5-0.672-1.5-1.5v-33c0-0.828,0.672-1.5,1.5-1.5h39.129c0.398,0,0.779,0.158,1.06,0.439l9.871,9.862
			c0.282,0.281,0.44,0.663,0.44,1.061v16.697c0,0.398-0.158,0.779-0.439,1.061L64.28,104.4L61.119,107.561z"/>
		<path style="fill:#7F35B2;" d="M199.88,128l-11.219-11.219c-0.586-0.586-0.586-1.536,0-2.121l6.9-6.9
			c0.281-0.281,0.439-0.663,0.439-1.061V92V76.741c0-0.398-0.158-0.779-0.439-1.061L191.88,72l-15.561-15.561
			c-0.281-0.281-0.663-0.439-1.061-0.439H153.25h-3.75c-0.828,0-1.5,0.672-1.5,1.5v13c0,0.828,0.672,1.5,1.5,1.5h19.129
			c0.398,0,0.779,0.158,1.06,0.439l9.871,9.862c0.282,0.281,0.44,0.663,0.44,1.061v16.697c0,0.398-0.158,0.779-0.439,1.061
			l-3.281,3.281l-3.161,3.161c-0.281,0.281-0.663,0.439-1.061,0.439H157.25h-7.75c-0.828,0-1.5,0.672-1.5,1.5v13
			c0,0.828,0.672,1.5,1.5,1.5h7.19h15.939c0.398,0,0.779,0.158,1.061,0.439l2.591,2.591l15.281,15.281
			c0.281,0.281,0.439,0.663,0.439,1.061v20.688c0,0.398-0.158,0.779-0.439,1.06l-18.432,18.441c-0.281,0.281-0.663,0.44-1.061,0.44
			H149.5c-0.828,0-1.5,0.672-1.5,1.5v13c0,0.828,0.672,1.5,1.5,1.5h21.81h7.379c0.398,0,0.779-0.158,1.061-0.439L188,191.31
			l7.31-7.31l12.25-12.241c0.282-0.281,0.44-0.663,0.44-1.061V152v-6.74v-8.519c0-0.398-0.158-0.779-0.439-1.061L199.88,128z"/>
	</g>
</g>
</svg>
