<?xml version="1.0" encoding="iso-8859-1"?>
<!-- Generator: Adobe Illustrator 27.5.0, SVG Export Plug-In . SVG Version: 6.00 Build 0)  -->
<svg version="1.1" id="Layer_1" xmlns="http://www.w3.org/2000/svg" xmlns:xlink="http://www.w3.org/1999/xlink" x="0px" y="0px"
	 viewBox="0 0 256 256" style="enable-background:new 0 0 256 256;" xml:space="preserve">
<g id="ask_x5F_benix_x5F_core">
	<path style="fill:#BFBFBF;" d="M212,42.5v-13c0-0.828-0.672-1.5-1.5-1.5h-117c-0.828,0-1.5,0.672-1.5,1.5v117
		c0,0.828,0.672,1.5,1.5,1.5h64.559c0.398,0,0.779,0.158,1.061,0.439l31.121,31.121c0.281,0.281,0.663,0.439,1.061,0.439H210.5
		c0.828,0,1.5-0.672,1.5-1.5v-117c0-0.828-0.672-1.5-1.5-1.5h-13c-0.828,0-1.5,0.672-1.5,1.5v97.559
		c0,1.336-1.616,2.006-2.561,1.061l-27.68-27.68c-0.281-0.281-0.663-0.439-1.061-0.439H109.5c-0.828,0-1.5-0.672-1.5-1.5v-85
		c0-0.828,0.672-1.5,1.5-1.5h101C211.328,44,212,43.328,212,42.5z"/>
	<path style="fill:#BFBFBF;" d="M158.5,180H91.301c-0.398,0-0.779,0.158-1.061,0.439l-27.68,27.68
		c-0.945,0.945-2.561,0.276-2.561-1.061V81.5c0-0.828-0.672-1.5-1.5-1.5h-13c-0.828,0-1.5,0.672-1.5,1.5v145
		c0,0.828,0.672,1.5,1.5,1.5h19.199c0.398,0,0.779-0.158,1.061-0.439l31.121-31.121c0.281-0.281,0.663-0.439,1.061-0.439H158.5
		c0.828,0,1.5-0.672,1.5-1.5v-13C160,180.672,159.328,180,158.5,180z"/>
	<path style="fill:#BFBFBF;" d="M158.5,96h-13c-0.828,0-1.5-0.672-1.5-1.5v-13c0-0.828,0.672-1.5,1.5-1.5h13
		c0.828,0,1.5,0.672,1.5,1.5v13C160,95.328,159.328,96,158.5,96z"/>
</g>
</svg>
