<?xml version="1.0" encoding="iso-8859-1"?>
<!-- Generator: Adobe Illustrator 27.5.0, SVG Export Plug-In . SVG Version: 6.00 Build 0)  -->
<svg version="1.1" id="Layer_1" xmlns="http://www.w3.org/2000/svg" xmlns:xlink="http://www.w3.org/1999/xlink" x="0px" y="0px"
	 viewBox="0 0 1188.487 256" style="enable-background:new 0 0 1188.487 256;" xml:space="preserve">
<g>
	<path d="M320,157.783V96.811h22.023v58.424c0,14.379,6.006,20.931,18.747,20.931c11.831,0,22.205-7.644,22.205-22.751V96.811
		h22.022V192h-22.022v-14.925c-4.732,9.282-14.743,16.745-30.213,16.745C334.015,193.82,320,183.082,320,157.783z"/>
	<path d="M431.02,96.811h22.023v15.106c4.55-9.282,15.106-17.108,30.759-17.108c19.11,0,32.579,11.103,32.579,37.312V192h-22.023
		v-57.878c0-14.379-5.824-20.931-18.929-20.931c-12.376,0-22.387,7.644-22.387,22.75V192H431.02V96.811z"/>
	<path d="M535.484,145.952v-1.456c0-30.395,18.019-49.688,42.772-49.688c15.47,0,25.117,7.098,30.395,16.562V52.765h22.022V192
		h-22.022v-16.017c-5.096,9.464-17.291,17.837-31.305,17.837C553.503,193.82,535.484,176.894,535.484,145.952z M609.379,144.86
		v-1.456c0-20.931-9.646-31.306-25.663-31.306c-16.199,0-25.663,11.285-25.663,31.852v1.456c0,20.931,10.556,30.941,24.753,30.941
		C598.095,176.348,609.379,166.155,609.379,144.86z"/>
	<path d="M650.508,145.406v-1.456c0-29.485,20.202-49.142,47.321-49.142c23.661,0,44.956,14.015,44.956,48.05v6.37h-69.709
		c0.729,18.019,9.829,28.211,26.209,28.211c13.287,0,20.203-5.278,21.841-14.561h21.295c-3.094,20.021-19.293,30.941-43.682,30.941
		C670.71,193.82,650.508,175.438,650.508,145.406z M720.944,134.486c-1.092-16.381-9.465-23.661-23.115-23.661
		c-13.286,0-22.204,8.918-24.389,23.661H720.944z"/>
	<path d="M766.258,113.373h-12.923V96.811h12.923V84.07c0-20.932,11.466-32.216,31.669-32.216c5.46,0,8.555,0.546,12.013,1.639
		v17.108c-2.548-1.092-5.278-1.456-9.282-1.456c-8.736,0-12.377,5.824-12.377,14.015v13.65h21.659v16.562H788.28V192h-22.022
		V113.373z"/>
	<path d="M824.133,68.6c0-7.28,5.824-12.74,13.104-12.74s13.104,5.46,13.104,12.74c0,7.098-5.824,12.559-13.104,12.559
		S824.133,75.697,824.133,68.6z M826.499,96.811h22.023V192h-22.023V96.811z"/>
	<path d="M875.274,96.811h22.022v15.106c4.551-9.282,15.106-17.108,30.76-17.108c19.11,0,32.579,11.103,32.579,37.312V192h-22.023
		v-57.878c0-14.379-5.824-20.931-18.928-20.931c-12.377,0-22.388,7.644-22.388,22.75V192h-22.022V96.811z"/>
	<path d="M979.559,145.406v-1.456c0-29.485,20.202-49.142,47.321-49.142c23.661,0,44.956,14.015,44.956,48.05v6.37h-69.709
		c0.729,18.019,9.829,28.211,26.209,28.211c13.287,0,20.203-5.278,21.841-14.561h21.295c-3.094,20.021-19.293,30.941-43.682,30.941
		C999.761,193.82,979.559,175.438,979.559,145.406z M1049.995,134.486c-1.092-16.381-9.465-23.661-23.115-23.661
		c-13.286,0-22.204,8.918-24.389,23.661H1049.995z"/>
	<path d="M1085.298,145.952v-1.456c0-30.395,18.019-49.688,42.771-49.688c15.471,0,25.117,7.098,30.396,16.562V52.765h22.022V192
		h-22.022v-16.017c-5.097,9.464-17.291,17.837-31.306,17.837C1103.316,193.82,1085.298,176.894,1085.298,145.952z M1159.192,144.86
		v-1.456c0-20.931-9.646-31.306-25.662-31.306c-16.199,0-25.663,11.285-25.663,31.852v1.456c0,20.931,10.556,30.941,24.753,30.941
		C1147.908,176.348,1159.192,166.155,1159.192,144.86z"/>
</g>
<g>
	<g id="benefits_x5F_broker_x5F_core">
		<path style="fill:#3ADCC9;" d="M162.462,41.231v173.538c0,1.02-0.827,1.846-1.846,1.846h-16c-1.02,0-1.846-0.827-1.846-1.846
			V41.231c0-1.02,0.827-1.846,1.846-1.846h16C161.635,39.385,162.462,40.211,162.462,41.231z"/>
		<path style="fill:#7F35B2;" d="M108.16,128l-13.808-13.808c-0.721-0.721-0.721-1.89,0-2.611l8.492-8.492
			c0.346-0.346,0.541-0.816,0.541-1.305V83.692v-18.78c0-0.49-0.195-0.959-0.541-1.305l-4.53-4.53L79.162,39.925
			c-0.346-0.346-0.816-0.541-1.305-0.541H50.769H1.846C0.827,39.385,0,40.211,0,41.231v12.923v4.923v44.308v19.692v52.308
			c0,1.02,0.827,1.846,1.846,1.846h16c1.02,0,1.846-0.827,1.846-1.846v-50.462c0-1.02,0.827-1.846,1.846-1.846h33.465H74.62
			c0.49,0,0.959,0.195,1.305,0.541l3.189,3.188l18.807,18.807c0.346,0.346,0.541,0.816,0.541,1.305v25.462
			c0,0.489-0.194,0.959-0.54,1.305l-22.685,22.697c-0.346,0.346-0.816,0.541-1.306,0.541H1.846c-1.02,0-1.846,0.827-1.846,1.846v16
			c0,1.02,0.827,1.846,1.846,1.846h71.151h9.081c0.49,0,0.959-0.195,1.305-0.541l10.155-10.155l8.997-8.997l15.077-15.065
			c0.347-0.346,0.541-0.816,0.541-1.306v-23.013v-8.295v-10.485c0-0.49-0.195-0.959-0.541-1.305L108.16,128z M75.224,102.844
			c-0.346,0.346-0.816,0.541-1.305,0.541H55.692H21.538c-1.02,0-1.846-0.827-1.846-1.846V60.923c0-1.02,0.827-1.846,1.846-1.846
			h48.159c0.489,0,0.959,0.194,1.305,0.54l12.149,12.137c0.347,0.346,0.541,0.816,0.541,1.306v20.55c0,0.49-0.195,0.959-0.541,1.305
			l-4.038,4.038L75.224,102.844z"/>
		<path style="fill:#7F35B2;" d="M246.006,128l-13.808-13.808c-0.721-0.721-0.721-1.89,0-2.611l8.492-8.492
			c0.346-0.346,0.541-0.816,0.541-1.305V83.692v-18.78c0-0.49-0.195-0.959-0.541-1.305l-4.53-4.53l-19.152-19.152
			c-0.346-0.346-0.816-0.541-1.305-0.541h-27.088H184c-1.02,0-1.846,0.827-1.846,1.846v16c0,1.02,0.827,1.846,1.846,1.846h23.543
			c0.489,0,0.959,0.194,1.305,0.54l12.149,12.137c0.347,0.346,0.541,0.816,0.541,1.306v20.55c0,0.49-0.195,0.959-0.541,1.305
			l-4.038,4.038l-3.89,3.89c-0.346,0.346-0.816,0.541-1.305,0.541h-18.226H184c-1.02,0-1.846,0.827-1.846,1.846v16
			c0,1.02,0.827,1.846,1.846,1.846h8.849h19.617c0.49,0,0.959,0.195,1.305,0.541l3.189,3.188l18.807,18.807
			c0.346,0.346,0.541,0.816,0.541,1.305v25.462c0,0.489-0.194,0.959-0.54,1.305l-22.685,22.697
			c-0.346,0.346-0.816,0.541-1.306,0.541H184c-1.02,0-1.846,0.827-1.846,1.846v16c0,1.02,0.827,1.846,1.846,1.846h26.843h9.081
			c0.49,0,0.959-0.195,1.305-0.541l10.155-10.155l8.997-8.997l15.077-15.065c0.347-0.346,0.541-0.816,0.541-1.306v-23.013v-8.295
			v-10.485c0-0.49-0.195-0.959-0.541-1.305L246.006,128z"/>
	</g>
</g>
</svg>
