<?xml version="1.0" encoding="iso-8859-1"?>
<!-- Generator: Adobe Illustrator 27.5.0, SVG Export Plug-In . SVG Version: 6.00 Build 0)  -->
<svg version="1.1" id="Layer_1" xmlns="http://www.w3.org/2000/svg" xmlns:xlink="http://www.w3.org/1999/xlink" x="0px" y="0px"
	 viewBox="0 0 256 256" style="enable-background:new 0 0 256 256;" xml:space="preserve">
<pattern  x="-400" width="256" height="256" patternUnits="userSpaceOnUse" id="WTW_x5F_Stratosphere_x5F_Diagonal_x5F_1" viewBox="0 -256 256 256" style="overflow:visible;">
	<g>
		<rect y="-256" style="fill:none;" width="256" height="256"/>
		<rect y="-256" style="fill:#345499;" width="256" height="256"/>
		<polygon style="fill:#327FEF;" points="152.897,0 256,-103.103 256,-108.76 147.24,0 		"/>
		<polygon style="fill:#327FEF;" points="29.311,0 256,-226.689 256,-232.346 23.654,0 		"/>
		<polygon style="fill:#327FEF;" points="11.656,0 256,-244.344 256,-250.001 5.999,0 		"/>
		<polygon style="fill:#327FEF;" points="161.725,0 256,-94.275 256,-99.932 156.068,0 		"/>
		<polygon style="fill:#327FEF;" points="20.484,0 256,-235.516 256,-241.173 14.827,0 		"/>
		<polygon style="fill:#327FEF;" points="170.552,0 256,-85.448 256,-91.104 164.896,0 		"/>
		<polygon style="fill:#327FEF;" points="64.621,0 256,-191.379 256,-197.035 58.965,0 		"/>
		<polygon style="fill:#327FEF;" points="82.277,0 256,-173.723 256,-179.38 76.62,0 		"/>
		<polygon style="fill:#327FEF;" points="99.932,0 256,-156.068 256,-161.725 94.275,0 		"/>
		<polygon style="fill:#327FEF;" points="108.759,0 256,-147.241 256,-152.898 103.103,0 		"/>
		<polygon style="fill:#327FEF;" points="91.104,0 256,-164.896 256,-170.553 85.447,0 		"/>
		<polygon style="fill:#327FEF;" points="73.449,0 256,-182.551 256,-188.208 67.792,0 		"/>
		<polygon style="fill:#327FEF;" points="55.794,0 256,-200.206 256,-205.863 50.137,0 		"/>
		<polygon style="fill:#327FEF;" points="144.07,0 256,-111.93 256,-117.587 138.413,0 		"/>
		<polygon style="fill:#327FEF;" points="135.242,0 256,-120.758 256,-126.415 129.585,0 		"/>
		<polygon style="fill:#327FEF;" points="38.139,0 256,-217.861 256,-223.518 32.482,0 		"/>
		<polygon style="fill:#327FEF;" points="46.966,0 256,-209.034 256,-214.691 41.309,0 		"/>
		<polygon style="fill:#327FEF;" points="117.587,0 256,-138.413 256,-144.07 111.93,0 		"/>
		<polygon style="fill:#327FEF;" points="126.415,0 256,-129.585 256,-135.242 120.758,0 		"/>
		<polygon style="fill:#327FEF;" points="197.035,0 256,-58.965 256,-64.622 191.378,0 		"/>
		<polygon style="fill:#327FEF;" points="156.068,-256 0,-99.932 0,-94.275 161.725,-256 		"/>
		<polygon style="fill:#327FEF;" points="41.309,-256 0,-214.691 0,-209.034 46.966,-256 		"/>
		<polygon style="fill:#327FEF;" points="164.896,-256 0,-91.104 0,-85.448 170.552,-256 		"/>
		<polygon style="fill:#327FEF;" points="147.24,-256 0,-108.76 0,-103.103 152.897,-256 		"/>
		<polygon style="fill:#327FEF;" points="32.482,-256 0,-223.518 0,-217.861 38.139,-256 		"/>
		<polygon style="fill:#327FEF;" points="173.723,-256 0,-82.277 0,-76.62 179.38,-256 		"/>
		<polygon style="fill:#327FEF;" points="50.137,-256 0,-205.863 0,-200.206 55.794,-256 		"/>
		<polygon style="fill:#327FEF;" points="179.38,0 256,-76.62 256,-82.277 173.723,0 		"/>
		<polygon style="fill:#327FEF;" points="182.551,-256 0,-73.449 0,-67.792 188.208,-256 		"/>
		<polygon style="fill:#327FEF;" points="111.93,-256 0,-144.07 0,-138.413 117.587,-256 		"/>
		<polygon style="fill:#327FEF;" points="103.103,-256 0,-152.897 0,-147.241 108.759,-256 		"/>
		<polygon style="fill:#327FEF;" points="94.275,-256 0,-161.725 0,-156.068 99.932,-256 		"/>
		<polygon style="fill:#327FEF;" points="67.792,-256 0,-188.208 0,-182.551 73.449,-256 		"/>
		<polygon style="fill:#327FEF;" points="76.62,-256 0,-179.38 0,-173.723 82.277,-256 		"/>
		<polygon style="fill:#327FEF;" points="120.758,-256 0,-135.242 0,-129.585 126.415,-256 		"/>
		<polygon style="fill:#327FEF;" points="129.585,-256 0,-126.415 0,-120.758 135.242,-256 		"/>
		<polygon style="fill:#327FEF;" points="58.965,-256 0,-197.035 0,-191.379 64.621,-256 		"/>
		<polygon style="fill:#327FEF;" points="200.206,-256 0,-55.794 0,-50.137 205.863,-256 		"/>
		<polygon style="fill:#327FEF;" points="138.413,-256 0,-117.587 0,-111.93 144.07,-256 		"/>
		<polygon style="fill:#327FEF;" points="191.379,-256 0,-64.622 0,-58.965 197.035,-256 		"/>
		<polygon style="fill:#327FEF;" points="223.518,0 256,-32.482 256,-38.139 217.861,0 		"/>
		<polygon style="fill:#327FEF;" points="241.173,0 256,-14.827 256,-20.484 235.516,0 		"/>
		<polygon style="fill:#327FEF;" points="232.346,0 256,-23.654 256,-29.311 226.689,0 		"/>
		<polygon style="fill:#327FEF;" points="0,-256 0,-253.172 2.828,-256 		"/>
		<polygon style="fill:#327FEF;" points="188.208,0 256,-67.792 256,-73.449 182.551,0 		"/>
		<polygon style="fill:#327FEF;" points="85.447,-256 0,-170.553 0,-164.896 91.104,-256 		"/>
		<polygon style="fill:#327FEF;" points="250.001,0 256,-5.999 256,-11.656 244.344,0 		"/>
		<polygon style="fill:#327FEF;" points="214.69,0 256,-41.31 256,-46.966 209.034,0 		"/>
		<polygon style="fill:#327FEF;" points="23.654,-256 0,-232.346 0,-226.689 29.311,-256 		"/>
		<polygon style="fill:#327FEF;" points="205.863,0 256,-50.137 256,-55.794 200.206,0 		"/>
		<polygon style="fill:#327FEF;" points="217.861,-256 0,-38.139 0,-32.482 223.518,-256 		"/>
		<polygon style="fill:#327FEF;" points="14.827,-256 0,-241.173 0,-235.516 20.484,-256 		"/>
		<polygon style="fill:#327FEF;" points="209.034,-256 0,-46.966 0,-41.31 214.691,-256 		"/>
		<polygon style="fill:#327FEF;" points="226.689,-256 0,-29.311 0,-23.654 232.346,-256 		"/>
		<polygon style="fill:#327FEF;" points="256,0 256,-2.828 253.172,0 		"/>
		<polygon style="fill:#327FEF;" points="256,-256 253.172,-256 0,-2.828 0,0 2.828,0 256,-253.172 		"/>
		<polygon style="fill:#327FEF;" points="244.344,-256 0,-11.656 0,-5.999 250.001,-256 		"/>
		<polygon style="fill:#327FEF;" points="235.516,-256 0,-20.484 0,-14.827 241.173,-256 		"/>
		<polygon style="fill:#327FEF;" points="5.999,-256 0,-250.001 0,-244.344 11.656,-256 		"/>
	</g>
</pattern>
<path style="fill:#7F35B2;" d="M158.98,153.883l8.404-8.404l0,11.885l0,33.42c0,25.142-20.382,45.524-45.524,45.524H120
	c-1.02,0-1.846,0.827-1.846,1.846v16.015c0,1.011,0.82,1.831,1.831,1.831h1.876c36.018,0,65.216-29.198,65.216-65.216v-33.42
	v-11.885l8.404,8.404l18.737,18.737c0.721,0.721,1.89,0.721,2.611,0l11.314-11.314c0.721-0.721,0.721-1.89,0-2.611l-49.606-49.606
	c-0.721-0.721-1.89-0.721-2.611,0l-49.606,49.606c-0.721,0.721-0.721,1.89,0,2.611l11.314,11.314c0.721,0.721,1.89,0.721,2.611,0
	L158.98,153.883z"/>
<path style="fill:#7F35B2;" d="M87.115,167.385H70.423c-0.828,0-1.5,0.672-1.5,1.5v16.692c0,0.828,0.672,1.5,1.5,1.5h16.692
	c0.828,0,1.5-0.672,1.5-1.5v-16.692C88.615,168.056,87.944,167.385,87.115,167.385z"/>
<path style="fill:#7F35B2;" d="M19.692,234.462v-65.231c0-1.02-0.827-1.846-1.846-1.846h-16c-1.02,0-1.846,0.827-1.846,1.846v67.077
	v17.846C0,255.173,0.827,256,1.846,256h17.846h67.077c1.02,0,1.846-0.827,1.846-1.846v-16c0-1.02-0.827-1.846-1.846-1.846H21.538
	C20.519,236.308,19.692,235.481,19.692,234.462z"/>
<pattern  id="SVGID_1_" xlink:href="#WTW_x5F_Stratosphere_x5F_Diagonal_x5F_1" patternTransform="matrix(1.2308 0 0 1.2308 1184 1860.9231)">
</pattern>
<path style="fill:url(#SVGID_1_);" d="M97.02,102.117l-8.404,8.404l0-11.885l0-33.42c0-25.142,20.382-45.524,45.524-45.524H136
	c1.02,0,1.846-0.827,1.846-1.846V1.831c0-1.011-0.82-1.831-1.831-1.831l-1.876,0C98.121,0,68.923,29.198,68.923,65.216v33.42v11.885
	l-8.404-8.404L41.782,83.381c-0.721-0.721-1.89-0.721-2.611,0L27.858,94.695c-0.721,0.721-0.721,1.89,0,2.611l49.606,49.606
	c0.721,0.721,1.89,0.721,2.611,0l49.606-49.606c0.721-0.721,0.721-1.89,0-2.611l-11.314-11.314c-0.721-0.721-1.89-0.721-2.611,0
	L97.02,102.117z"/>
<pattern  id="SVGID_00000177471080719472386530000010697758699577452463_" xlink:href="#WTW_x5F_Stratosphere_x5F_Diagonal_x5F_1" patternTransform="matrix(1.2308 0 0 1.2308 1184 1860.9231)">
</pattern>
<path style="fill:url(#SVGID_00000177471080719472386530000010697758699577452463_);" d="M168.885,88.615h16.692
	c0.828,0,1.5-0.672,1.5-1.5V70.423c0-0.828-0.672-1.5-1.5-1.5h-16.692c-0.828,0-1.5,0.672-1.5,1.5v16.692
	C167.385,87.944,168.056,88.615,168.885,88.615z"/>
<pattern  id="SVGID_00000092454623711750289300000010936477221264815023_" xlink:href="#WTW_x5F_Stratosphere_x5F_Diagonal_x5F_1" patternTransform="matrix(1.2308 0 0 1.2308 1184 1860.9231)">
</pattern>
<path style="fill:url(#SVGID_00000092454623711750289300000010936477221264815023_);" d="M236.308,21.538v65.231
	c0,1.02,0.827,1.846,1.846,1.846h16c1.02,0,1.846-0.827,1.846-1.846V19.692V1.846C256,0.827,255.173,0,254.154,0l-17.846,0
	l-67.077,0c-1.02,0-1.846,0.827-1.846,1.846v16c0,1.02,0.827,1.846,1.846,1.846h65.231
	C235.481,19.692,236.308,20.519,236.308,21.538z"/>
</svg>
