<?xml version="1.0" encoding="iso-8859-1"?>
<!-- Generator: Adobe Illustrator 27.5.0, SVG Export Plug-In . SVG Version: 6.00 Build 0)  -->
<svg version="1.1" xmlns="http://www.w3.org/2000/svg" xmlns:xlink="http://www.w3.org/1999/xlink" x="0px" y="0px"
	 viewBox="0 0 1024 512" style="enable-background:new 0 0 1024 512;" xml:space="preserve">
<g id="Layer_1">
	<g id="Main_x5F_Purple_x5F_BG_x5F_layer">
	</g>
</g>
<g id="crop">
	<g>
		<defs>
			<rect id="SVGID_1_" width="1024" height="512"/>
		</defs>
		<clipPath id="SVGID_00000094590071650130026160000008654360119987091865_">
			<use xlink:href="#SVGID_1_"  style="overflow:visible;"/>
		</clipPath>
		
			<rect style="clip-path:url(#SVGID_00000094590071650130026160000008654360119987091865_);fill:#48086F;stroke:#000000;stroke-miterlimit:10;" width="1024" height="512"/>
		<g style="clip-path:url(#SVGID_00000094590071650130026160000008654360119987091865_);">
			<path style="fill:#FFFFFF;" d="M78.251,67.596h7.068l15.003,44.327H94.99l-4.34-12.771H72.361l-4.278,12.771H63L78.251,67.596z
				 M73.849,94.874h15.375L81.537,72.06L73.849,94.874z"/>
			<path style="fill:#FFFFFF;" d="M107.763,79.499h5.146v5.455c1.86-3.161,6.262-6.014,10.973-6.014
				c8.494,0,14.755,6.2,14.755,16.306v0.496c0,9.919-5.828,16.738-14.755,16.738c-5.332,0-9.113-2.665-10.973-5.89v16.615h-5.146
				V79.499z M133.306,95.99v-0.496c0-8.184-4.526-12.275-9.981-12.275c-6.014,0-10.602,3.968-10.602,12.275v0.496
				c0,8.307,4.34,12.213,10.663,12.213C129.834,108.203,133.306,103.863,133.306,95.99z"/>
			<path style="fill:#FFFFFF;" d="M146.637,79.499h5.146v5.455c1.86-3.161,6.262-6.014,10.973-6.014
				c8.494,0,14.755,6.2,14.755,16.306v0.496c0,9.919-5.828,16.738-14.755,16.738c-5.332,0-9.113-2.665-10.973-5.89v16.615h-5.146
				V79.499z M172.18,95.99v-0.496c0-8.184-4.526-12.275-9.981-12.275c-6.014,0-10.602,3.968-10.602,12.275v0.496
				c0,8.307,4.34,12.213,10.663,12.213C168.708,108.203,172.18,103.863,172.18,95.99z"/>
			<path style="fill:#FFFFFF;" d="M201.941,79.499h5.146v5.146c1.488-3.038,5.083-5.704,10.416-5.704
				c6.695,0,11.407,3.658,11.407,13.082v19.9h-5.146V91.65c0-5.704-2.417-8.246-7.625-8.246c-4.773,0-9.051,3.038-9.051,8.865
				v19.653h-5.146V79.499z"/>
			<path style="fill:#FFFFFF;" d="M236.352,102.934c0-7.502,7.936-10.044,16.243-10.044h4.649v-2.355
				c0-5.146-1.984-7.315-6.943-7.315c-4.464,0-6.944,1.859-7.44,5.827h-5.146c0.682-7.377,6.572-10.105,12.833-10.105
				c6.199,0,11.841,2.542,11.841,11.594v21.389h-5.146v-4.092c-2.418,3.038-5.332,4.649-10.105,4.649
				C241.125,112.48,236.352,109.567,236.352,102.934z M257.244,100.577v-4.029h-4.464c-6.509,0-11.283,1.611-11.283,6.386
				c0,3.348,1.612,5.455,6.138,5.455C253.09,108.389,257.244,105.6,257.244,100.577z"/>
			<path style="fill:#FFFFFF;" d="M272.497,79.499h5.146v4.959c1.488-3.037,5.021-5.518,9.671-5.518
				c4.154,0,7.812,1.736,9.485,6.076c2.232-4.216,7.068-6.076,11.098-6.076c5.828,0,10.911,3.472,10.911,12.896v20.087h-5.146
				V91.464c0-5.703-2.418-8.06-6.882-8.06c-4.216,0-8.556,2.852-8.556,8.68v19.839h-5.146V91.464c0-5.703-2.418-8.06-6.882-8.06
				c-4.215,0-8.555,2.852-8.555,8.68v19.839h-5.146V79.499z"/>
			<path style="fill:#FFFFFF;" d="M326.499,96.052v-0.496c0-9.795,6.261-16.615,15.189-16.615c7.501,0,14.569,4.526,14.569,16.119
				v1.674H331.83c0.248,7.378,3.782,11.47,10.416,11.47c5.021,0,7.936-1.86,8.617-5.642h5.146c-1.116,6.51-6.51,9.919-13.825,9.919
				C333.008,112.48,326.499,106.033,326.499,96.052z M350.987,92.58c-0.496-6.695-3.968-9.361-9.299-9.361
				c-5.27,0-8.804,3.596-9.671,9.361H350.987z"/>
			<path style="fill:#FFFFFF;" d="M380.686,64h5.208v47.923h-5.208V64z"/>
			<path style="fill:#FFFFFF;" d="M395.628,69.331c0-1.859,1.55-3.409,3.41-3.409s3.41,1.55,3.41,3.409c0,1.86-1.55,3.41-3.41,3.41
				S395.628,71.191,395.628,69.331z M396.558,79.499h5.146v32.424h-5.146V79.499z"/>
			<path style="fill:#FFFFFF;" d="M412.243,79.499h5.146v5.146c1.488-3.038,5.083-5.704,10.416-5.704
				c6.695,0,11.407,3.658,11.407,13.082v19.9h-5.146V91.65c0-5.704-2.417-8.246-7.625-8.246c-4.773,0-9.051,3.038-9.051,8.865
				v19.653h-5.146V79.499z"/>
			<path style="fill:#FFFFFF;" d="M446.901,96.052v-0.496c0-9.795,6.261-16.615,15.189-16.615c7.501,0,14.569,4.526,14.569,16.119
				v1.674h-24.427c0.248,7.378,3.782,11.47,10.416,11.47c5.021,0,7.936-1.86,8.617-5.642h5.146c-1.116,6.51-6.51,9.919-13.825,9.919
				C453.411,112.48,446.901,106.033,446.901,96.052z M471.39,92.58c-0.496-6.695-3.968-9.361-9.299-9.361
				c-5.27,0-8.804,3.596-9.671,9.361H471.39z"/>
			<path style="fill:#FFFFFF;" d="M498.237,98.842h4.959c0.496,5.27,3.658,9.299,10.664,9.299c6.943,0,10.105-3.348,10.105-8.555
				c0-5.704-3.1-8.618-9.361-8.618h-3.348v-4.525h3.1c5.766,0,8.307-2.728,8.307-7.563c0-4.216-2.666-7.439-8.059-7.439
				c-5.518,0-9.238,3.348-9.796,8.369h-4.711c0.31-7.006,6.076-12.771,14.507-12.771c8.431,0,13.329,5.58,13.329,11.718
				c0,5.021-2.976,7.997-7.006,9.671c5.208,1.364,8.556,5.022,8.556,11.16c0,8.06-6.572,12.895-15.747,12.895
				C504.312,112.48,498.547,106.591,498.237,98.842z"/>
		</g>
		
			<g id="aa_x5F_incomecalc_x5F_core_00000148648284358269417210000016391387678638884792_" style="clip-path:url(#SVGID_00000094590071650130026160000008654360119987091865_);">
			<path style="fill:#7F35B2;" d="M949.962,198.5l-15.333-15.333l-29.825-29.825c-0.539-0.539-1.27-0.842-2.033-0.842h-24.358
				h-17.825h-24.358c-0.763,0-1.494,0.303-2.033,0.842l-29.825,29.825L789.038,198.5l-3.03,3.03
				c-0.539,0.539-0.842,1.27-0.842,2.033v42.183v179.879c0,1.588,1.287,2.875,2.875,2.875h24.917c1.588,0,2.875-1.287,2.875-2.875
				V216.27c0-0.762,0.303-1.494,0.842-2.033l30.228-30.228c0.539-0.539,1.27-0.842,2.033-0.842h41.126
				c0.763,0,1.494,0.303,2.033,0.842l30.228,30.228c0.539,0.539,0.842,1.27,0.842,2.033v56.022c0,1.588-1.287,2.875-2.875,2.875
				h-63.25c-1.588,0-2.875,1.287-2.875,2.875v24.917c0,1.588,1.287,2.875,2.875,2.875h63.25c1.588,0,2.875,1.287,2.875,2.875
				v116.917c0,1.588,1.287,2.875,2.875,2.875h24.917c1.588,0,2.875-1.287,2.875-2.875V245.746v-42.183
				c0-0.763-0.303-1.494-0.842-2.033L949.962,198.5z"/>
			<path style="fill:#7F35B2;" d="M735.295,198.5l-15.333-15.333l-29.825-29.825c-0.539-0.539-1.27-0.842-2.033-0.842h-24.358
				h-17.825h-24.358c-0.763,0-1.494,0.303-2.033,0.842l-29.825,29.825L574.372,198.5l-3.03,3.03
				c-0.539,0.539-0.842,1.27-0.842,2.033v42.183v179.879c0,1.588,1.287,2.875,2.875,2.875h24.917c1.588,0,2.875-1.287,2.875-2.875
				V216.27c0-0.762,0.303-1.494,0.842-2.033l30.228-30.228c0.539-0.539,1.27-0.842,2.033-0.842h41.127
				c0.762,0,1.494,0.303,2.033,0.842l30.228,30.228c0.539,0.539,0.842,1.27,0.842,2.033v56.022c0,1.588-1.287,2.875-2.875,2.875
				h-63.25c-1.588,0-2.875,1.287-2.875,2.875v24.917c0,1.588,1.287,2.875,2.875,2.875h63.25c1.588,0,2.875,1.287,2.875,2.875
				v116.917c0,1.588,1.287,2.875,2.875,2.875h24.917c1.588,0,2.875-1.287,2.875-2.875V245.746v-42.183
				c0-0.763-0.303-1.494-0.842-2.033L735.295,198.5z"/>
			<path style="fill:#7F35B2;" d="M999.833,427V276.667c0-0.828,0.672-1.5,1.5-1.5H1029c0.828,0,1.5,0.672,1.5,1.5V427
				c0,0.828-0.672,1.5-1.5,1.5h-27.667C1000.505,428.5,999.833,427.828,999.833,427z"/>
			<g>
				<polygon style="fill:#339781;" points="1030.5,220.351 1014.018,236.833 1020.095,236.833 1030.5,226.429 				"/>
				<path style="fill:#339781;" d="M1030.5,209.042c0-1.544-1.22-2.794-2.748-2.862l-27.906,27.906
					c0.068,1.527,1.318,2.748,2.862,2.748h0.467l27.324-27.324V209.042z"/>
				<polygon style="fill:#339781;" points="1010.846,206.167 999.833,217.179 999.833,223.256 1016.923,206.167 				"/>
				<path style="fill:#3ADCC9;" d="M1002.708,206.167c-1.588,0-2.875,1.287-2.875,2.875v8.137l11.012-11.012H1002.708z"/>
				<path style="fill:#3ADCC9;" d="M1020.095,236.833h7.53c1.588,0,2.875-1.287,2.875-2.875v-7.53L1020.095,236.833z"/>
				<polygon style="fill:#3ADCC9;" points="1030.5,209.509 1003.176,236.833 1014.018,236.833 1030.5,220.351 				"/>
				<path style="fill:#3ADCC9;" d="M1027.625,206.167h-10.702l-17.09,17.09v10.702c0,0.044,0.011,0.084,0.013,0.127l27.906-27.906
					C1027.709,206.178,1027.669,206.167,1027.625,206.167z"/>
			</g>
		</g>
		<g style="clip-path:url(#SVGID_00000094590071650130026160000008654360119987091865_);">
			<g>
				<defs>
					<rect id="SVGID_00000016786480823052536990000000334970373586598302_" x="62" y="405" width="155" height="50"/>
				</defs>
				<clipPath id="SVGID_00000048496516458242451910000015933647760186426797_">
					<use xlink:href="#SVGID_00000016786480823052536990000000334970373586598302_"  style="overflow:visible;"/>
				</clipPath>
				<g style="clip-path:url(#SVGID_00000048496516458242451910000015933647760186426797_);">
					<defs>
						<rect id="SVGID_00000127046461655169517110000007772247422779873960_" x="62" y="405" width="155" height="50"/>
					</defs>
					<clipPath id="SVGID_00000051357752278368730730000014182475317981621422_">
						<use xlink:href="#SVGID_00000127046461655169517110000007772247422779873960_"  style="overflow:visible;"/>
					</clipPath>
					<path style="clip-path:url(#SVGID_00000051357752278368730730000014182475317981621422_);fill:#FFFFFF;" d="M217,414.83
						l-15.2,39.27H189l-6.4-21.93l-6.45,21.93h-12.79l-11.24-29.29h-7V438c0,6.19,2.5,7.21,5.92,7.21
						c0.906-0.018,1.808-0.132,2.69-0.34l3.5,9.12c-2.726,0.668-5.523,1.004-8.33,1c-11.72,0-16.72-4.79-16.72-16v-14.18h-5.34
						l-11.33,29.29h-12.8l-6.39-21.93l-6.47,21.93H77.06L62,414.83h14.51l7.57,23.73l7.22-23.73h10l7.29,23.73l7.53-23.73h16.06
						v-7.06l12.94-2.77v9.83h17.69l7.56,23.73l7.22-23.73h10l7.29,23.73l7.5-23.73H217z"/>
				</g>
			</g>
		</g>
	</g>
</g>
</svg>
