<?xml version="1.0" encoding="iso-8859-1"?>
<!-- Generator: Adobe Illustrator 27.5.0, SVG Export Plug-In . SVG Version: 6.00 Build 0)  -->
<svg version="1.1" id="Layer_1" xmlns="http://www.w3.org/2000/svg" xmlns:xlink="http://www.w3.org/1999/xlink" x="0px" y="0px"
	 viewBox="0 0 256 256" style="enable-background:new 0 0 256 256;" xml:space="preserve">
<path style="fill:#BFBFBF;" d="M238.933,96.633V82.567c0-0.828,0.672-1.5,1.5-1.5H254.5c0.828,0,1.5,0.672,1.5,1.5v14.067
	c0,0.828-0.672,1.5-1.5,1.5h-14.067C239.605,98.133,238.933,97.462,238.933,96.633z"/>
<path style="fill:#BFBFBF;" d="M238.933,203.3v-82.333c0-0.828,0.672-1.5,1.5-1.5H254.5c0.828,0,1.5,0.672,1.5,1.5V203.3
	c0,0.828-0.672,1.5-1.5,1.5h-14.067C239.605,204.8,238.933,204.128,238.933,203.3z"/>
<path style="fill:#BFBFBF;" d="M91.712,76.8l-8.533-8.533L66.581,51.669c-0.3-0.3-0.707-0.469-1.131-0.469H51.893h-9.92H28.417
	c-0.424,0-0.831,0.169-1.131,0.469L10.688,68.267L2.155,76.8l-1.686,1.686C0.169,78.786,0,79.193,0,79.617v23.476V203.2
	c0,0.884,0.716,1.6,1.6,1.6h13.867c0.884,0,1.6-0.716,1.6-1.6V86.689c0-0.424,0.169-0.831,0.469-1.131l16.823-16.823
	c0.3-0.3,0.707-0.469,1.131-0.469h22.888c0.424,0,0.831,0.169,1.131,0.469l16.823,16.823c0.3,0.3,0.469,0.707,0.469,1.131v31.177
	c0,0.884-0.716,1.6-1.6,1.6H40c-0.884,0-1.6,0.716-1.6,1.6v13.867c0,0.884,0.716,1.6,1.6,1.6h35.2c0.884,0,1.6,0.716,1.6,1.6V203.2
	c0,0.884,0.716,1.6,1.6,1.6h13.867c0.884,0,1.6-0.716,1.6-1.6V103.093V79.617c0-0.424-0.169-0.831-0.469-1.131L91.712,76.8z"/>
<path style="fill:#BFBFBF;" d="M211.179,76.8l-8.533-8.533l-16.598-16.598c-0.3-0.3-0.707-0.469-1.131-0.469H171.36h-9.92h-13.556
	c-0.424,0-0.831,0.169-1.131,0.469l-16.598,16.598l-8.533,8.533l-1.686,1.686c-0.3,0.3-0.469,0.707-0.469,1.131v23.476V203.2
	c0,0.884,0.716,1.6,1.6,1.6h13.867c0.884,0,1.6-0.716,1.6-1.6V86.689c0-0.424,0.169-0.831,0.469-1.131l16.823-16.823
	c0.3-0.3,0.707-0.469,1.131-0.469h22.888c0.424,0,0.831,0.169,1.131,0.469l16.823,16.823c0.3,0.3,0.469,0.707,0.469,1.131v31.177
	c0,0.884-0.716,1.6-1.6,1.6h-35.2c-0.884,0-1.6,0.716-1.6,1.6v13.867c0,0.884,0.716,1.6,1.6,1.6h35.2c0.884,0,1.6,0.716,1.6,1.6
	V203.2c0,0.884,0.716,1.6,1.6,1.6h13.867c0.884,0,1.6-0.716,1.6-1.6V103.093V79.617c0-0.424-0.169-0.831-0.469-1.131L211.179,76.8z"
	/>
</svg>
