<?xml version="1.0" encoding="iso-8859-1"?>
<!-- Generator: Adobe Illustrator 27.5.0, SVG Export Plug-In . SVG Version: 6.00 Build 0)  -->
<svg version="1.1" id="Layer_1" xmlns="http://www.w3.org/2000/svg" xmlns:xlink="http://www.w3.org/1999/xlink" x="0px" y="0px"
	 viewBox="0 0 256 256" style="enable-background:new 0 0 256 256;" xml:space="preserve">
<g>
	<g>
		<polygon style="fill:#345499;" points="227.973,206.519 199.404,177.95 199.404,183.587 227.973,212.155 		"/>
		<path style="fill:#345499;" d="M199.404,230.667L224.737,256h0.569c1.39,0,2.519-1.067,2.642-2.425l-28.545-28.544V230.667z"/>
		<polygon style="fill:#345499;" points="199.404,246.361 209.044,256 214.681,256 199.404,240.724 		"/>
		<polygon style="fill:#345499;" points="227.973,222.212 199.404,193.643 199.404,199.28 227.973,227.849 		"/>
		<polygon style="fill:#345499;" points="227.973,237.906 199.404,209.337 199.404,214.974 227.973,243.543 		"/>
		<polygon style="fill:#345499;" points="227.973,159.438 199.404,130.869 199.404,136.506 227.973,165.075 		"/>
		<polygon style="fill:#345499;" points="227.973,65.277 221.541,58.845 219.051,61.991 227.973,70.914 		"/>
		<polygon style="fill:#345499;" points="227.973,96.664 207.673,76.364 205.182,79.51 227.973,102.301 		"/>
		<polygon style="fill:#345499;" points="227.973,128.051 199.404,99.482 199.404,105.119 227.973,133.688 		"/>
		<path style="fill:#345499;" d="M227.973,112.358l-27.235-27.234l-0.758,0.958c-0.373,0.471-0.576,1.054-0.576,1.655v1.689
			l28.569,28.569V112.358z"/>
		<polygon style="fill:#345499;" points="227.973,143.745 199.404,115.176 199.404,120.813 227.973,149.382 		"/>
		<polygon style="fill:#345499;" points="227.973,80.971 214.607,67.605 212.116,70.751 227.973,86.608 		"/>
		<polygon style="fill:#345499;" points="227.973,196.462 227.973,190.825 199.404,162.256 199.404,167.893 		"/>
		<polygon style="fill:#345499;" points="227.973,180.769 227.973,175.132 199.404,146.563 199.404,152.2 		"/>
		<polygon style="fill:#327FEF;" points="227.973,70.914 219.051,61.991 214.607,67.605 227.973,80.971 		"/>
		<path style="fill:#327FEF;" d="M227.973,58.385c0-2.528-3.189-3.637-4.757-1.655l-1.675,2.115l6.432,6.432V58.385z"/>
		<polygon style="fill:#327FEF;" points="227.973,133.688 199.404,105.119 199.404,115.176 227.973,143.745 		"/>
		<polygon style="fill:#327FEF;" points="227.973,165.075 199.404,136.506 199.404,146.563 227.973,175.132 		"/>
		<polygon style="fill:#327FEF;" points="227.973,196.462 199.404,167.893 199.404,177.95 227.973,206.519 		"/>
		<polygon style="fill:#327FEF;" points="227.973,212.155 199.404,183.587 199.404,193.643 227.973,222.212 		"/>
		<polygon style="fill:#327FEF;" points="227.973,190.825 227.973,180.769 199.404,152.2 199.404,162.256 		"/>
		<polygon style="fill:#327FEF;" points="227.973,149.382 199.404,120.813 199.404,130.869 227.973,159.438 		"/>
		<polygon style="fill:#327FEF;" points="227.973,117.995 199.404,89.426 199.404,99.482 227.973,128.051 		"/>
		<path style="fill:#327FEF;" d="M199.404,253.333c0,1.473,1.194,2.667,2.667,2.667h6.973l-9.639-9.639V253.333z"/>
		<polygon style="fill:#327FEF;" points="199.404,240.724 214.681,256 224.737,256 199.404,230.667 		"/>
		<polygon style="fill:#327FEF;" points="227.973,86.608 212.116,70.751 207.673,76.364 227.973,96.664 		"/>
		<polygon style="fill:#327FEF;" points="227.973,102.301 205.182,79.51 200.739,85.123 227.973,112.358 		"/>
		<polygon style="fill:#327FEF;" points="227.973,227.849 199.404,199.28 199.404,209.337 227.973,237.906 		"/>
		<path style="fill:#327FEF;" d="M199.404,214.974v10.057l28.545,28.544c0.007-0.081,0.024-0.159,0.024-0.242v-9.791
			L199.404,214.974z"/>
	</g>
	<path style="fill:#FFFFFF;" d="M227.4,5.42l-97.301,123.257c-1.067,1.351-3.115,1.353-4.184,0.003L61.353,47.113
		c-1.569-1.982-4.758-0.873-4.758,1.655v204.565c0,1.473-1.194,2.667-2.667,2.667H30.693c-1.473,0-2.667-1.194-2.667-2.667V2.667
		C28.027,1.194,29.221,0,30.693,0h28.505c0.815,0,1.585,0.373,2.091,1.012l64.628,81.644c1.068,1.349,3.114,1.349,4.182,0
		L194.71,1.012C195.216,0.373,195.986,0,196.801,0h28.505c1.473,0,2.667,1.194,2.667,2.667v1.101
		C227.973,4.367,227.771,4.949,227.4,5.42z"/>
</g>
</svg>
