<?xml version="1.0" encoding="iso-8859-1"?>
<!-- Generator: Adobe Illustrator 27.5.0, SVG Export Plug-In . SVG Version: 6.00 Build 0)  -->
<svg version="1.1" id="Layer_1" xmlns="http://www.w3.org/2000/svg" xmlns:xlink="http://www.w3.org/1999/xlink" x="0px" y="0px"
	 viewBox="0 0 1117.74 256" style="enable-background:new 0 0 1117.74 256;" xml:space="preserve">
<g>
	<path style="fill:#FFFFFF;" d="M272,157.055V96.811h15.107v59.516c0,16.745,7.098,24.207,22.022,24.207
		c13.469,0,26.209-8.918,26.209-26.026V96.811h15.106V192h-15.106v-15.106c-4.368,8.918-14.924,16.744-30.213,16.744
		C286.197,193.638,272,183.264,272,157.055z"/>
	<path style="fill:#FFFFFF;" d="M381.017,96.811h15.106v15.106c4.368-8.918,14.925-16.745,30.577-16.745
		c19.657,0,33.489,10.739,33.489,38.404V192h-15.106v-59.517c0-16.744-7.098-24.206-22.387-24.206
		c-14.015,0-26.573,8.918-26.573,26.026V192h-15.106V96.811z"/>
	<path style="fill:#FFFFFF;" d="M482.753,146.316v-1.456c0-29.121,18.201-49.688,44.41-49.688c15.834,0,25.663,7.645,31.123,16.927
		v-60.79h15.107V192h-15.107v-16.381c-5.46,9.282-18.747,18.019-32.579,18.019C500.772,193.638,482.753,175.983,482.753,146.316z
		 M558.832,145.042v-1.456c0-24.389-11.648-35.855-30.213-35.855c-18.929,0-30.213,13.287-30.213,36.401v1.456
		c0,24.025,12.923,35.492,28.939,35.492C545,181.08,558.832,169.432,558.832,145.042z"/>
	<path style="fill:#FFFFFF;" d="M596.868,145.406v-1.456c0-28.757,18.383-48.778,44.592-48.778
		c22.022,0,42.771,13.287,42.771,47.322v4.914H612.52c0.729,21.659,11.103,33.672,30.577,33.672
		c14.743,0,23.297-5.461,25.299-16.563h15.106c-3.275,19.111-19.11,29.121-40.587,29.121
		C615.978,193.638,596.868,174.709,596.868,145.406z M668.76,135.214c-1.456-19.657-11.648-27.483-27.301-27.483
		c-15.471,0-25.846,10.557-28.394,27.483H668.76z"/>
	<path style="fill:#FFFFFF;" d="M710.616,109.551h-13.65v-12.74h13.65V81.34c0-19.293,9.282-30.577,28.029-30.577
		c4.914,0,7.462,0.364,10.374,1.456v12.74c-2.729-1.092-5.642-1.638-9.828-1.638c-9.646,0-13.469,6.734-13.469,16.381v17.108h23.297
		v12.74h-23.297V192h-15.106V109.551z"/>
	<path style="fill:#FFFFFF;" d="M765.215,66.961c0-5.46,4.55-10.01,10.01-10.01c5.461,0,10.011,4.55,10.011,10.01
		c0,5.461-4.55,10.011-10.011,10.011C769.765,76.972,765.215,72.422,765.215,66.961z M767.945,96.811h15.106V192h-15.106V96.811z"/>
	<path style="fill:#FFFFFF;" d="M813.989,96.811h15.107v15.106c4.368-8.918,14.924-16.745,30.577-16.745
		c19.656,0,33.489,10.739,33.489,38.404V192h-15.107v-59.517c0-16.744-7.098-24.206-22.387-24.206
		c-14.014,0-26.572,8.918-26.572,26.026V192h-15.107V96.811z"/>
	<path style="fill:#FFFFFF;" d="M915.725,145.406v-1.456c0-28.757,18.383-48.778,44.592-48.778
		c22.022,0,42.771,13.287,42.771,47.322v4.914h-71.711c0.729,21.659,11.103,33.672,30.577,33.672
		c14.743,0,23.297-5.461,25.299-16.563h15.106c-3.275,19.111-19.11,29.121-40.587,29.121
		C934.835,193.638,915.725,174.709,915.725,145.406z M987.618,135.214c-1.456-19.657-11.648-27.483-27.301-27.483
		c-15.471,0-25.846,10.557-28.394,27.483H987.618z"/>
	<path style="fill:#FFFFFF;" d="M1019.1,146.316v-1.456c0-29.121,18.2-49.688,44.409-49.688c15.835,0,25.663,7.645,31.124,16.927
		v-60.79h15.106V192h-15.106v-16.381c-5.461,9.282-18.747,18.019-32.58,18.019C1037.119,193.638,1019.1,175.983,1019.1,146.316z
		 M1095.179,145.042v-1.456c0-24.389-11.648-35.855-30.214-35.855c-18.929,0-30.213,13.287-30.213,36.401v1.456
		c0,24.025,12.923,35.492,28.939,35.492C1081.346,181.08,1095.179,169.432,1095.179,145.042z"/>
</g>
<g>
	<g id="benefits_x5F_broker_x5F_core">
		<path style="fill:#3ADCC9;" d="M132,57.5v141c0,0.828-0.672,1.5-1.5,1.5h-13c-0.828,0-1.5-0.672-1.5-1.5v-141
			c0-0.828,0.672-1.5,1.5-1.5h13C131.328,56,132,56.672,132,57.5z"/>
		<path style="fill:#FFFFFF;" d="M87.88,128l-11.219-11.219c-0.586-0.586-0.586-1.536,0-2.121l6.9-6.9
			c0.281-0.281,0.439-0.663,0.439-1.061V92V76.741c0-0.398-0.158-0.779-0.439-1.061L79.88,72L64.319,56.439
			C64.038,56.158,63.657,56,63.259,56H41.25H1.5C0.672,56,0,56.672,0,57.5V68v4v36v16v42.5c0,0.828,0.672,1.5,1.5,1.5h13
			c0.828,0,1.5-0.672,1.5-1.5v-41c0-0.828,0.672-1.5,1.5-1.5h27.19h15.939c0.398,0,0.779,0.158,1.061,0.439l2.591,2.591
			l15.281,15.281c0.281,0.281,0.439,0.663,0.439,1.061v20.688c0,0.398-0.158,0.779-0.439,1.06L61.129,183.56
			c-0.281,0.281-0.663,0.44-1.061,0.44H1.5c-0.828,0-1.5,0.672-1.5,1.5v13c0,0.828,0.672,1.5,1.5,1.5h57.81h7.379
			c0.398,0,0.779-0.158,1.061-0.439L76,191.31l7.31-7.31l12.25-12.241c0.282-0.281,0.44-0.663,0.44-1.061V152v-6.74v-8.519
			c0-0.398-0.158-0.779-0.439-1.061L87.88,128z M61.119,107.561c-0.281,0.281-0.663,0.439-1.061,0.439H45.25H17.5
			c-0.828,0-1.5-0.672-1.5-1.5v-33c0-0.828,0.672-1.5,1.5-1.5h39.129c0.398,0,0.779,0.158,1.06,0.439l9.871,9.862
			c0.282,0.281,0.44,0.663,0.44,1.061v16.697c0,0.398-0.158,0.779-0.439,1.061L64.28,104.4L61.119,107.561z"/>
		<path style="fill:#FFFFFF;" d="M199.88,128l-11.219-11.219c-0.586-0.586-0.586-1.536,0-2.121l6.9-6.9
			c0.281-0.281,0.439-0.663,0.439-1.061V92V76.741c0-0.398-0.158-0.779-0.439-1.061L191.88,72l-15.561-15.561
			c-0.281-0.281-0.663-0.439-1.061-0.439H153.25h-3.75c-0.828,0-1.5,0.672-1.5,1.5v13c0,0.828,0.672,1.5,1.5,1.5h19.129
			c0.398,0,0.779,0.158,1.06,0.439l9.871,9.862c0.282,0.281,0.44,0.663,0.44,1.061v16.697c0,0.398-0.158,0.779-0.439,1.061
			l-3.281,3.281l-3.161,3.161c-0.281,0.281-0.663,0.439-1.061,0.439H157.25h-7.75c-0.828,0-1.5,0.672-1.5,1.5v13
			c0,0.828,0.672,1.5,1.5,1.5h7.19h15.939c0.398,0,0.779,0.158,1.061,0.439l2.591,2.591l15.281,15.281
			c0.281,0.281,0.439,0.663,0.439,1.061v20.688c0,0.398-0.158,0.779-0.439,1.06l-18.432,18.441c-0.281,0.281-0.663,0.44-1.061,0.44
			H149.5c-0.828,0-1.5,0.672-1.5,1.5v13c0,0.828,0.672,1.5,1.5,1.5h21.81h7.379c0.398,0,0.779-0.158,1.061-0.439L188,191.31
			l7.31-7.31l12.25-12.241c0.282-0.281,0.44-0.663,0.44-1.061V152v-6.74v-8.519c0-0.398-0.158-0.779-0.439-1.061L199.88,128z"/>
	</g>
</g>
</svg>
