<?xml version="1.0" encoding="iso-8859-1"?>
<!-- Generator: Adobe Illustrator 27.5.0, SVG Export Plug-In . SVG Version: 6.00 Build 0)  -->
<svg version="1.1" id="Layer_1" xmlns="http://www.w3.org/2000/svg" xmlns:xlink="http://www.w3.org/1999/xlink" x="0px" y="0px"
	 viewBox="0 0 617.507 256" style="enable-background:new 0 0 617.507 256;" xml:space="preserve">
<g>
	<path d="M176.47,108.437h14.399v9.996c3.451-5.95,11.186-11.306,20.35-11.306c15.589,0,27.608,11.543,27.608,31.655v0.952
		c0,19.992-11.543,32.131-27.608,32.131c-9.877,0-17.018-4.88-20.35-10.948v31.06H176.47V108.437z M224.071,139.972v-0.952
		c0-13.804-7.14-20.587-16.542-20.587c-9.996,0-17.136,6.783-17.136,20.587v0.952c0,13.924,6.783,20.469,17.255,20.469
		C218.24,160.44,224.071,153.301,224.071,139.972z"/>
	<path d="M251.797,108.437h14.399v11.662c3.927-7.854,9.758-12.495,20.23-12.614v13.447c-12.614,0.119-20.23,4.165-20.23,17.374
		v32.369h-14.399V108.437z"/>
	<path d="M297.848,89.99c0-4.76,3.808-8.33,8.568-8.33c4.76,0,8.568,3.57,8.568,8.33c0,4.642-3.808,8.212-8.568,8.212
		C301.656,98.202,297.848,94.632,297.848,89.99z M299.395,108.437h14.399v62.238h-14.399V108.437z"/>
	<path d="M331.286,108.437h14.399v9.52c2.975-5.831,9.758-10.829,18.921-10.829c8.092,0,14.519,3.451,17.612,11.187
		c4.76-7.735,13.329-11.187,21.064-11.187c11.424,0,20.707,7.021,20.707,24.158v39.39h-14.399v-38.438
		c0-9.163-3.927-13.09-11.067-13.09s-13.686,4.76-13.686,14.28v37.248h-14.399v-38.438c0-9.163-4.046-13.09-11.067-13.09
		c-7.14,0-13.685,4.76-13.685,14.28v37.248h-14.399V108.437z"/>
	<path d="M436.006,153.419c0-14.518,14.042-19.754,31.893-19.754h7.735v-3.213c0-8.331-2.855-12.496-11.305-12.496
		c-7.498,0-11.187,3.57-11.9,9.759h-13.923c1.19-14.519,12.733-20.588,26.657-20.588c13.923,0,24.871,5.712,24.871,22.729v40.818
		h-14.161v-7.616c-4.046,5.355-9.52,8.807-19.041,8.807C445.407,171.865,436.006,166.391,436.006,153.419z M475.634,148.897v-6.188
		h-7.378c-10.948,0-17.969,2.499-17.969,10.115c0,5.236,2.856,8.688,9.996,8.688C469.089,161.512,475.634,156.87,475.634,148.897z"
		/>
	<path d="M506.573,108.437h14.399v11.662c3.927-7.854,9.758-12.495,20.23-12.614v13.447c-12.614,0.119-20.23,4.165-20.23,17.374
		v32.369h-14.399V108.437z"/>
	<path d="M572.735,164.367l-24.634-55.931h15.59l16.541,40.104l15.232-40.104h14.043l-33.916,83.54H561.43L572.735,164.367z"/>
</g>
<g>
	<path style="fill:#327FEF;" d="M112.47,88.841V198.5c0,0.828-0.672,1.5-1.5,1.5H97.9c-0.828,0-1.5-0.672-1.5-1.5v-93.148
		c0-0.338,0.114-0.666,0.324-0.931l13.07-16.51C110.676,86.796,112.47,87.42,112.47,88.841z"/>
	<path style="fill:#7F35B2;" d="M112.147,59.049l-54.732,69.332c-0.6,0.76-1.752,0.761-2.354,0.002L18.746,82.501
		c-0.882-1.115-2.676-0.491-2.676,0.931V198.5c0,0.828-0.672,1.5-1.5,1.5H1.5c-0.828,0-1.5-0.672-1.5-1.5v-141
		C0,56.672,0.672,56,1.5,56h16.034c0.458,0,0.892,0.21,1.176,0.569l36.353,45.925c0.601,0.759,1.752,0.759,2.352,0L93.76,56.569
		C94.044,56.21,94.477,56,94.936,56h16.034c0.828,0,1.5,0.672,1.5,1.5v0.619C112.47,58.457,112.356,58.784,112.147,59.049z"/>
</g>
</svg>
